G04 #@! TF.GenerationSoftware,KiCad,Pcbnew,(5.1.5)-3*
G04 #@! TF.CreationDate,2020-02-22T17:46:18+01:00*
G04 #@! TF.ProjectId,Breakoutboard,42726561-6b6f-4757-9462-6f6172642e6b,rev?*
G04 #@! TF.SameCoordinates,Original*
G04 #@! TF.FileFunction,Legend,Bot*
G04 #@! TF.FilePolarity,Positive*
%FSLAX46Y46*%
G04 Gerber Fmt 4.6, Leading zero omitted, Abs format (unit mm)*
G04 Created by KiCad (PCBNEW (5.1.5)-3) date 2020-02-22 17:46:18*
%MOMM*%
%LPD*%
G04 APERTURE LIST*
%ADD10C,0.300000*%
G04 APERTURE END LIST*
D10*
X159480000Y-98976571D02*
X159980000Y-98262285D01*
X160337142Y-98976571D02*
X160337142Y-97476571D01*
X159765714Y-97476571D01*
X159622857Y-97548000D01*
X159551428Y-97619428D01*
X159480000Y-97762285D01*
X159480000Y-97976571D01*
X159551428Y-98119428D01*
X159622857Y-98190857D01*
X159765714Y-98262285D01*
X160337142Y-98262285D01*
X158837142Y-98976571D02*
X158837142Y-97476571D01*
X157337142Y-97548000D02*
X157480000Y-97476571D01*
X157694285Y-97476571D01*
X157908571Y-97548000D01*
X158051428Y-97690857D01*
X158122857Y-97833714D01*
X158194285Y-98119428D01*
X158194285Y-98333714D01*
X158122857Y-98619428D01*
X158051428Y-98762285D01*
X157908571Y-98905142D01*
X157694285Y-98976571D01*
X157551428Y-98976571D01*
X157337142Y-98905142D01*
X157265714Y-98833714D01*
X157265714Y-98333714D01*
X157551428Y-98333714D01*
X156622857Y-98976571D02*
X156622857Y-97476571D01*
X156622857Y-98190857D02*
X155765714Y-98190857D01*
X155765714Y-98976571D02*
X155765714Y-97476571D01*
X155265714Y-97476571D02*
X154408571Y-97476571D01*
X154837142Y-98976571D02*
X154837142Y-97476571D01*
X158146571Y-93896571D02*
X158860857Y-93896571D01*
X158860857Y-92396571D01*
X157646571Y-93110857D02*
X157146571Y-93110857D01*
X156932285Y-93896571D02*
X157646571Y-93896571D01*
X157646571Y-92396571D01*
X156932285Y-92396571D01*
X155789428Y-93110857D02*
X156289428Y-93110857D01*
X156289428Y-93896571D02*
X156289428Y-92396571D01*
X155575142Y-92396571D01*
X155218000Y-92396571D02*
X154360857Y-92396571D01*
X154789428Y-93896571D02*
X154789428Y-92396571D01*
X157606857Y-95008000D02*
X157749714Y-94936571D01*
X157964000Y-94936571D01*
X158178285Y-95008000D01*
X158321142Y-95150857D01*
X158392571Y-95293714D01*
X158464000Y-95579428D01*
X158464000Y-95793714D01*
X158392571Y-96079428D01*
X158321142Y-96222285D01*
X158178285Y-96365142D01*
X157964000Y-96436571D01*
X157821142Y-96436571D01*
X157606857Y-96365142D01*
X157535428Y-96293714D01*
X157535428Y-95793714D01*
X157821142Y-95793714D01*
X156892571Y-96436571D02*
X156892571Y-94936571D01*
X156035428Y-96436571D01*
X156035428Y-94936571D01*
X155321142Y-96436571D02*
X155321142Y-94936571D01*
X154964000Y-94936571D01*
X154749714Y-95008000D01*
X154606857Y-95150857D01*
X154535428Y-95293714D01*
X154464000Y-95579428D01*
X154464000Y-95793714D01*
X154535428Y-96079428D01*
X154606857Y-96222285D01*
X154749714Y-96365142D01*
X154964000Y-96436571D01*
X155321142Y-96436571D01*
X163929142Y-86785142D02*
X164000571Y-86999428D01*
X164000571Y-87356571D01*
X163929142Y-87499428D01*
X163857714Y-87570857D01*
X163714857Y-87642285D01*
X163572000Y-87642285D01*
X163429142Y-87570857D01*
X163357714Y-87499428D01*
X163286285Y-87356571D01*
X163214857Y-87070857D01*
X163143428Y-86928000D01*
X163072000Y-86856571D01*
X162929142Y-86785142D01*
X162786285Y-86785142D01*
X162643428Y-86856571D01*
X162572000Y-86928000D01*
X162500571Y-87070857D01*
X162500571Y-87428000D01*
X162572000Y-87642285D01*
X164000571Y-88285142D02*
X162500571Y-88285142D01*
X162500571Y-88856571D01*
X162572000Y-88999428D01*
X162643428Y-89070857D01*
X162786285Y-89142285D01*
X163000571Y-89142285D01*
X163143428Y-89070857D01*
X163214857Y-88999428D01*
X163286285Y-88856571D01*
X163286285Y-88285142D01*
X164000571Y-89785142D02*
X162500571Y-89785142D01*
X164000571Y-90642285D02*
X163143428Y-89999428D01*
X162500571Y-90642285D02*
X163357714Y-89785142D01*
X164143428Y-90928000D02*
X164143428Y-92070857D01*
X164000571Y-93142285D02*
X164000571Y-92428000D01*
X162500571Y-92428000D01*
X164000571Y-93642285D02*
X162500571Y-93642285D01*
X164000571Y-94499428D01*
X162500571Y-94499428D01*
X166469142Y-86820857D02*
X166540571Y-87035142D01*
X166540571Y-87392285D01*
X166469142Y-87535142D01*
X166397714Y-87606571D01*
X166254857Y-87678000D01*
X166112000Y-87678000D01*
X165969142Y-87606571D01*
X165897714Y-87535142D01*
X165826285Y-87392285D01*
X165754857Y-87106571D01*
X165683428Y-86963714D01*
X165612000Y-86892285D01*
X165469142Y-86820857D01*
X165326285Y-86820857D01*
X165183428Y-86892285D01*
X165112000Y-86963714D01*
X165040571Y-87106571D01*
X165040571Y-87463714D01*
X165112000Y-87678000D01*
X166540571Y-88320857D02*
X165040571Y-88320857D01*
X165040571Y-88892285D01*
X165112000Y-89035142D01*
X165183428Y-89106571D01*
X165326285Y-89178000D01*
X165540571Y-89178000D01*
X165683428Y-89106571D01*
X165754857Y-89035142D01*
X165826285Y-88892285D01*
X165826285Y-88320857D01*
X166540571Y-89820857D02*
X165040571Y-89820857D01*
X166540571Y-90678000D02*
X165683428Y-90035142D01*
X165040571Y-90678000D02*
X165897714Y-89820857D01*
X166683428Y-90963714D02*
X166683428Y-92106571D01*
X166540571Y-93178000D02*
X166540571Y-92463714D01*
X165040571Y-92463714D01*
X166540571Y-93678000D02*
X165040571Y-93678000D01*
X165040571Y-94249428D01*
X165112000Y-94392285D01*
X165183428Y-94463714D01*
X165326285Y-94535142D01*
X165540571Y-94535142D01*
X165683428Y-94463714D01*
X165754857Y-94392285D01*
X165826285Y-94249428D01*
X165826285Y-93678000D01*
X166723142Y-96548285D02*
X166794571Y-96762571D01*
X166794571Y-97119714D01*
X166723142Y-97262571D01*
X166651714Y-97334000D01*
X166508857Y-97405428D01*
X166366000Y-97405428D01*
X166223142Y-97334000D01*
X166151714Y-97262571D01*
X166080285Y-97119714D01*
X166008857Y-96834000D01*
X165937428Y-96691142D01*
X165866000Y-96619714D01*
X165723142Y-96548285D01*
X165580285Y-96548285D01*
X165437428Y-96619714D01*
X165366000Y-96691142D01*
X165294571Y-96834000D01*
X165294571Y-97191142D01*
X165366000Y-97405428D01*
X166794571Y-98048285D02*
X165294571Y-98048285D01*
X165294571Y-98619714D01*
X165366000Y-98762571D01*
X165437428Y-98834000D01*
X165580285Y-98905428D01*
X165794571Y-98905428D01*
X165937428Y-98834000D01*
X166008857Y-98762571D01*
X166080285Y-98619714D01*
X166080285Y-98048285D01*
X166794571Y-99548285D02*
X165294571Y-99548285D01*
X166794571Y-100405428D02*
X165937428Y-99762571D01*
X165294571Y-100405428D02*
X166151714Y-99548285D01*
X166937428Y-100691142D02*
X166937428Y-101834000D01*
X166794571Y-103048285D02*
X166080285Y-102548285D01*
X166794571Y-102191142D02*
X165294571Y-102191142D01*
X165294571Y-102762571D01*
X165366000Y-102905428D01*
X165437428Y-102976857D01*
X165580285Y-103048285D01*
X165794571Y-103048285D01*
X165937428Y-102976857D01*
X166008857Y-102905428D01*
X166080285Y-102762571D01*
X166080285Y-102191142D01*
X166794571Y-103691142D02*
X165294571Y-103691142D01*
X166794571Y-104548285D01*
X165294571Y-104548285D01*
X169263142Y-96584000D02*
X169334571Y-96798285D01*
X169334571Y-97155428D01*
X169263142Y-97298285D01*
X169191714Y-97369714D01*
X169048857Y-97441142D01*
X168906000Y-97441142D01*
X168763142Y-97369714D01*
X168691714Y-97298285D01*
X168620285Y-97155428D01*
X168548857Y-96869714D01*
X168477428Y-96726857D01*
X168406000Y-96655428D01*
X168263142Y-96584000D01*
X168120285Y-96584000D01*
X167977428Y-96655428D01*
X167906000Y-96726857D01*
X167834571Y-96869714D01*
X167834571Y-97226857D01*
X167906000Y-97441142D01*
X169334571Y-98084000D02*
X167834571Y-98084000D01*
X167834571Y-98655428D01*
X167906000Y-98798285D01*
X167977428Y-98869714D01*
X168120285Y-98941142D01*
X168334571Y-98941142D01*
X168477428Y-98869714D01*
X168548857Y-98798285D01*
X168620285Y-98655428D01*
X168620285Y-98084000D01*
X169334571Y-99584000D02*
X167834571Y-99584000D01*
X169334571Y-100441142D02*
X168477428Y-99798285D01*
X167834571Y-100441142D02*
X168691714Y-99584000D01*
X169477428Y-100726857D02*
X169477428Y-101869714D01*
X169334571Y-103084000D02*
X168620285Y-102584000D01*
X169334571Y-102226857D02*
X167834571Y-102226857D01*
X167834571Y-102798285D01*
X167906000Y-102941142D01*
X167977428Y-103012571D01*
X168120285Y-103084000D01*
X168334571Y-103084000D01*
X168477428Y-103012571D01*
X168548857Y-102941142D01*
X168620285Y-102798285D01*
X168620285Y-102226857D01*
X169334571Y-103726857D02*
X167834571Y-103726857D01*
X167834571Y-104298285D01*
X167906000Y-104441142D01*
X167977428Y-104512571D01*
X168120285Y-104584000D01*
X168334571Y-104584000D01*
X168477428Y-104512571D01*
X168548857Y-104441142D01*
X168620285Y-104298285D01*
X168620285Y-103726857D01*
X134738857Y-106112571D02*
X134238857Y-107612571D01*
X133738857Y-106112571D01*
X133238857Y-107612571D02*
X133238857Y-106112571D01*
X132524571Y-107612571D02*
X132524571Y-106112571D01*
X131667428Y-107612571D01*
X131667428Y-106112571D01*
X134238857Y-113042000D02*
X134381714Y-112970571D01*
X134596000Y-112970571D01*
X134810285Y-113042000D01*
X134953142Y-113184857D01*
X135024571Y-113327714D01*
X135096000Y-113613428D01*
X135096000Y-113827714D01*
X135024571Y-114113428D01*
X134953142Y-114256285D01*
X134810285Y-114399142D01*
X134596000Y-114470571D01*
X134453142Y-114470571D01*
X134238857Y-114399142D01*
X134167428Y-114327714D01*
X134167428Y-113827714D01*
X134453142Y-113827714D01*
X133524571Y-114470571D02*
X133524571Y-112970571D01*
X132667428Y-114470571D01*
X132667428Y-112970571D01*
X131953142Y-114470571D02*
X131953142Y-112970571D01*
X131596000Y-112970571D01*
X131381714Y-113042000D01*
X131238857Y-113184857D01*
X131167428Y-113327714D01*
X131096000Y-113613428D01*
X131096000Y-113827714D01*
X131167428Y-114113428D01*
X131238857Y-114256285D01*
X131381714Y-114399142D01*
X131596000Y-114470571D01*
X131953142Y-114470571D01*
X147335428Y-92555142D02*
X147121142Y-92626571D01*
X146764000Y-92626571D01*
X146621142Y-92555142D01*
X146549714Y-92483714D01*
X146478285Y-92340857D01*
X146478285Y-92198000D01*
X146549714Y-92055142D01*
X146621142Y-91983714D01*
X146764000Y-91912285D01*
X147049714Y-91840857D01*
X147192571Y-91769428D01*
X147264000Y-91698000D01*
X147335428Y-91555142D01*
X147335428Y-91412285D01*
X147264000Y-91269428D01*
X147192571Y-91198000D01*
X147049714Y-91126571D01*
X146692571Y-91126571D01*
X146478285Y-91198000D01*
X145835428Y-92626571D02*
X145835428Y-91126571D01*
X145264000Y-91126571D01*
X145121142Y-91198000D01*
X145049714Y-91269428D01*
X144978285Y-91412285D01*
X144978285Y-91626571D01*
X145049714Y-91769428D01*
X145121142Y-91840857D01*
X145264000Y-91912285D01*
X145835428Y-91912285D01*
X144335428Y-92626571D02*
X144335428Y-91126571D01*
X143978285Y-92769428D02*
X142835428Y-92769428D01*
X142478285Y-91840857D02*
X141978285Y-91840857D01*
X141764000Y-92626571D02*
X142478285Y-92626571D01*
X142478285Y-91126571D01*
X141764000Y-91126571D01*
X141121142Y-92626571D02*
X141121142Y-91126571D01*
X140264000Y-92626571D01*
X140264000Y-91126571D01*
X161868857Y-67226571D02*
X161868857Y-65726571D01*
X161368857Y-66798000D01*
X160868857Y-65726571D01*
X160868857Y-67226571D01*
X160154571Y-67226571D02*
X160154571Y-65726571D01*
X158583142Y-67083714D02*
X158654571Y-67155142D01*
X158868857Y-67226571D01*
X159011714Y-67226571D01*
X159226000Y-67155142D01*
X159368857Y-67012285D01*
X159440285Y-66869428D01*
X159511714Y-66583714D01*
X159511714Y-66369428D01*
X159440285Y-66083714D01*
X159368857Y-65940857D01*
X159226000Y-65798000D01*
X159011714Y-65726571D01*
X158868857Y-65726571D01*
X158654571Y-65798000D01*
X158583142Y-65869428D01*
X158297428Y-67369428D02*
X157154571Y-67369428D01*
X156297428Y-66440857D02*
X156083142Y-66512285D01*
X156011714Y-66583714D01*
X155940285Y-66726571D01*
X155940285Y-66940857D01*
X156011714Y-67083714D01*
X156083142Y-67155142D01*
X156226000Y-67226571D01*
X156797428Y-67226571D01*
X156797428Y-65726571D01*
X156297428Y-65726571D01*
X156154571Y-65798000D01*
X156083142Y-65869428D01*
X156011714Y-66012285D01*
X156011714Y-66155142D01*
X156083142Y-66298000D01*
X156154571Y-66369428D01*
X156297428Y-66440857D01*
X156797428Y-66440857D01*
X155297428Y-67226571D02*
X155297428Y-65726571D01*
X154654571Y-66798000D02*
X153940285Y-66798000D01*
X154797428Y-67226571D02*
X154297428Y-65726571D01*
X153797428Y-67226571D01*
X153368857Y-67155142D02*
X153154571Y-67226571D01*
X152797428Y-67226571D01*
X152654571Y-67155142D01*
X152583142Y-67083714D01*
X152511714Y-66940857D01*
X152511714Y-66798000D01*
X152583142Y-66655142D01*
X152654571Y-66583714D01*
X152797428Y-66512285D01*
X153083142Y-66440857D01*
X153226000Y-66369428D01*
X153297428Y-66298000D01*
X153368857Y-66155142D01*
X153368857Y-66012285D01*
X153297428Y-65869428D01*
X153226000Y-65798000D01*
X153083142Y-65726571D01*
X152726000Y-65726571D01*
X152511714Y-65798000D01*
X161849142Y-64686571D02*
X161849142Y-63186571D01*
X161349142Y-64258000D01*
X160849142Y-63186571D01*
X160849142Y-64686571D01*
X160134857Y-64686571D02*
X160134857Y-63186571D01*
X158563428Y-64543714D02*
X158634857Y-64615142D01*
X158849142Y-64686571D01*
X158992000Y-64686571D01*
X159206285Y-64615142D01*
X159349142Y-64472285D01*
X159420571Y-64329428D01*
X159492000Y-64043714D01*
X159492000Y-63829428D01*
X159420571Y-63543714D01*
X159349142Y-63400857D01*
X159206285Y-63258000D01*
X158992000Y-63186571D01*
X158849142Y-63186571D01*
X158634857Y-63258000D01*
X158563428Y-63329428D01*
X158277714Y-64829428D02*
X157134857Y-64829428D01*
X156849142Y-64258000D02*
X156134857Y-64258000D01*
X156992000Y-64686571D02*
X156492000Y-63186571D01*
X155992000Y-64686571D01*
X155492000Y-64686571D02*
X155492000Y-63186571D01*
X154634857Y-64686571D01*
X154634857Y-63186571D01*
X161813428Y-62146571D02*
X161813428Y-60646571D01*
X161313428Y-61718000D01*
X160813428Y-60646571D01*
X160813428Y-62146571D01*
X160099142Y-62146571D02*
X160099142Y-60646571D01*
X158527714Y-62003714D02*
X158599142Y-62075142D01*
X158813428Y-62146571D01*
X158956285Y-62146571D01*
X159170571Y-62075142D01*
X159313428Y-61932285D01*
X159384857Y-61789428D01*
X159456285Y-61503714D01*
X159456285Y-61289428D01*
X159384857Y-61003714D01*
X159313428Y-60860857D01*
X159170571Y-60718000D01*
X158956285Y-60646571D01*
X158813428Y-60646571D01*
X158599142Y-60718000D01*
X158527714Y-60789428D01*
X158242000Y-62289428D02*
X157099142Y-62289428D01*
X156813428Y-61718000D02*
X156099142Y-61718000D01*
X156956285Y-62146571D02*
X156456285Y-60646571D01*
X155956285Y-62146571D01*
X155456285Y-62146571D02*
X155456285Y-60646571D01*
X154884857Y-60646571D01*
X154742000Y-60718000D01*
X154670571Y-60789428D01*
X154599142Y-60932285D01*
X154599142Y-61146571D01*
X154670571Y-61289428D01*
X154742000Y-61360857D01*
X154884857Y-61432285D01*
X155456285Y-61432285D01*
X167278571Y-82188857D02*
X167064285Y-82260285D01*
X166992857Y-82331714D01*
X166921428Y-82474571D01*
X166921428Y-82688857D01*
X166992857Y-82831714D01*
X167064285Y-82903142D01*
X167207142Y-82974571D01*
X167778571Y-82974571D01*
X167778571Y-81474571D01*
X167278571Y-81474571D01*
X167135714Y-81546000D01*
X167064285Y-81617428D01*
X166992857Y-81760285D01*
X166992857Y-81903142D01*
X167064285Y-82046000D01*
X167135714Y-82117428D01*
X167278571Y-82188857D01*
X167778571Y-82188857D01*
X166492857Y-81474571D02*
X165635714Y-81474571D01*
X166064285Y-82974571D02*
X166064285Y-81474571D01*
X165135714Y-82974571D02*
X165135714Y-81474571D01*
X164278571Y-82974571D01*
X164278571Y-81474571D01*
X163564285Y-82403142D02*
X162421428Y-82403142D01*
X162992857Y-82974571D02*
X162992857Y-81831714D01*
X167318285Y-79648857D02*
X167104000Y-79720285D01*
X167032571Y-79791714D01*
X166961142Y-79934571D01*
X166961142Y-80148857D01*
X167032571Y-80291714D01*
X167104000Y-80363142D01*
X167246857Y-80434571D01*
X167818285Y-80434571D01*
X167818285Y-78934571D01*
X167318285Y-78934571D01*
X167175428Y-79006000D01*
X167104000Y-79077428D01*
X167032571Y-79220285D01*
X167032571Y-79363142D01*
X167104000Y-79506000D01*
X167175428Y-79577428D01*
X167318285Y-79648857D01*
X167818285Y-79648857D01*
X166532571Y-78934571D02*
X165675428Y-78934571D01*
X166104000Y-80434571D02*
X166104000Y-78934571D01*
X165175428Y-80434571D02*
X165175428Y-78934571D01*
X164318285Y-80434571D01*
X164318285Y-78934571D01*
X163746857Y-78934571D02*
X162818285Y-78934571D01*
X163318285Y-79506000D01*
X163104000Y-79506000D01*
X162961142Y-79577428D01*
X162889714Y-79648857D01*
X162818285Y-79791714D01*
X162818285Y-80148857D01*
X162889714Y-80291714D01*
X162961142Y-80363142D01*
X163104000Y-80434571D01*
X163532571Y-80434571D01*
X163675428Y-80363142D01*
X163746857Y-80291714D01*
X167318285Y-77108857D02*
X167104000Y-77180285D01*
X167032571Y-77251714D01*
X166961142Y-77394571D01*
X166961142Y-77608857D01*
X167032571Y-77751714D01*
X167104000Y-77823142D01*
X167246857Y-77894571D01*
X167818285Y-77894571D01*
X167818285Y-76394571D01*
X167318285Y-76394571D01*
X167175428Y-76466000D01*
X167104000Y-76537428D01*
X167032571Y-76680285D01*
X167032571Y-76823142D01*
X167104000Y-76966000D01*
X167175428Y-77037428D01*
X167318285Y-77108857D01*
X167818285Y-77108857D01*
X166532571Y-76394571D02*
X165675428Y-76394571D01*
X166104000Y-77894571D02*
X166104000Y-76394571D01*
X165175428Y-77894571D02*
X165175428Y-76394571D01*
X164318285Y-77894571D01*
X164318285Y-76394571D01*
X163675428Y-76537428D02*
X163604000Y-76466000D01*
X163461142Y-76394571D01*
X163104000Y-76394571D01*
X162961142Y-76466000D01*
X162889714Y-76537428D01*
X162818285Y-76680285D01*
X162818285Y-76823142D01*
X162889714Y-77037428D01*
X163746857Y-77894571D01*
X162818285Y-77894571D01*
X167318285Y-74568857D02*
X167104000Y-74640285D01*
X167032571Y-74711714D01*
X166961142Y-74854571D01*
X166961142Y-75068857D01*
X167032571Y-75211714D01*
X167104000Y-75283142D01*
X167246857Y-75354571D01*
X167818285Y-75354571D01*
X167818285Y-73854571D01*
X167318285Y-73854571D01*
X167175428Y-73926000D01*
X167104000Y-73997428D01*
X167032571Y-74140285D01*
X167032571Y-74283142D01*
X167104000Y-74426000D01*
X167175428Y-74497428D01*
X167318285Y-74568857D01*
X167818285Y-74568857D01*
X166532571Y-73854571D02*
X165675428Y-73854571D01*
X166104000Y-75354571D02*
X166104000Y-73854571D01*
X165175428Y-75354571D02*
X165175428Y-73854571D01*
X164318285Y-75354571D01*
X164318285Y-73854571D01*
X162818285Y-75354571D02*
X163675428Y-75354571D01*
X163246857Y-75354571D02*
X163246857Y-73854571D01*
X163389714Y-74068857D01*
X163532571Y-74211714D01*
X163675428Y-74283142D01*
X167318285Y-72028857D02*
X167104000Y-72100285D01*
X167032571Y-72171714D01*
X166961142Y-72314571D01*
X166961142Y-72528857D01*
X167032571Y-72671714D01*
X167104000Y-72743142D01*
X167246857Y-72814571D01*
X167818285Y-72814571D01*
X167818285Y-71314571D01*
X167318285Y-71314571D01*
X167175428Y-71386000D01*
X167104000Y-71457428D01*
X167032571Y-71600285D01*
X167032571Y-71743142D01*
X167104000Y-71886000D01*
X167175428Y-71957428D01*
X167318285Y-72028857D01*
X167818285Y-72028857D01*
X166532571Y-71314571D02*
X165675428Y-71314571D01*
X166104000Y-72814571D02*
X166104000Y-71314571D01*
X165175428Y-72814571D02*
X165175428Y-71314571D01*
X164318285Y-72814571D01*
X164318285Y-71314571D01*
X163318285Y-71314571D02*
X163175428Y-71314571D01*
X163032571Y-71386000D01*
X162961142Y-71457428D01*
X162889714Y-71600285D01*
X162818285Y-71886000D01*
X162818285Y-72243142D01*
X162889714Y-72528857D01*
X162961142Y-72671714D01*
X163032571Y-72743142D01*
X163175428Y-72814571D01*
X163318285Y-72814571D01*
X163461142Y-72743142D01*
X163532571Y-72671714D01*
X163604000Y-72528857D01*
X163675428Y-72243142D01*
X163675428Y-71886000D01*
X163604000Y-71600285D01*
X163532571Y-71457428D01*
X163461142Y-71386000D01*
X163318285Y-71314571D01*
X167318285Y-69488857D02*
X167104000Y-69560285D01*
X167032571Y-69631714D01*
X166961142Y-69774571D01*
X166961142Y-69988857D01*
X167032571Y-70131714D01*
X167104000Y-70203142D01*
X167246857Y-70274571D01*
X167818285Y-70274571D01*
X167818285Y-68774571D01*
X167318285Y-68774571D01*
X167175428Y-68846000D01*
X167104000Y-68917428D01*
X167032571Y-69060285D01*
X167032571Y-69203142D01*
X167104000Y-69346000D01*
X167175428Y-69417428D01*
X167318285Y-69488857D01*
X167818285Y-69488857D01*
X166532571Y-68774571D02*
X165675428Y-68774571D01*
X166104000Y-70274571D02*
X166104000Y-68774571D01*
X165175428Y-70274571D02*
X165175428Y-68774571D01*
X164318285Y-70274571D01*
X164318285Y-68774571D01*
X163318285Y-68774571D02*
X163175428Y-68774571D01*
X163032571Y-68846000D01*
X162961142Y-68917428D01*
X162889714Y-69060285D01*
X162818285Y-69346000D01*
X162818285Y-69703142D01*
X162889714Y-69988857D01*
X162961142Y-70131714D01*
X163032571Y-70203142D01*
X163175428Y-70274571D01*
X163318285Y-70274571D01*
X163461142Y-70203142D01*
X163532571Y-70131714D01*
X163604000Y-69988857D01*
X163675428Y-69703142D01*
X163675428Y-69346000D01*
X163604000Y-69060285D01*
X163532571Y-68917428D01*
X163461142Y-68846000D01*
X163318285Y-68774571D01*
X138501142Y-82212571D02*
X138501142Y-80712571D01*
X138001142Y-81784000D01*
X137501142Y-80712571D01*
X137501142Y-82212571D01*
X136786857Y-82212571D02*
X136786857Y-80712571D01*
X136144000Y-82141142D02*
X135929714Y-82212571D01*
X135572571Y-82212571D01*
X135429714Y-82141142D01*
X135358285Y-82069714D01*
X135286857Y-81926857D01*
X135286857Y-81784000D01*
X135358285Y-81641142D01*
X135429714Y-81569714D01*
X135572571Y-81498285D01*
X135858285Y-81426857D01*
X136001142Y-81355428D01*
X136072571Y-81284000D01*
X136144000Y-81141142D01*
X136144000Y-80998285D01*
X136072571Y-80855428D01*
X136001142Y-80784000D01*
X135858285Y-80712571D01*
X135501142Y-80712571D01*
X135286857Y-80784000D01*
X134358285Y-80712571D02*
X134072571Y-80712571D01*
X133929714Y-80784000D01*
X133786857Y-80926857D01*
X133715428Y-81212571D01*
X133715428Y-81712571D01*
X133786857Y-81998285D01*
X133929714Y-82141142D01*
X134072571Y-82212571D01*
X134358285Y-82212571D01*
X134501142Y-82141142D01*
X134644000Y-81998285D01*
X134715428Y-81712571D01*
X134715428Y-81212571D01*
X134644000Y-80926857D01*
X134501142Y-80784000D01*
X134358285Y-80712571D01*
X138501142Y-84752571D02*
X138501142Y-83252571D01*
X138001142Y-84324000D01*
X137501142Y-83252571D01*
X137501142Y-84752571D01*
X136501142Y-83252571D02*
X136215428Y-83252571D01*
X136072571Y-83324000D01*
X135929714Y-83466857D01*
X135858285Y-83752571D01*
X135858285Y-84252571D01*
X135929714Y-84538285D01*
X136072571Y-84681142D01*
X136215428Y-84752571D01*
X136501142Y-84752571D01*
X136644000Y-84681142D01*
X136786857Y-84538285D01*
X136858285Y-84252571D01*
X136858285Y-83752571D01*
X136786857Y-83466857D01*
X136644000Y-83324000D01*
X136501142Y-83252571D01*
X135286857Y-84681142D02*
X135072571Y-84752571D01*
X134715428Y-84752571D01*
X134572571Y-84681142D01*
X134501142Y-84609714D01*
X134429714Y-84466857D01*
X134429714Y-84324000D01*
X134501142Y-84181142D01*
X134572571Y-84109714D01*
X134715428Y-84038285D01*
X135001142Y-83966857D01*
X135144000Y-83895428D01*
X135215428Y-83824000D01*
X135286857Y-83681142D01*
X135286857Y-83538285D01*
X135215428Y-83395428D01*
X135144000Y-83324000D01*
X135001142Y-83252571D01*
X134644000Y-83252571D01*
X134429714Y-83324000D01*
X133786857Y-84752571D02*
X133786857Y-83252571D01*
X136528857Y-87149714D02*
X136600285Y-87221142D01*
X136814571Y-87292571D01*
X136957428Y-87292571D01*
X137171714Y-87221142D01*
X137314571Y-87078285D01*
X137386000Y-86935428D01*
X137457428Y-86649714D01*
X137457428Y-86435428D01*
X137386000Y-86149714D01*
X137314571Y-86006857D01*
X137171714Y-85864000D01*
X136957428Y-85792571D01*
X136814571Y-85792571D01*
X136600285Y-85864000D01*
X136528857Y-85935428D01*
X135171714Y-87292571D02*
X135886000Y-87292571D01*
X135886000Y-85792571D01*
X134671714Y-87292571D02*
X134671714Y-85792571D01*
X133814571Y-87292571D02*
X134457428Y-86435428D01*
X133814571Y-85792571D02*
X134671714Y-86649714D01*
X136636000Y-89689714D02*
X136707428Y-89761142D01*
X136921714Y-89832571D01*
X137064571Y-89832571D01*
X137278857Y-89761142D01*
X137421714Y-89618285D01*
X137493142Y-89475428D01*
X137564571Y-89189714D01*
X137564571Y-88975428D01*
X137493142Y-88689714D01*
X137421714Y-88546857D01*
X137278857Y-88404000D01*
X137064571Y-88332571D01*
X136921714Y-88332571D01*
X136707428Y-88404000D01*
X136636000Y-88475428D01*
X136064571Y-89761142D02*
X135850285Y-89832571D01*
X135493142Y-89832571D01*
X135350285Y-89761142D01*
X135278857Y-89689714D01*
X135207428Y-89546857D01*
X135207428Y-89404000D01*
X135278857Y-89261142D01*
X135350285Y-89189714D01*
X135493142Y-89118285D01*
X135778857Y-89046857D01*
X135921714Y-88975428D01*
X135993142Y-88904000D01*
X136064571Y-88761142D01*
X136064571Y-88618285D01*
X135993142Y-88475428D01*
X135921714Y-88404000D01*
X135778857Y-88332571D01*
X135421714Y-88332571D01*
X135207428Y-88404000D01*
X134064571Y-89046857D02*
X133850285Y-89118285D01*
X133778857Y-89189714D01*
X133707428Y-89332571D01*
X133707428Y-89546857D01*
X133778857Y-89689714D01*
X133850285Y-89761142D01*
X133993142Y-89832571D01*
X134564571Y-89832571D01*
X134564571Y-88332571D01*
X134064571Y-88332571D01*
X133921714Y-88404000D01*
X133850285Y-88475428D01*
X133778857Y-88618285D01*
X133778857Y-88761142D01*
X133850285Y-88904000D01*
X133921714Y-88975428D01*
X134064571Y-89046857D01*
X134564571Y-89046857D01*
X133476857Y-92976000D02*
X133619714Y-92904571D01*
X133834000Y-92904571D01*
X134048285Y-92976000D01*
X134191142Y-93118857D01*
X134262571Y-93261714D01*
X134334000Y-93547428D01*
X134334000Y-93761714D01*
X134262571Y-94047428D01*
X134191142Y-94190285D01*
X134048285Y-94333142D01*
X133834000Y-94404571D01*
X133691142Y-94404571D01*
X133476857Y-94333142D01*
X133405428Y-94261714D01*
X133405428Y-93761714D01*
X133691142Y-93761714D01*
X132762571Y-94404571D02*
X132762571Y-92904571D01*
X131905428Y-94404571D01*
X131905428Y-92904571D01*
X131191142Y-94404571D02*
X131191142Y-92904571D01*
X130834000Y-92904571D01*
X130619714Y-92976000D01*
X130476857Y-93118857D01*
X130405428Y-93261714D01*
X130334000Y-93547428D01*
X130334000Y-93761714D01*
X130405428Y-94047428D01*
X130476857Y-94190285D01*
X130619714Y-94333142D01*
X130834000Y-94404571D01*
X131191142Y-94404571D01*
X136489142Y-77439057D02*
X136274857Y-77510485D01*
X136203428Y-77581914D01*
X136132000Y-77724771D01*
X136132000Y-77939057D01*
X136203428Y-78081914D01*
X136274857Y-78153342D01*
X136417714Y-78224771D01*
X136989142Y-78224771D01*
X136989142Y-76724771D01*
X136489142Y-76724771D01*
X136346285Y-76796200D01*
X136274857Y-76867628D01*
X136203428Y-77010485D01*
X136203428Y-77153342D01*
X136274857Y-77296200D01*
X136346285Y-77367628D01*
X136489142Y-77439057D01*
X136989142Y-77439057D01*
X135560571Y-77796200D02*
X134846285Y-77796200D01*
X135703428Y-78224771D02*
X135203428Y-76724771D01*
X134703428Y-78224771D01*
X134417714Y-76724771D02*
X133560571Y-76724771D01*
X133989142Y-78224771D02*
X133989142Y-76724771D01*
X137822571Y-75633971D02*
X138536857Y-75633971D01*
X138536857Y-74133971D01*
X137322571Y-74848257D02*
X136822571Y-74848257D01*
X136608285Y-75633971D02*
X137322571Y-75633971D01*
X137322571Y-74133971D01*
X136608285Y-74133971D01*
X135965428Y-75633971D02*
X135965428Y-74133971D01*
X135608285Y-74133971D01*
X135394000Y-74205400D01*
X135251142Y-74348257D01*
X135179714Y-74491114D01*
X135108285Y-74776828D01*
X135108285Y-74991114D01*
X135179714Y-75276828D01*
X135251142Y-75419685D01*
X135394000Y-75562542D01*
X135608285Y-75633971D01*
X135965428Y-75633971D01*
X134179714Y-74133971D02*
X134036857Y-74133971D01*
X133894000Y-74205400D01*
X133822571Y-74276828D01*
X133751142Y-74419685D01*
X133679714Y-74705400D01*
X133679714Y-75062542D01*
X133751142Y-75348257D01*
X133822571Y-75491114D01*
X133894000Y-75562542D01*
X134036857Y-75633971D01*
X134179714Y-75633971D01*
X134322571Y-75562542D01*
X134394000Y-75491114D01*
X134465428Y-75348257D01*
X134536857Y-75062542D01*
X134536857Y-74705400D01*
X134465428Y-74419685D01*
X134394000Y-74276828D01*
X134322571Y-74205400D01*
X134179714Y-74133971D01*
X137822571Y-73068571D02*
X138536857Y-73068571D01*
X138536857Y-71568571D01*
X137322571Y-72282857D02*
X136822571Y-72282857D01*
X136608285Y-73068571D02*
X137322571Y-73068571D01*
X137322571Y-71568571D01*
X136608285Y-71568571D01*
X135965428Y-73068571D02*
X135965428Y-71568571D01*
X135608285Y-71568571D01*
X135394000Y-71640000D01*
X135251142Y-71782857D01*
X135179714Y-71925714D01*
X135108285Y-72211428D01*
X135108285Y-72425714D01*
X135179714Y-72711428D01*
X135251142Y-72854285D01*
X135394000Y-72997142D01*
X135608285Y-73068571D01*
X135965428Y-73068571D01*
X133679714Y-73068571D02*
X134536857Y-73068571D01*
X134108285Y-73068571D02*
X134108285Y-71568571D01*
X134251142Y-71782857D01*
X134394000Y-71925714D01*
X134536857Y-71997142D01*
X137822571Y-70579371D02*
X138536857Y-70579371D01*
X138536857Y-69079371D01*
X137322571Y-69793657D02*
X136822571Y-69793657D01*
X136608285Y-70579371D02*
X137322571Y-70579371D01*
X137322571Y-69079371D01*
X136608285Y-69079371D01*
X135965428Y-70579371D02*
X135965428Y-69079371D01*
X135608285Y-69079371D01*
X135394000Y-69150800D01*
X135251142Y-69293657D01*
X135179714Y-69436514D01*
X135108285Y-69722228D01*
X135108285Y-69936514D01*
X135179714Y-70222228D01*
X135251142Y-70365085D01*
X135394000Y-70507942D01*
X135608285Y-70579371D01*
X135965428Y-70579371D01*
X134536857Y-69222228D02*
X134465428Y-69150800D01*
X134322571Y-69079371D01*
X133965428Y-69079371D01*
X133822571Y-69150800D01*
X133751142Y-69222228D01*
X133679714Y-69365085D01*
X133679714Y-69507942D01*
X133751142Y-69722228D01*
X134608285Y-70579371D01*
X133679714Y-70579371D01*
M02*
