G04 #@! TF.GenerationSoftware,KiCad,Pcbnew,(5.1.5)-3*
G04 #@! TF.CreationDate,2020-02-22T17:46:18+01:00*
G04 #@! TF.ProjectId,Breakoutboard,42726561-6b6f-4757-9462-6f6172642e6b,rev?*
G04 #@! TF.SameCoordinates,Original*
G04 #@! TF.FileFunction,Copper,L2,Bot*
G04 #@! TF.FilePolarity,Positive*
%FSLAX46Y46*%
G04 Gerber Fmt 4.6, Leading zero omitted, Abs format (unit mm)*
G04 Created by KiCad (PCBNEW (5.1.5)-3) date 2020-02-22 17:46:18*
%MOMM*%
%LPD*%
G04 APERTURE LIST*
%ADD10R,1.700000X1.700000*%
%ADD11O,1.700000X1.700000*%
%ADD12C,5.000000*%
%ADD13C,1.700000*%
%ADD14C,1.600000*%
%ADD15R,1.600000X1.600000*%
%ADD16C,3.500000*%
%ADD17R,2.200000X4.000000*%
%ADD18O,4.000000X2.200000*%
%ADD19O,2.200000X4.000000*%
%ADD20C,0.508000*%
%ADD21C,1.000000*%
%ADD22C,0.250000*%
%ADD23C,0.152400*%
%ADD24C,0.254000*%
G04 APERTURE END LIST*
D10*
X169116000Y-69596000D03*
D11*
X169116000Y-72136000D03*
X169116000Y-74676000D03*
X169116000Y-77216000D03*
X169116000Y-79756000D03*
X169116000Y-82296000D03*
D10*
X163000000Y-61460000D03*
D11*
X163000000Y-64000000D03*
X163000000Y-66540000D03*
D12*
X168000000Y-119000000D03*
X168000000Y-63000000D03*
X133000000Y-119000000D03*
X133000000Y-63000000D03*
D10*
X155650000Y-105810000D03*
D11*
X158190000Y-105810000D03*
D10*
X165810000Y-105810000D03*
D11*
X168350000Y-105810000D03*
D13*
X153110000Y-98190000D03*
X153110000Y-95650000D03*
D10*
X153110000Y-93110000D03*
D13*
X165810000Y-85490000D03*
D10*
X168350000Y-85490000D03*
X163270000Y-85490000D03*
D14*
X147796000Y-102235000D03*
D15*
X145796000Y-102235000D03*
X140081000Y-102235000D03*
D14*
X142081000Y-102235000D03*
D15*
X140081000Y-96520000D03*
D14*
X142081000Y-96520000D03*
D15*
X146177000Y-95885000D03*
D14*
X148677000Y-95885000D03*
D10*
X132210000Y-69970000D03*
D11*
X132210000Y-72510000D03*
X132210000Y-75050000D03*
X132210000Y-77590000D03*
D10*
X132210000Y-81400000D03*
D11*
X132210000Y-83940000D03*
X132210000Y-86480000D03*
X132210000Y-89020000D03*
X132210000Y-91560000D03*
D10*
X144526000Y-107442000D03*
D13*
X142026000Y-107442000D03*
X142026000Y-109442000D03*
X144526000Y-109442000D03*
D16*
X149296000Y-112152000D03*
X137256000Y-112152000D03*
D10*
X138938000Y-91948000D03*
D11*
X136398000Y-91948000D03*
D10*
X133000000Y-109000000D03*
D11*
X133000000Y-111540000D03*
D17*
X162814000Y-116840000D03*
D18*
X162314000Y-109540000D03*
D19*
X155714000Y-113940000D03*
X153014000Y-112740000D03*
D18*
X158214000Y-120740000D03*
D20*
X141478000Y-78105000D03*
D21*
X154432000Y-60452000D03*
X160401000Y-60579000D03*
X141732000Y-70993000D03*
X166624000Y-97409000D03*
X136779000Y-62230000D03*
X145923000Y-78003400D03*
X137998200Y-76352400D03*
D20*
X138303020Y-79576029D03*
X140589000Y-82550000D03*
X161070457Y-79998943D03*
X158750000Y-80010000D03*
X155956000Y-71374000D03*
X163068000Y-69596000D03*
X155956000Y-72517000D03*
X163068000Y-72136000D03*
X155956000Y-73660000D03*
X163068000Y-74676000D03*
X155956000Y-74676000D03*
X163068000Y-77216000D03*
X155956000Y-75819000D03*
X163068000Y-79756000D03*
X155956000Y-68072000D03*
X155956000Y-69215000D03*
X155956000Y-70358000D03*
D22*
X158190000Y-105810000D02*
X166591000Y-97409000D01*
X166591000Y-97409000D02*
X166624000Y-97409000D01*
X141732000Y-70993000D02*
X141732000Y-67183000D01*
X141732000Y-67183000D02*
X136779000Y-62230000D01*
X138303020Y-79576029D02*
X138303020Y-80264020D01*
X138303020Y-80264020D02*
X140589000Y-82550000D01*
D23*
X161070457Y-79998943D02*
X158761057Y-79998943D01*
X158761057Y-79998943D02*
X158750000Y-80010000D01*
X162585399Y-73888601D02*
X162407620Y-74066380D01*
X163068000Y-69596000D02*
X162585399Y-70078601D01*
X162585399Y-70078601D02*
X162585399Y-73888601D01*
X162407620Y-74066380D02*
X161671000Y-74066380D01*
X161671000Y-74066380D02*
X158648380Y-74066380D01*
X158648380Y-74066380D02*
X155956000Y-71374000D01*
X163068000Y-73533000D02*
X163068000Y-72136000D01*
X163068000Y-73837066D02*
X163068000Y-73533000D01*
X162533877Y-74371189D02*
X163068000Y-73837066D01*
X157429190Y-74371190D02*
X162533877Y-74371189D01*
X155956000Y-72898000D02*
X157429190Y-74371190D01*
X155956000Y-72517000D02*
X155956000Y-72898000D01*
X156972000Y-74676000D02*
X155956000Y-73660000D01*
X163068000Y-74676000D02*
X156972000Y-74676000D01*
X163068000Y-75514934D02*
X163068000Y-76200000D01*
X162533876Y-74980810D02*
X163068000Y-75514934D01*
X163068000Y-76200000D02*
X163068000Y-77216000D01*
X156260810Y-74980810D02*
X162533876Y-74980810D01*
X155956000Y-74676000D02*
X156260810Y-74980810D01*
X162560000Y-75438000D02*
X162560000Y-79248000D01*
X162433000Y-75311000D02*
X162560000Y-75438000D01*
X156464000Y-75311000D02*
X162433000Y-75311000D01*
X162560000Y-79248000D02*
X163068000Y-79756000D01*
X155956000Y-75819000D02*
X156464000Y-75311000D01*
X155956000Y-68453000D02*
X155956000Y-68072000D01*
X157734000Y-68834000D02*
X156337000Y-68834000D01*
X161163000Y-65405000D02*
X157734000Y-68834000D01*
X161997600Y-61460000D02*
X161671000Y-61786600D01*
X163000000Y-61460000D02*
X161997600Y-61460000D01*
X161671000Y-61786600D02*
X161671000Y-64897934D01*
X156337000Y-68834000D02*
X155956000Y-68453000D01*
X161671000Y-64897934D02*
X161163934Y-65405000D01*
X161163934Y-65405000D02*
X161163000Y-65405000D01*
X157785000Y-69215000D02*
X163000000Y-64000000D01*
X155956000Y-69215000D02*
X157785000Y-69215000D01*
X162150001Y-65690001D02*
X161741065Y-65690001D01*
X163000000Y-66540000D02*
X162150001Y-65690001D01*
X161741065Y-65690001D02*
X161404033Y-66027033D01*
X155956000Y-69998790D02*
X155956000Y-70358000D01*
X156365440Y-69519810D02*
X155956000Y-69929250D01*
X157911256Y-69519810D02*
X156365440Y-69519810D01*
X155956000Y-69929250D02*
X155956000Y-69998790D01*
X161721533Y-65709533D02*
X157911256Y-69519810D01*
D24*
G36*
X168648126Y-59726714D02*
G01*
X169271572Y-59914943D01*
X169846579Y-60220681D01*
X170351247Y-60632279D01*
X170766362Y-61134067D01*
X171076105Y-61706924D01*
X171268682Y-62329039D01*
X171340001Y-63007594D01*
X171340000Y-118967721D01*
X171273286Y-119648126D01*
X171085057Y-120271570D01*
X170779323Y-120846573D01*
X170367721Y-121351248D01*
X169865933Y-121766362D01*
X169293077Y-122076104D01*
X168670961Y-122268682D01*
X167992417Y-122340000D01*
X159801160Y-122340000D01*
X160082578Y-122189579D01*
X160346766Y-121972766D01*
X160563579Y-121708578D01*
X160724686Y-121407168D01*
X160823895Y-121080119D01*
X160857394Y-120740000D01*
X160823895Y-120399881D01*
X160724686Y-120072832D01*
X160563579Y-119771422D01*
X160346766Y-119507234D01*
X160082578Y-119290421D01*
X159781168Y-119129314D01*
X159454119Y-119030105D01*
X159199225Y-119005000D01*
X157228775Y-119005000D01*
X156973881Y-119030105D01*
X156646832Y-119129314D01*
X156345422Y-119290421D01*
X156081234Y-119507234D01*
X155864421Y-119771422D01*
X155703314Y-120072832D01*
X155604105Y-120399881D01*
X155570606Y-120740000D01*
X155604105Y-121080119D01*
X155703314Y-121407168D01*
X155864421Y-121708578D01*
X156081234Y-121972766D01*
X156345422Y-122189579D01*
X156626840Y-122340000D01*
X133032279Y-122340000D01*
X132351874Y-122273286D01*
X131728430Y-122085057D01*
X131153427Y-121779323D01*
X130648752Y-121367721D01*
X130233638Y-120865933D01*
X129923896Y-120293077D01*
X129731318Y-119670961D01*
X129660000Y-118992417D01*
X129660000Y-118691229D01*
X129865000Y-118691229D01*
X129865000Y-119308771D01*
X129985476Y-119914446D01*
X130221799Y-120484979D01*
X130564886Y-120998446D01*
X131001554Y-121435114D01*
X131515021Y-121778201D01*
X132085554Y-122014524D01*
X132691229Y-122135000D01*
X133308771Y-122135000D01*
X133914446Y-122014524D01*
X134484979Y-121778201D01*
X134998446Y-121435114D01*
X135435114Y-120998446D01*
X135778201Y-120484979D01*
X136014524Y-119914446D01*
X136135000Y-119308771D01*
X136135000Y-118691229D01*
X136014524Y-118085554D01*
X135778201Y-117515021D01*
X135435114Y-117001554D01*
X134998446Y-116564886D01*
X134484979Y-116221799D01*
X133914446Y-115985476D01*
X133308771Y-115865000D01*
X132691229Y-115865000D01*
X132085554Y-115985476D01*
X131515021Y-116221799D01*
X131001554Y-116564886D01*
X130564886Y-117001554D01*
X130221799Y-117515021D01*
X129985476Y-118085554D01*
X129865000Y-118691229D01*
X129660000Y-118691229D01*
X129660000Y-111896890D01*
X131558524Y-111896890D01*
X131603175Y-112044099D01*
X131728359Y-112306920D01*
X131902412Y-112540269D01*
X132118645Y-112735178D01*
X132368748Y-112884157D01*
X132643109Y-112981481D01*
X132873000Y-112860814D01*
X132873000Y-111667000D01*
X133127000Y-111667000D01*
X133127000Y-112860814D01*
X133356891Y-112981481D01*
X133631252Y-112884157D01*
X133881355Y-112735178D01*
X134097588Y-112540269D01*
X134271641Y-112306920D01*
X134396825Y-112044099D01*
X134435346Y-111917098D01*
X134871000Y-111917098D01*
X134871000Y-112386902D01*
X134962654Y-112847679D01*
X135142440Y-113281721D01*
X135403450Y-113672349D01*
X135735651Y-114004550D01*
X136126279Y-114265560D01*
X136560321Y-114445346D01*
X137021098Y-114537000D01*
X137490902Y-114537000D01*
X137951679Y-114445346D01*
X138385721Y-114265560D01*
X138776349Y-114004550D01*
X139108550Y-113672349D01*
X139369560Y-113281721D01*
X139549346Y-112847679D01*
X139641000Y-112386902D01*
X139641000Y-111917098D01*
X146911000Y-111917098D01*
X146911000Y-112386902D01*
X147002654Y-112847679D01*
X147182440Y-113281721D01*
X147443450Y-113672349D01*
X147775651Y-114004550D01*
X148166279Y-114265560D01*
X148600321Y-114445346D01*
X149061098Y-114537000D01*
X149530902Y-114537000D01*
X149991679Y-114445346D01*
X150425721Y-114265560D01*
X150816349Y-114004550D01*
X151148550Y-113672349D01*
X151279000Y-113477117D01*
X151279000Y-113725225D01*
X151304106Y-113980119D01*
X151403315Y-114307168D01*
X151564422Y-114608578D01*
X151781235Y-114872766D01*
X152045423Y-115089579D01*
X152346833Y-115250686D01*
X152673882Y-115349895D01*
X153014000Y-115383394D01*
X153354119Y-115349895D01*
X153681168Y-115250686D01*
X153982578Y-115089579D01*
X153994245Y-115080004D01*
X154004106Y-115180119D01*
X154103315Y-115507168D01*
X154264422Y-115808578D01*
X154481235Y-116072766D01*
X154745423Y-116289579D01*
X155046833Y-116450686D01*
X155373882Y-116549895D01*
X155714000Y-116583394D01*
X156054119Y-116549895D01*
X156381168Y-116450686D01*
X156682578Y-116289579D01*
X156946766Y-116072766D01*
X157163579Y-115808578D01*
X157324686Y-115507168D01*
X157423895Y-115180119D01*
X157449000Y-114925225D01*
X157449000Y-114840000D01*
X161075928Y-114840000D01*
X161075928Y-118840000D01*
X161088188Y-118964482D01*
X161124498Y-119084180D01*
X161183463Y-119194494D01*
X161262815Y-119291185D01*
X161359506Y-119370537D01*
X161469820Y-119429502D01*
X161589518Y-119465812D01*
X161714000Y-119478072D01*
X163914000Y-119478072D01*
X164038482Y-119465812D01*
X164158180Y-119429502D01*
X164268494Y-119370537D01*
X164365185Y-119291185D01*
X164444537Y-119194494D01*
X164503502Y-119084180D01*
X164539812Y-118964482D01*
X164552072Y-118840000D01*
X164552072Y-118691229D01*
X164865000Y-118691229D01*
X164865000Y-119308771D01*
X164985476Y-119914446D01*
X165221799Y-120484979D01*
X165564886Y-120998446D01*
X166001554Y-121435114D01*
X166515021Y-121778201D01*
X167085554Y-122014524D01*
X167691229Y-122135000D01*
X168308771Y-122135000D01*
X168914446Y-122014524D01*
X169484979Y-121778201D01*
X169998446Y-121435114D01*
X170435114Y-120998446D01*
X170778201Y-120484979D01*
X171014524Y-119914446D01*
X171135000Y-119308771D01*
X171135000Y-118691229D01*
X171014524Y-118085554D01*
X170778201Y-117515021D01*
X170435114Y-117001554D01*
X169998446Y-116564886D01*
X169484979Y-116221799D01*
X168914446Y-115985476D01*
X168308771Y-115865000D01*
X167691229Y-115865000D01*
X167085554Y-115985476D01*
X166515021Y-116221799D01*
X166001554Y-116564886D01*
X165564886Y-117001554D01*
X165221799Y-117515021D01*
X164985476Y-118085554D01*
X164865000Y-118691229D01*
X164552072Y-118691229D01*
X164552072Y-114840000D01*
X164539812Y-114715518D01*
X164503502Y-114595820D01*
X164444537Y-114485506D01*
X164365185Y-114388815D01*
X164268494Y-114309463D01*
X164158180Y-114250498D01*
X164038482Y-114214188D01*
X163914000Y-114201928D01*
X161714000Y-114201928D01*
X161589518Y-114214188D01*
X161469820Y-114250498D01*
X161359506Y-114309463D01*
X161262815Y-114388815D01*
X161183463Y-114485506D01*
X161124498Y-114595820D01*
X161088188Y-114715518D01*
X161075928Y-114840000D01*
X157449000Y-114840000D01*
X157449000Y-112954775D01*
X157423895Y-112699881D01*
X157324686Y-112372832D01*
X157163579Y-112071422D01*
X156946766Y-111807234D01*
X156682577Y-111590421D01*
X156381167Y-111429314D01*
X156054118Y-111330105D01*
X155714000Y-111296606D01*
X155373881Y-111330105D01*
X155046832Y-111429314D01*
X154745422Y-111590421D01*
X154733755Y-111599995D01*
X154723895Y-111499881D01*
X154624686Y-111172832D01*
X154463579Y-110871422D01*
X154246766Y-110607234D01*
X153982577Y-110390421D01*
X153681167Y-110229314D01*
X153354118Y-110130105D01*
X153014000Y-110096606D01*
X152673881Y-110130105D01*
X152346832Y-110229314D01*
X152045422Y-110390421D01*
X151781234Y-110607234D01*
X151564421Y-110871423D01*
X151441967Y-111100518D01*
X151409560Y-111022279D01*
X151148550Y-110631651D01*
X150816349Y-110299450D01*
X150425721Y-110038440D01*
X149991679Y-109858654D01*
X149530902Y-109767000D01*
X149061098Y-109767000D01*
X148600321Y-109858654D01*
X148166279Y-110038440D01*
X147775651Y-110299450D01*
X147443450Y-110631651D01*
X147182440Y-111022279D01*
X147002654Y-111456321D01*
X146911000Y-111917098D01*
X139641000Y-111917098D01*
X139549346Y-111456321D01*
X139369560Y-111022279D01*
X139108550Y-110631651D01*
X138776349Y-110299450D01*
X138385721Y-110038440D01*
X137951679Y-109858654D01*
X137490902Y-109767000D01*
X137021098Y-109767000D01*
X136560321Y-109858654D01*
X136126279Y-110038440D01*
X135735651Y-110299450D01*
X135403450Y-110631651D01*
X135142440Y-111022279D01*
X134962654Y-111456321D01*
X134871000Y-111917098D01*
X134435346Y-111917098D01*
X134441476Y-111896890D01*
X134320155Y-111667000D01*
X133127000Y-111667000D01*
X132873000Y-111667000D01*
X131679845Y-111667000D01*
X131558524Y-111896890D01*
X129660000Y-111896890D01*
X129660000Y-108150000D01*
X131511928Y-108150000D01*
X131511928Y-109850000D01*
X131524188Y-109974482D01*
X131560498Y-110094180D01*
X131619463Y-110204494D01*
X131698815Y-110301185D01*
X131795506Y-110380537D01*
X131905820Y-110439502D01*
X131986466Y-110463966D01*
X131902412Y-110539731D01*
X131728359Y-110773080D01*
X131603175Y-111035901D01*
X131558524Y-111183110D01*
X131679845Y-111413000D01*
X132873000Y-111413000D01*
X132873000Y-111393000D01*
X133127000Y-111393000D01*
X133127000Y-111413000D01*
X134320155Y-111413000D01*
X134441476Y-111183110D01*
X134396825Y-111035901D01*
X134271641Y-110773080D01*
X134097588Y-110539731D01*
X134013534Y-110463966D01*
X134094180Y-110439502D01*
X134204494Y-110380537D01*
X134301185Y-110301185D01*
X134380537Y-110204494D01*
X134439502Y-110094180D01*
X134475812Y-109974482D01*
X134488072Y-109850000D01*
X134488072Y-108150000D01*
X134475812Y-108025518D01*
X134439502Y-107905820D01*
X134380537Y-107795506D01*
X134301185Y-107698815D01*
X134204494Y-107619463D01*
X134094180Y-107560498D01*
X133974482Y-107524188D01*
X133850000Y-107511928D01*
X132150000Y-107511928D01*
X132025518Y-107524188D01*
X131905820Y-107560498D01*
X131795506Y-107619463D01*
X131698815Y-107698815D01*
X131619463Y-107795506D01*
X131560498Y-107905820D01*
X131524188Y-108025518D01*
X131511928Y-108150000D01*
X129660000Y-108150000D01*
X129660000Y-107295740D01*
X140541000Y-107295740D01*
X140541000Y-107588260D01*
X140598068Y-107875158D01*
X140710010Y-108145411D01*
X140872525Y-108388632D01*
X140925893Y-108442000D01*
X140872525Y-108495368D01*
X140710010Y-108738589D01*
X140598068Y-109008842D01*
X140541000Y-109295740D01*
X140541000Y-109588260D01*
X140598068Y-109875158D01*
X140710010Y-110145411D01*
X140872525Y-110388632D01*
X141079368Y-110595475D01*
X141322589Y-110757990D01*
X141592842Y-110869932D01*
X141879740Y-110927000D01*
X142172260Y-110927000D01*
X142459158Y-110869932D01*
X142729411Y-110757990D01*
X142972632Y-110595475D01*
X143097710Y-110470397D01*
X143677208Y-110470397D01*
X143754843Y-110719472D01*
X144018883Y-110845371D01*
X144302411Y-110917339D01*
X144594531Y-110932611D01*
X144884019Y-110890599D01*
X145159747Y-110792919D01*
X145297157Y-110719472D01*
X145374792Y-110470397D01*
X144526000Y-109621605D01*
X143677208Y-110470397D01*
X143097710Y-110470397D01*
X143179475Y-110388632D01*
X143288416Y-110225590D01*
X143497603Y-110290792D01*
X144346395Y-109442000D01*
X144332253Y-109427858D01*
X144511858Y-109248253D01*
X144526000Y-109262395D01*
X144540143Y-109248253D01*
X144719748Y-109427858D01*
X144705605Y-109442000D01*
X145554397Y-110290792D01*
X145803472Y-110213157D01*
X145929371Y-109949117D01*
X146001339Y-109665589D01*
X146007904Y-109540000D01*
X159670606Y-109540000D01*
X159704105Y-109880119D01*
X159803314Y-110207168D01*
X159964421Y-110508578D01*
X160181234Y-110772766D01*
X160445422Y-110989579D01*
X160746832Y-111150686D01*
X161073881Y-111249895D01*
X161328775Y-111275000D01*
X163299225Y-111275000D01*
X163554119Y-111249895D01*
X163881168Y-111150686D01*
X164182578Y-110989579D01*
X164446766Y-110772766D01*
X164663579Y-110508578D01*
X164824686Y-110207168D01*
X164923895Y-109880119D01*
X164957394Y-109540000D01*
X164923895Y-109199881D01*
X164824686Y-108872832D01*
X164663579Y-108571422D01*
X164446766Y-108307234D01*
X164182578Y-108090421D01*
X163881168Y-107929314D01*
X163554119Y-107830105D01*
X163299225Y-107805000D01*
X161328775Y-107805000D01*
X161073881Y-107830105D01*
X160746832Y-107929314D01*
X160445422Y-108090421D01*
X160181234Y-108307234D01*
X159964421Y-108571422D01*
X159803314Y-108872832D01*
X159704105Y-109199881D01*
X159670606Y-109540000D01*
X146007904Y-109540000D01*
X146016611Y-109373469D01*
X145974599Y-109083981D01*
X145876919Y-108808253D01*
X145836241Y-108732150D01*
X145906537Y-108646494D01*
X145965502Y-108536180D01*
X146001812Y-108416482D01*
X146014072Y-108292000D01*
X146014072Y-106592000D01*
X146001812Y-106467518D01*
X145965502Y-106347820D01*
X145906537Y-106237506D01*
X145827185Y-106140815D01*
X145730494Y-106061463D01*
X145620180Y-106002498D01*
X145500482Y-105966188D01*
X145376000Y-105953928D01*
X143676000Y-105953928D01*
X143551518Y-105966188D01*
X143431820Y-106002498D01*
X143321506Y-106061463D01*
X143224815Y-106140815D01*
X143145463Y-106237506D01*
X143086498Y-106347820D01*
X143073797Y-106389690D01*
X142972632Y-106288525D01*
X142729411Y-106126010D01*
X142459158Y-106014068D01*
X142172260Y-105957000D01*
X141879740Y-105957000D01*
X141592842Y-106014068D01*
X141322589Y-106126010D01*
X141079368Y-106288525D01*
X140872525Y-106495368D01*
X140710010Y-106738589D01*
X140598068Y-107008842D01*
X140541000Y-107295740D01*
X129660000Y-107295740D01*
X129660000Y-104960000D01*
X154161928Y-104960000D01*
X154161928Y-106660000D01*
X154174188Y-106784482D01*
X154210498Y-106904180D01*
X154269463Y-107014494D01*
X154348815Y-107111185D01*
X154445506Y-107190537D01*
X154555820Y-107249502D01*
X154675518Y-107285812D01*
X154800000Y-107298072D01*
X156500000Y-107298072D01*
X156624482Y-107285812D01*
X156744180Y-107249502D01*
X156854494Y-107190537D01*
X156951185Y-107111185D01*
X157030537Y-107014494D01*
X157089502Y-106904180D01*
X157113966Y-106823534D01*
X157189731Y-106907588D01*
X157423080Y-107081641D01*
X157685901Y-107206825D01*
X157833110Y-107251476D01*
X158063000Y-107130155D01*
X158063000Y-105937000D01*
X158317000Y-105937000D01*
X158317000Y-107130155D01*
X158546890Y-107251476D01*
X158694099Y-107206825D01*
X158956920Y-107081641D01*
X159190269Y-106907588D01*
X159385178Y-106691355D01*
X159534157Y-106441252D01*
X159631481Y-106166891D01*
X159510814Y-105937000D01*
X158317000Y-105937000D01*
X158063000Y-105937000D01*
X158043000Y-105937000D01*
X158043000Y-105683000D01*
X158063000Y-105683000D01*
X158063000Y-104489845D01*
X158317000Y-104489845D01*
X158317000Y-105683000D01*
X159510814Y-105683000D01*
X159631481Y-105453109D01*
X159534157Y-105178748D01*
X159403856Y-104960000D01*
X164321928Y-104960000D01*
X164321928Y-106660000D01*
X164334188Y-106784482D01*
X164370498Y-106904180D01*
X164429463Y-107014494D01*
X164508815Y-107111185D01*
X164605506Y-107190537D01*
X164715820Y-107249502D01*
X164835518Y-107285812D01*
X164960000Y-107298072D01*
X166660000Y-107298072D01*
X166784482Y-107285812D01*
X166904180Y-107249502D01*
X167014494Y-107190537D01*
X167111185Y-107111185D01*
X167190537Y-107014494D01*
X167249502Y-106904180D01*
X167271513Y-106831620D01*
X167403368Y-106963475D01*
X167646589Y-107125990D01*
X167916842Y-107237932D01*
X168203740Y-107295000D01*
X168496260Y-107295000D01*
X168783158Y-107237932D01*
X169053411Y-107125990D01*
X169296632Y-106963475D01*
X169503475Y-106756632D01*
X169665990Y-106513411D01*
X169777932Y-106243158D01*
X169835000Y-105956260D01*
X169835000Y-105663740D01*
X169777932Y-105376842D01*
X169665990Y-105106589D01*
X169503475Y-104863368D01*
X169296632Y-104656525D01*
X169053411Y-104494010D01*
X168783158Y-104382068D01*
X168496260Y-104325000D01*
X168203740Y-104325000D01*
X167916842Y-104382068D01*
X167646589Y-104494010D01*
X167403368Y-104656525D01*
X167271513Y-104788380D01*
X167249502Y-104715820D01*
X167190537Y-104605506D01*
X167111185Y-104508815D01*
X167014494Y-104429463D01*
X166904180Y-104370498D01*
X166784482Y-104334188D01*
X166660000Y-104321928D01*
X164960000Y-104321928D01*
X164835518Y-104334188D01*
X164715820Y-104370498D01*
X164605506Y-104429463D01*
X164508815Y-104508815D01*
X164429463Y-104605506D01*
X164370498Y-104715820D01*
X164334188Y-104835518D01*
X164321928Y-104960000D01*
X159403856Y-104960000D01*
X159385178Y-104928645D01*
X159190269Y-104712412D01*
X158956920Y-104538359D01*
X158694099Y-104413175D01*
X158546890Y-104368524D01*
X158317000Y-104489845D01*
X158063000Y-104489845D01*
X157833110Y-104368524D01*
X157685901Y-104413175D01*
X157423080Y-104538359D01*
X157189731Y-104712412D01*
X157113966Y-104796466D01*
X157089502Y-104715820D01*
X157030537Y-104605506D01*
X156951185Y-104508815D01*
X156854494Y-104429463D01*
X156744180Y-104370498D01*
X156624482Y-104334188D01*
X156500000Y-104321928D01*
X154800000Y-104321928D01*
X154675518Y-104334188D01*
X154555820Y-104370498D01*
X154445506Y-104429463D01*
X154348815Y-104508815D01*
X154269463Y-104605506D01*
X154210498Y-104715820D01*
X154174188Y-104835518D01*
X154161928Y-104960000D01*
X129660000Y-104960000D01*
X129660000Y-101435000D01*
X138642928Y-101435000D01*
X138642928Y-103035000D01*
X138655188Y-103159482D01*
X138691498Y-103279180D01*
X138750463Y-103389494D01*
X138829815Y-103486185D01*
X138926506Y-103565537D01*
X139036820Y-103624502D01*
X139156518Y-103660812D01*
X139281000Y-103673072D01*
X140881000Y-103673072D01*
X141005482Y-103660812D01*
X141125180Y-103624502D01*
X141235494Y-103565537D01*
X141332185Y-103486185D01*
X141342807Y-103473242D01*
X141594996Y-103592571D01*
X141869184Y-103661300D01*
X142151512Y-103675217D01*
X142431130Y-103633787D01*
X142697292Y-103538603D01*
X142822514Y-103471671D01*
X142894097Y-103227702D01*
X142081000Y-102414605D01*
X142066858Y-102428748D01*
X141887253Y-102249143D01*
X141901395Y-102235000D01*
X142260605Y-102235000D01*
X143073702Y-103048097D01*
X143317671Y-102976514D01*
X143438571Y-102721004D01*
X143507300Y-102446816D01*
X143521217Y-102164488D01*
X143479787Y-101884870D01*
X143384603Y-101618708D01*
X143317671Y-101493486D01*
X143118340Y-101435000D01*
X144357928Y-101435000D01*
X144357928Y-103035000D01*
X144370188Y-103159482D01*
X144406498Y-103279180D01*
X144465463Y-103389494D01*
X144544815Y-103486185D01*
X144641506Y-103565537D01*
X144751820Y-103624502D01*
X144871518Y-103660812D01*
X144996000Y-103673072D01*
X146596000Y-103673072D01*
X146720482Y-103660812D01*
X146840180Y-103624502D01*
X146950494Y-103565537D01*
X147047185Y-103486185D01*
X147057807Y-103473242D01*
X147309996Y-103592571D01*
X147584184Y-103661300D01*
X147866512Y-103675217D01*
X148146130Y-103633787D01*
X148412292Y-103538603D01*
X148537514Y-103471671D01*
X148609097Y-103227702D01*
X147796000Y-102414605D01*
X147781858Y-102428748D01*
X147602253Y-102249143D01*
X147616395Y-102235000D01*
X147975605Y-102235000D01*
X148788702Y-103048097D01*
X149032671Y-102976514D01*
X149153571Y-102721004D01*
X149222300Y-102446816D01*
X149236217Y-102164488D01*
X149194787Y-101884870D01*
X149099603Y-101618708D01*
X149032671Y-101493486D01*
X148788702Y-101421903D01*
X147975605Y-102235000D01*
X147616395Y-102235000D01*
X147602253Y-102220858D01*
X147781858Y-102041253D01*
X147796000Y-102055395D01*
X148609097Y-101242298D01*
X148537514Y-100998329D01*
X148282004Y-100877429D01*
X148007816Y-100808700D01*
X147725488Y-100794783D01*
X147445870Y-100836213D01*
X147179708Y-100931397D01*
X147057691Y-100996616D01*
X147047185Y-100983815D01*
X146950494Y-100904463D01*
X146840180Y-100845498D01*
X146720482Y-100809188D01*
X146596000Y-100796928D01*
X144996000Y-100796928D01*
X144871518Y-100809188D01*
X144751820Y-100845498D01*
X144641506Y-100904463D01*
X144544815Y-100983815D01*
X144465463Y-101080506D01*
X144406498Y-101190820D01*
X144370188Y-101310518D01*
X144357928Y-101435000D01*
X143118340Y-101435000D01*
X143073702Y-101421903D01*
X142260605Y-102235000D01*
X141901395Y-102235000D01*
X141887253Y-102220858D01*
X142066858Y-102041253D01*
X142081000Y-102055395D01*
X142894097Y-101242298D01*
X142822514Y-100998329D01*
X142567004Y-100877429D01*
X142292816Y-100808700D01*
X142010488Y-100794783D01*
X141730870Y-100836213D01*
X141464708Y-100931397D01*
X141342691Y-100996616D01*
X141332185Y-100983815D01*
X141235494Y-100904463D01*
X141125180Y-100845498D01*
X141005482Y-100809188D01*
X140881000Y-100796928D01*
X139281000Y-100796928D01*
X139156518Y-100809188D01*
X139036820Y-100845498D01*
X138926506Y-100904463D01*
X138829815Y-100983815D01*
X138750463Y-101080506D01*
X138691498Y-101190820D01*
X138655188Y-101310518D01*
X138642928Y-101435000D01*
X129660000Y-101435000D01*
X129660000Y-95720000D01*
X138642928Y-95720000D01*
X138642928Y-97320000D01*
X138655188Y-97444482D01*
X138691498Y-97564180D01*
X138750463Y-97674494D01*
X138829815Y-97771185D01*
X138926506Y-97850537D01*
X139036820Y-97909502D01*
X139156518Y-97945812D01*
X139281000Y-97958072D01*
X140881000Y-97958072D01*
X141005482Y-97945812D01*
X141125180Y-97909502D01*
X141235494Y-97850537D01*
X141332185Y-97771185D01*
X141342807Y-97758242D01*
X141594996Y-97877571D01*
X141869184Y-97946300D01*
X142151512Y-97960217D01*
X142431130Y-97918787D01*
X142697292Y-97823603D01*
X142822514Y-97756671D01*
X142894097Y-97512702D01*
X142081000Y-96699605D01*
X142066858Y-96713748D01*
X141887253Y-96534143D01*
X141901395Y-96520000D01*
X142260605Y-96520000D01*
X143073702Y-97333097D01*
X143317671Y-97261514D01*
X143438571Y-97006004D01*
X143507300Y-96731816D01*
X143521217Y-96449488D01*
X143479787Y-96169870D01*
X143384603Y-95903708D01*
X143317671Y-95778486D01*
X143073702Y-95706903D01*
X142260605Y-96520000D01*
X141901395Y-96520000D01*
X141887253Y-96505858D01*
X142066858Y-96326253D01*
X142081000Y-96340395D01*
X142894097Y-95527298D01*
X142822514Y-95283329D01*
X142567004Y-95162429D01*
X142292816Y-95093700D01*
X142116323Y-95085000D01*
X144738928Y-95085000D01*
X144738928Y-96685000D01*
X144751188Y-96809482D01*
X144787498Y-96929180D01*
X144846463Y-97039494D01*
X144925815Y-97136185D01*
X145022506Y-97215537D01*
X145132820Y-97274502D01*
X145252518Y-97310812D01*
X145377000Y-97323072D01*
X146977000Y-97323072D01*
X147101482Y-97310812D01*
X147221180Y-97274502D01*
X147331494Y-97215537D01*
X147428185Y-97136185D01*
X147507537Y-97039494D01*
X147566502Y-96929180D01*
X147582117Y-96877702D01*
X147863903Y-96877702D01*
X147935486Y-97121671D01*
X148190996Y-97242571D01*
X148465184Y-97311300D01*
X148747512Y-97325217D01*
X149027130Y-97283787D01*
X149293292Y-97188603D01*
X149418514Y-97121671D01*
X149490097Y-96877702D01*
X148677000Y-96064605D01*
X147863903Y-96877702D01*
X147582117Y-96877702D01*
X147602812Y-96809482D01*
X147615072Y-96685000D01*
X147615072Y-96677785D01*
X147684298Y-96698097D01*
X148497395Y-95885000D01*
X148856605Y-95885000D01*
X149669702Y-96698097D01*
X149913671Y-96626514D01*
X150034571Y-96371004D01*
X150103300Y-96096816D01*
X150117217Y-95814488D01*
X150075787Y-95534870D01*
X149980603Y-95268708D01*
X149913671Y-95143486D01*
X149669702Y-95071903D01*
X148856605Y-95885000D01*
X148497395Y-95885000D01*
X147684298Y-95071903D01*
X147615072Y-95092215D01*
X147615072Y-95085000D01*
X147602812Y-94960518D01*
X147582118Y-94892298D01*
X147863903Y-94892298D01*
X148677000Y-95705395D01*
X149490097Y-94892298D01*
X149418514Y-94648329D01*
X149163004Y-94527429D01*
X148888816Y-94458700D01*
X148606488Y-94444783D01*
X148326870Y-94486213D01*
X148060708Y-94581397D01*
X147935486Y-94648329D01*
X147863903Y-94892298D01*
X147582118Y-94892298D01*
X147566502Y-94840820D01*
X147507537Y-94730506D01*
X147428185Y-94633815D01*
X147331494Y-94554463D01*
X147221180Y-94495498D01*
X147101482Y-94459188D01*
X146977000Y-94446928D01*
X145377000Y-94446928D01*
X145252518Y-94459188D01*
X145132820Y-94495498D01*
X145022506Y-94554463D01*
X144925815Y-94633815D01*
X144846463Y-94730506D01*
X144787498Y-94840820D01*
X144751188Y-94960518D01*
X144738928Y-95085000D01*
X142116323Y-95085000D01*
X142010488Y-95079783D01*
X141730870Y-95121213D01*
X141464708Y-95216397D01*
X141342691Y-95281616D01*
X141332185Y-95268815D01*
X141235494Y-95189463D01*
X141125180Y-95130498D01*
X141005482Y-95094188D01*
X140881000Y-95081928D01*
X139281000Y-95081928D01*
X139156518Y-95094188D01*
X139036820Y-95130498D01*
X138926506Y-95189463D01*
X138829815Y-95268815D01*
X138750463Y-95365506D01*
X138691498Y-95475820D01*
X138655188Y-95595518D01*
X138642928Y-95720000D01*
X129660000Y-95720000D01*
X129660000Y-91916890D01*
X130768524Y-91916890D01*
X130813175Y-92064099D01*
X130938359Y-92326920D01*
X131112412Y-92560269D01*
X131328645Y-92755178D01*
X131578748Y-92904157D01*
X131853109Y-93001481D01*
X132083000Y-92880814D01*
X132083000Y-91687000D01*
X132337000Y-91687000D01*
X132337000Y-92880814D01*
X132566891Y-93001481D01*
X132841252Y-92904157D01*
X133091355Y-92755178D01*
X133307588Y-92560269D01*
X133481641Y-92326920D01*
X133606825Y-92064099D01*
X133651476Y-91916890D01*
X133590708Y-91801740D01*
X134913000Y-91801740D01*
X134913000Y-92094260D01*
X134970068Y-92381158D01*
X135082010Y-92651411D01*
X135244525Y-92894632D01*
X135451368Y-93101475D01*
X135694589Y-93263990D01*
X135964842Y-93375932D01*
X136251740Y-93433000D01*
X136544260Y-93433000D01*
X136831158Y-93375932D01*
X137101411Y-93263990D01*
X137344632Y-93101475D01*
X137476487Y-92969620D01*
X137498498Y-93042180D01*
X137557463Y-93152494D01*
X137636815Y-93249185D01*
X137733506Y-93328537D01*
X137843820Y-93387502D01*
X137963518Y-93423812D01*
X138088000Y-93436072D01*
X139788000Y-93436072D01*
X139912482Y-93423812D01*
X140032180Y-93387502D01*
X140142494Y-93328537D01*
X140239185Y-93249185D01*
X140318537Y-93152494D01*
X140377502Y-93042180D01*
X140413812Y-92922482D01*
X140426072Y-92798000D01*
X140426072Y-92260000D01*
X151621928Y-92260000D01*
X151621928Y-93960000D01*
X151634188Y-94084482D01*
X151670498Y-94204180D01*
X151729463Y-94314494D01*
X151808815Y-94411185D01*
X151905506Y-94490537D01*
X152015820Y-94549502D01*
X152088380Y-94571513D01*
X151956525Y-94703368D01*
X151794010Y-94946589D01*
X151682068Y-95216842D01*
X151625000Y-95503740D01*
X151625000Y-95796260D01*
X151682068Y-96083158D01*
X151794010Y-96353411D01*
X151956525Y-96596632D01*
X152163368Y-96803475D01*
X152337760Y-96920000D01*
X152163368Y-97036525D01*
X151956525Y-97243368D01*
X151794010Y-97486589D01*
X151682068Y-97756842D01*
X151625000Y-98043740D01*
X151625000Y-98336260D01*
X151682068Y-98623158D01*
X151794010Y-98893411D01*
X151956525Y-99136632D01*
X152163368Y-99343475D01*
X152406589Y-99505990D01*
X152676842Y-99617932D01*
X152963740Y-99675000D01*
X153256260Y-99675000D01*
X153543158Y-99617932D01*
X153813411Y-99505990D01*
X154056632Y-99343475D01*
X154263475Y-99136632D01*
X154425990Y-98893411D01*
X154537932Y-98623158D01*
X154595000Y-98336260D01*
X154595000Y-98043740D01*
X154537932Y-97756842D01*
X154425990Y-97486589D01*
X154263475Y-97243368D01*
X154056632Y-97036525D01*
X153882240Y-96920000D01*
X154056632Y-96803475D01*
X154263475Y-96596632D01*
X154425990Y-96353411D01*
X154537932Y-96083158D01*
X154595000Y-95796260D01*
X154595000Y-95503740D01*
X154537932Y-95216842D01*
X154425990Y-94946589D01*
X154263475Y-94703368D01*
X154131620Y-94571513D01*
X154204180Y-94549502D01*
X154314494Y-94490537D01*
X154411185Y-94411185D01*
X154490537Y-94314494D01*
X154549502Y-94204180D01*
X154585812Y-94084482D01*
X154598072Y-93960000D01*
X154598072Y-92260000D01*
X154585812Y-92135518D01*
X154549502Y-92015820D01*
X154490537Y-91905506D01*
X154411185Y-91808815D01*
X154314494Y-91729463D01*
X154204180Y-91670498D01*
X154084482Y-91634188D01*
X153960000Y-91621928D01*
X152260000Y-91621928D01*
X152135518Y-91634188D01*
X152015820Y-91670498D01*
X151905506Y-91729463D01*
X151808815Y-91808815D01*
X151729463Y-91905506D01*
X151670498Y-92015820D01*
X151634188Y-92135518D01*
X151621928Y-92260000D01*
X140426072Y-92260000D01*
X140426072Y-91098000D01*
X140413812Y-90973518D01*
X140377502Y-90853820D01*
X140318537Y-90743506D01*
X140239185Y-90646815D01*
X140142494Y-90567463D01*
X140032180Y-90508498D01*
X139912482Y-90472188D01*
X139788000Y-90459928D01*
X138088000Y-90459928D01*
X137963518Y-90472188D01*
X137843820Y-90508498D01*
X137733506Y-90567463D01*
X137636815Y-90646815D01*
X137557463Y-90743506D01*
X137498498Y-90853820D01*
X137476487Y-90926380D01*
X137344632Y-90794525D01*
X137101411Y-90632010D01*
X136831158Y-90520068D01*
X136544260Y-90463000D01*
X136251740Y-90463000D01*
X135964842Y-90520068D01*
X135694589Y-90632010D01*
X135451368Y-90794525D01*
X135244525Y-91001368D01*
X135082010Y-91244589D01*
X134970068Y-91514842D01*
X134913000Y-91801740D01*
X133590708Y-91801740D01*
X133530155Y-91687000D01*
X132337000Y-91687000D01*
X132083000Y-91687000D01*
X130889845Y-91687000D01*
X130768524Y-91916890D01*
X129660000Y-91916890D01*
X129660000Y-80550000D01*
X130721928Y-80550000D01*
X130721928Y-82250000D01*
X130734188Y-82374482D01*
X130770498Y-82494180D01*
X130829463Y-82604494D01*
X130908815Y-82701185D01*
X131005506Y-82780537D01*
X131115820Y-82839502D01*
X131188380Y-82861513D01*
X131056525Y-82993368D01*
X130894010Y-83236589D01*
X130782068Y-83506842D01*
X130725000Y-83793740D01*
X130725000Y-84086260D01*
X130782068Y-84373158D01*
X130894010Y-84643411D01*
X131056525Y-84886632D01*
X131263368Y-85093475D01*
X131437760Y-85210000D01*
X131263368Y-85326525D01*
X131056525Y-85533368D01*
X130894010Y-85776589D01*
X130782068Y-86046842D01*
X130725000Y-86333740D01*
X130725000Y-86626260D01*
X130782068Y-86913158D01*
X130894010Y-87183411D01*
X131056525Y-87426632D01*
X131263368Y-87633475D01*
X131437760Y-87750000D01*
X131263368Y-87866525D01*
X131056525Y-88073368D01*
X130894010Y-88316589D01*
X130782068Y-88586842D01*
X130725000Y-88873740D01*
X130725000Y-89166260D01*
X130782068Y-89453158D01*
X130894010Y-89723411D01*
X131056525Y-89966632D01*
X131263368Y-90173475D01*
X131445534Y-90295195D01*
X131328645Y-90364822D01*
X131112412Y-90559731D01*
X130938359Y-90793080D01*
X130813175Y-91055901D01*
X130768524Y-91203110D01*
X130889845Y-91433000D01*
X132083000Y-91433000D01*
X132083000Y-91413000D01*
X132337000Y-91413000D01*
X132337000Y-91433000D01*
X133530155Y-91433000D01*
X133651476Y-91203110D01*
X133606825Y-91055901D01*
X133481641Y-90793080D01*
X133307588Y-90559731D01*
X133091355Y-90364822D01*
X132974466Y-90295195D01*
X133156632Y-90173475D01*
X133363475Y-89966632D01*
X133525990Y-89723411D01*
X133637932Y-89453158D01*
X133695000Y-89166260D01*
X133695000Y-88873740D01*
X133637932Y-88586842D01*
X133525990Y-88316589D01*
X133363475Y-88073368D01*
X133156632Y-87866525D01*
X132982240Y-87750000D01*
X133156632Y-87633475D01*
X133363475Y-87426632D01*
X133525990Y-87183411D01*
X133637932Y-86913158D01*
X133695000Y-86626260D01*
X133695000Y-86333740D01*
X133637932Y-86046842D01*
X133525990Y-85776589D01*
X133363475Y-85533368D01*
X133156632Y-85326525D01*
X132982240Y-85210000D01*
X133156632Y-85093475D01*
X133363475Y-84886632D01*
X133525990Y-84643411D01*
X133527402Y-84640000D01*
X161781928Y-84640000D01*
X161781928Y-86340000D01*
X161794188Y-86464482D01*
X161830498Y-86584180D01*
X161889463Y-86694494D01*
X161968815Y-86791185D01*
X162065506Y-86870537D01*
X162175820Y-86929502D01*
X162295518Y-86965812D01*
X162420000Y-86978072D01*
X164120000Y-86978072D01*
X164244482Y-86965812D01*
X164364180Y-86929502D01*
X164474494Y-86870537D01*
X164571185Y-86791185D01*
X164650537Y-86694494D01*
X164709502Y-86584180D01*
X164731513Y-86511620D01*
X164863368Y-86643475D01*
X165106589Y-86805990D01*
X165376842Y-86917932D01*
X165663740Y-86975000D01*
X165956260Y-86975000D01*
X166243158Y-86917932D01*
X166513411Y-86805990D01*
X166756632Y-86643475D01*
X166888487Y-86511620D01*
X166910498Y-86584180D01*
X166969463Y-86694494D01*
X167048815Y-86791185D01*
X167145506Y-86870537D01*
X167255820Y-86929502D01*
X167375518Y-86965812D01*
X167500000Y-86978072D01*
X169200000Y-86978072D01*
X169324482Y-86965812D01*
X169444180Y-86929502D01*
X169554494Y-86870537D01*
X169651185Y-86791185D01*
X169730537Y-86694494D01*
X169789502Y-86584180D01*
X169825812Y-86464482D01*
X169838072Y-86340000D01*
X169838072Y-84640000D01*
X169825812Y-84515518D01*
X169789502Y-84395820D01*
X169730537Y-84285506D01*
X169651185Y-84188815D01*
X169554494Y-84109463D01*
X169444180Y-84050498D01*
X169324482Y-84014188D01*
X169200000Y-84001928D01*
X167500000Y-84001928D01*
X167375518Y-84014188D01*
X167255820Y-84050498D01*
X167145506Y-84109463D01*
X167048815Y-84188815D01*
X166969463Y-84285506D01*
X166910498Y-84395820D01*
X166888487Y-84468380D01*
X166756632Y-84336525D01*
X166513411Y-84174010D01*
X166243158Y-84062068D01*
X165956260Y-84005000D01*
X165663740Y-84005000D01*
X165376842Y-84062068D01*
X165106589Y-84174010D01*
X164863368Y-84336525D01*
X164731513Y-84468380D01*
X164709502Y-84395820D01*
X164650537Y-84285506D01*
X164571185Y-84188815D01*
X164474494Y-84109463D01*
X164364180Y-84050498D01*
X164244482Y-84014188D01*
X164120000Y-84001928D01*
X162420000Y-84001928D01*
X162295518Y-84014188D01*
X162175820Y-84050498D01*
X162065506Y-84109463D01*
X161968815Y-84188815D01*
X161889463Y-84285506D01*
X161830498Y-84395820D01*
X161794188Y-84515518D01*
X161781928Y-84640000D01*
X133527402Y-84640000D01*
X133637932Y-84373158D01*
X133695000Y-84086260D01*
X133695000Y-83793740D01*
X133637932Y-83506842D01*
X133525990Y-83236589D01*
X133363475Y-82993368D01*
X133231620Y-82861513D01*
X133304180Y-82839502D01*
X133414494Y-82780537D01*
X133511185Y-82701185D01*
X133590537Y-82604494D01*
X133649502Y-82494180D01*
X133685812Y-82374482D01*
X133698072Y-82250000D01*
X133698072Y-80550000D01*
X133685812Y-80425518D01*
X133649502Y-80305820D01*
X133590537Y-80195506D01*
X133511185Y-80098815D01*
X133414494Y-80019463D01*
X133304180Y-79960498D01*
X133184482Y-79924188D01*
X133060000Y-79911928D01*
X131360000Y-79911928D01*
X131235518Y-79924188D01*
X131115820Y-79960498D01*
X131005506Y-80019463D01*
X130908815Y-80098815D01*
X130829463Y-80195506D01*
X130770498Y-80305820D01*
X130734188Y-80425518D01*
X130721928Y-80550000D01*
X129660000Y-80550000D01*
X129660000Y-79488470D01*
X137414020Y-79488470D01*
X137414020Y-79663588D01*
X137448184Y-79835341D01*
X137515199Y-79997128D01*
X137543020Y-80038765D01*
X137543020Y-80226698D01*
X137539344Y-80264020D01*
X137543020Y-80301342D01*
X137543020Y-80301353D01*
X137554017Y-80413006D01*
X137571500Y-80470639D01*
X137597474Y-80556266D01*
X137668046Y-80688296D01*
X137739221Y-80775022D01*
X137763020Y-80804021D01*
X137792018Y-80827819D01*
X139724394Y-82760196D01*
X139734164Y-82809312D01*
X139801179Y-82971099D01*
X139898469Y-83116704D01*
X140022296Y-83240531D01*
X140167901Y-83337821D01*
X140329688Y-83404836D01*
X140501441Y-83439000D01*
X140676559Y-83439000D01*
X140848312Y-83404836D01*
X141010099Y-83337821D01*
X141155704Y-83240531D01*
X141279531Y-83116704D01*
X141376821Y-82971099D01*
X141443836Y-82809312D01*
X141478000Y-82637559D01*
X141478000Y-82462441D01*
X141443836Y-82290688D01*
X141376821Y-82128901D01*
X141279531Y-81983296D01*
X141155704Y-81859469D01*
X141010099Y-81762179D01*
X140848312Y-81695164D01*
X140799196Y-81685394D01*
X139096725Y-79982924D01*
X139121777Y-79922441D01*
X157861000Y-79922441D01*
X157861000Y-80097559D01*
X157895164Y-80269312D01*
X157962179Y-80431099D01*
X158059469Y-80576704D01*
X158183296Y-80700531D01*
X158328901Y-80797821D01*
X158490688Y-80864836D01*
X158662441Y-80899000D01*
X158837559Y-80899000D01*
X159009312Y-80864836D01*
X159171099Y-80797821D01*
X159302319Y-80710143D01*
X160534686Y-80710143D01*
X160649358Y-80786764D01*
X160811145Y-80853779D01*
X160982898Y-80887943D01*
X161158016Y-80887943D01*
X161329769Y-80853779D01*
X161491556Y-80786764D01*
X161637161Y-80689474D01*
X161760988Y-80565647D01*
X161858278Y-80420042D01*
X161925293Y-80258255D01*
X161959457Y-80086502D01*
X161959457Y-79911384D01*
X161925293Y-79739631D01*
X161858278Y-79577844D01*
X161760988Y-79432239D01*
X161637161Y-79308412D01*
X161491556Y-79211122D01*
X161329769Y-79144107D01*
X161158016Y-79109943D01*
X160982898Y-79109943D01*
X160811145Y-79144107D01*
X160649358Y-79211122D01*
X160534686Y-79287743D01*
X159269223Y-79287743D01*
X159171099Y-79222179D01*
X159009312Y-79155164D01*
X158837559Y-79121000D01*
X158662441Y-79121000D01*
X158490688Y-79155164D01*
X158328901Y-79222179D01*
X158183296Y-79319469D01*
X158059469Y-79443296D01*
X157962179Y-79588901D01*
X157895164Y-79750688D01*
X157861000Y-79922441D01*
X139121777Y-79922441D01*
X139157856Y-79835341D01*
X139192020Y-79663588D01*
X139192020Y-79488470D01*
X139157856Y-79316717D01*
X139090841Y-79154930D01*
X138993551Y-79009325D01*
X138869724Y-78885498D01*
X138724119Y-78788208D01*
X138562332Y-78721193D01*
X138390579Y-78687029D01*
X138215461Y-78687029D01*
X138043708Y-78721193D01*
X137881921Y-78788208D01*
X137736316Y-78885498D01*
X137612489Y-79009325D01*
X137515199Y-79154930D01*
X137448184Y-79316717D01*
X137414020Y-79488470D01*
X129660000Y-79488470D01*
X129660000Y-69120000D01*
X130721928Y-69120000D01*
X130721928Y-70820000D01*
X130734188Y-70944482D01*
X130770498Y-71064180D01*
X130829463Y-71174494D01*
X130908815Y-71271185D01*
X131005506Y-71350537D01*
X131115820Y-71409502D01*
X131188380Y-71431513D01*
X131056525Y-71563368D01*
X130894010Y-71806589D01*
X130782068Y-72076842D01*
X130725000Y-72363740D01*
X130725000Y-72656260D01*
X130782068Y-72943158D01*
X130894010Y-73213411D01*
X131056525Y-73456632D01*
X131263368Y-73663475D01*
X131437760Y-73780000D01*
X131263368Y-73896525D01*
X131056525Y-74103368D01*
X130894010Y-74346589D01*
X130782068Y-74616842D01*
X130725000Y-74903740D01*
X130725000Y-75196260D01*
X130782068Y-75483158D01*
X130894010Y-75753411D01*
X131056525Y-75996632D01*
X131263368Y-76203475D01*
X131437760Y-76320000D01*
X131263368Y-76436525D01*
X131056525Y-76643368D01*
X130894010Y-76886589D01*
X130782068Y-77156842D01*
X130725000Y-77443740D01*
X130725000Y-77736260D01*
X130782068Y-78023158D01*
X130894010Y-78293411D01*
X131056525Y-78536632D01*
X131263368Y-78743475D01*
X131506589Y-78905990D01*
X131776842Y-79017932D01*
X132063740Y-79075000D01*
X132356260Y-79075000D01*
X132643158Y-79017932D01*
X132913411Y-78905990D01*
X133156632Y-78743475D01*
X133363475Y-78536632D01*
X133525990Y-78293411D01*
X133637932Y-78023158D01*
X133695000Y-77736260D01*
X133695000Y-77443740D01*
X133637932Y-77156842D01*
X133525990Y-76886589D01*
X133363475Y-76643368D01*
X133156632Y-76436525D01*
X132982240Y-76320000D01*
X133156632Y-76203475D01*
X133363475Y-75996632D01*
X133525990Y-75753411D01*
X133637932Y-75483158D01*
X133695000Y-75196260D01*
X133695000Y-74903740D01*
X133637932Y-74616842D01*
X133525990Y-74346589D01*
X133363475Y-74103368D01*
X133156632Y-73896525D01*
X132982240Y-73780000D01*
X133156632Y-73663475D01*
X133363475Y-73456632D01*
X133525990Y-73213411D01*
X133637932Y-72943158D01*
X133695000Y-72656260D01*
X133695000Y-72363740D01*
X133637932Y-72076842D01*
X133525990Y-71806589D01*
X133363475Y-71563368D01*
X133231620Y-71431513D01*
X133304180Y-71409502D01*
X133414494Y-71350537D01*
X133511185Y-71271185D01*
X133590537Y-71174494D01*
X133649502Y-71064180D01*
X133685812Y-70944482D01*
X133698072Y-70820000D01*
X133698072Y-69120000D01*
X133685812Y-68995518D01*
X133649502Y-68875820D01*
X133590537Y-68765506D01*
X133511185Y-68668815D01*
X133414494Y-68589463D01*
X133304180Y-68530498D01*
X133184482Y-68494188D01*
X133060000Y-68481928D01*
X131360000Y-68481928D01*
X131235518Y-68494188D01*
X131115820Y-68530498D01*
X131005506Y-68589463D01*
X130908815Y-68668815D01*
X130829463Y-68765506D01*
X130770498Y-68875820D01*
X130734188Y-68995518D01*
X130721928Y-69120000D01*
X129660000Y-69120000D01*
X129660000Y-67984441D01*
X155067000Y-67984441D01*
X155067000Y-68159559D01*
X155101164Y-68331312D01*
X155168179Y-68493099D01*
X155265469Y-68638704D01*
X155270265Y-68643500D01*
X155265469Y-68648296D01*
X155168179Y-68793901D01*
X155101164Y-68955688D01*
X155067000Y-69127441D01*
X155067000Y-69302559D01*
X155101164Y-69474312D01*
X155168179Y-69636099D01*
X155260027Y-69773559D01*
X155255091Y-69789831D01*
X155253127Y-69809766D01*
X155168179Y-69936901D01*
X155101164Y-70098688D01*
X155067000Y-70270441D01*
X155067000Y-70445559D01*
X155101164Y-70617312D01*
X155168179Y-70779099D01*
X155226244Y-70866000D01*
X155168179Y-70952901D01*
X155101164Y-71114688D01*
X155067000Y-71286441D01*
X155067000Y-71461559D01*
X155101164Y-71633312D01*
X155168179Y-71795099D01*
X155265469Y-71940704D01*
X155270265Y-71945500D01*
X155265469Y-71950296D01*
X155168179Y-72095901D01*
X155101164Y-72257688D01*
X155067000Y-72429441D01*
X155067000Y-72604559D01*
X155101164Y-72776312D01*
X155168179Y-72938099D01*
X155265469Y-73083704D01*
X155270265Y-73088500D01*
X155265469Y-73093296D01*
X155168179Y-73238901D01*
X155101164Y-73400688D01*
X155067000Y-73572441D01*
X155067000Y-73747559D01*
X155101164Y-73919312D01*
X155168179Y-74081099D01*
X155226244Y-74168000D01*
X155168179Y-74254901D01*
X155101164Y-74416688D01*
X155067000Y-74588441D01*
X155067000Y-74763559D01*
X155101164Y-74935312D01*
X155168179Y-75097099D01*
X155265469Y-75242704D01*
X155270265Y-75247500D01*
X155265469Y-75252296D01*
X155168179Y-75397901D01*
X155101164Y-75559688D01*
X155067000Y-75731441D01*
X155067000Y-75906559D01*
X155101164Y-76078312D01*
X155168179Y-76240099D01*
X155265469Y-76385704D01*
X155389296Y-76509531D01*
X155534901Y-76606821D01*
X155696688Y-76673836D01*
X155868441Y-76708000D01*
X156043559Y-76708000D01*
X156215312Y-76673836D01*
X156377099Y-76606821D01*
X156522704Y-76509531D01*
X156646531Y-76385704D01*
X156743821Y-76240099D01*
X156810836Y-76078312D01*
X156821997Y-76022200D01*
X161848800Y-76022200D01*
X161848801Y-79213064D01*
X161845360Y-79248000D01*
X161848801Y-79282936D01*
X161859092Y-79387420D01*
X161871112Y-79427043D01*
X161899759Y-79521481D01*
X161965798Y-79645032D01*
X162011091Y-79700221D01*
X162054674Y-79753327D01*
X162081809Y-79775596D01*
X162186258Y-79880045D01*
X162213164Y-80015312D01*
X162280179Y-80177099D01*
X162377469Y-80322704D01*
X162501296Y-80446531D01*
X162646901Y-80543821D01*
X162808688Y-80610836D01*
X162980441Y-80645000D01*
X163155559Y-80645000D01*
X163327312Y-80610836D01*
X163489099Y-80543821D01*
X163634704Y-80446531D01*
X163758531Y-80322704D01*
X163855821Y-80177099D01*
X163922836Y-80015312D01*
X163957000Y-79843559D01*
X163957000Y-79668441D01*
X163922836Y-79496688D01*
X163855821Y-79334901D01*
X163758531Y-79189296D01*
X163634704Y-79065469D01*
X163489099Y-78968179D01*
X163327312Y-78901164D01*
X163271200Y-78890003D01*
X163271200Y-78081997D01*
X163327312Y-78070836D01*
X163489099Y-78003821D01*
X163634704Y-77906531D01*
X163758531Y-77782704D01*
X163855821Y-77637099D01*
X163922836Y-77475312D01*
X163957000Y-77303559D01*
X163957000Y-77128441D01*
X163922836Y-76956688D01*
X163855821Y-76794901D01*
X163779200Y-76680229D01*
X163779200Y-75549859D01*
X163782640Y-75514933D01*
X163779200Y-75480007D01*
X163779200Y-75479998D01*
X163768909Y-75375514D01*
X163735583Y-75265652D01*
X163758531Y-75242704D01*
X163855821Y-75097099D01*
X163922836Y-74935312D01*
X163957000Y-74763559D01*
X163957000Y-74588441D01*
X163922836Y-74416688D01*
X163855821Y-74254901D01*
X163758531Y-74109296D01*
X163735583Y-74086348D01*
X163768909Y-73976486D01*
X163779200Y-73872002D01*
X163779200Y-73871992D01*
X163782640Y-73837066D01*
X163779200Y-73802140D01*
X163779200Y-72671771D01*
X163855821Y-72557099D01*
X163922836Y-72395312D01*
X163957000Y-72223559D01*
X163957000Y-72048441D01*
X163922836Y-71876688D01*
X163855821Y-71714901D01*
X163758531Y-71569296D01*
X163634704Y-71445469D01*
X163489099Y-71348179D01*
X163327312Y-71281164D01*
X163296599Y-71275055D01*
X163296599Y-70456945D01*
X163327312Y-70450836D01*
X163489099Y-70383821D01*
X163634704Y-70286531D01*
X163758531Y-70162704D01*
X163855821Y-70017099D01*
X163922836Y-69855312D01*
X163957000Y-69683559D01*
X163957000Y-69508441D01*
X163922836Y-69336688D01*
X163855821Y-69174901D01*
X163758531Y-69029296D01*
X163634704Y-68905469D01*
X163489099Y-68808179D01*
X163338988Y-68746000D01*
X167627928Y-68746000D01*
X167627928Y-70446000D01*
X167640188Y-70570482D01*
X167676498Y-70690180D01*
X167735463Y-70800494D01*
X167814815Y-70897185D01*
X167911506Y-70976537D01*
X168021820Y-71035502D01*
X168094380Y-71057513D01*
X167962525Y-71189368D01*
X167800010Y-71432589D01*
X167688068Y-71702842D01*
X167631000Y-71989740D01*
X167631000Y-72282260D01*
X167688068Y-72569158D01*
X167800010Y-72839411D01*
X167962525Y-73082632D01*
X168169368Y-73289475D01*
X168343760Y-73406000D01*
X168169368Y-73522525D01*
X167962525Y-73729368D01*
X167800010Y-73972589D01*
X167688068Y-74242842D01*
X167631000Y-74529740D01*
X167631000Y-74822260D01*
X167688068Y-75109158D01*
X167800010Y-75379411D01*
X167962525Y-75622632D01*
X168169368Y-75829475D01*
X168343760Y-75946000D01*
X168169368Y-76062525D01*
X167962525Y-76269368D01*
X167800010Y-76512589D01*
X167688068Y-76782842D01*
X167631000Y-77069740D01*
X167631000Y-77362260D01*
X167688068Y-77649158D01*
X167800010Y-77919411D01*
X167962525Y-78162632D01*
X168169368Y-78369475D01*
X168343760Y-78486000D01*
X168169368Y-78602525D01*
X167962525Y-78809368D01*
X167800010Y-79052589D01*
X167688068Y-79322842D01*
X167631000Y-79609740D01*
X167631000Y-79902260D01*
X167688068Y-80189158D01*
X167800010Y-80459411D01*
X167962525Y-80702632D01*
X168169368Y-80909475D01*
X168343760Y-81026000D01*
X168169368Y-81142525D01*
X167962525Y-81349368D01*
X167800010Y-81592589D01*
X167688068Y-81862842D01*
X167631000Y-82149740D01*
X167631000Y-82442260D01*
X167688068Y-82729158D01*
X167800010Y-82999411D01*
X167962525Y-83242632D01*
X168169368Y-83449475D01*
X168412589Y-83611990D01*
X168682842Y-83723932D01*
X168969740Y-83781000D01*
X169262260Y-83781000D01*
X169549158Y-83723932D01*
X169819411Y-83611990D01*
X170062632Y-83449475D01*
X170269475Y-83242632D01*
X170431990Y-82999411D01*
X170543932Y-82729158D01*
X170601000Y-82442260D01*
X170601000Y-82149740D01*
X170543932Y-81862842D01*
X170431990Y-81592589D01*
X170269475Y-81349368D01*
X170062632Y-81142525D01*
X169888240Y-81026000D01*
X170062632Y-80909475D01*
X170269475Y-80702632D01*
X170431990Y-80459411D01*
X170543932Y-80189158D01*
X170601000Y-79902260D01*
X170601000Y-79609740D01*
X170543932Y-79322842D01*
X170431990Y-79052589D01*
X170269475Y-78809368D01*
X170062632Y-78602525D01*
X169888240Y-78486000D01*
X170062632Y-78369475D01*
X170269475Y-78162632D01*
X170431990Y-77919411D01*
X170543932Y-77649158D01*
X170601000Y-77362260D01*
X170601000Y-77069740D01*
X170543932Y-76782842D01*
X170431990Y-76512589D01*
X170269475Y-76269368D01*
X170062632Y-76062525D01*
X169888240Y-75946000D01*
X170062632Y-75829475D01*
X170269475Y-75622632D01*
X170431990Y-75379411D01*
X170543932Y-75109158D01*
X170601000Y-74822260D01*
X170601000Y-74529740D01*
X170543932Y-74242842D01*
X170431990Y-73972589D01*
X170269475Y-73729368D01*
X170062632Y-73522525D01*
X169888240Y-73406000D01*
X170062632Y-73289475D01*
X170269475Y-73082632D01*
X170431990Y-72839411D01*
X170543932Y-72569158D01*
X170601000Y-72282260D01*
X170601000Y-71989740D01*
X170543932Y-71702842D01*
X170431990Y-71432589D01*
X170269475Y-71189368D01*
X170137620Y-71057513D01*
X170210180Y-71035502D01*
X170320494Y-70976537D01*
X170417185Y-70897185D01*
X170496537Y-70800494D01*
X170555502Y-70690180D01*
X170591812Y-70570482D01*
X170604072Y-70446000D01*
X170604072Y-68746000D01*
X170591812Y-68621518D01*
X170555502Y-68501820D01*
X170496537Y-68391506D01*
X170417185Y-68294815D01*
X170320494Y-68215463D01*
X170210180Y-68156498D01*
X170090482Y-68120188D01*
X169966000Y-68107928D01*
X168266000Y-68107928D01*
X168141518Y-68120188D01*
X168021820Y-68156498D01*
X167911506Y-68215463D01*
X167814815Y-68294815D01*
X167735463Y-68391506D01*
X167676498Y-68501820D01*
X167640188Y-68621518D01*
X167627928Y-68746000D01*
X163338988Y-68746000D01*
X163327312Y-68741164D01*
X163155559Y-68707000D01*
X162980441Y-68707000D01*
X162808688Y-68741164D01*
X162646901Y-68808179D01*
X162501296Y-68905469D01*
X162377469Y-69029296D01*
X162280179Y-69174901D01*
X162213164Y-69336688D01*
X162186258Y-69471955D01*
X162107209Y-69551004D01*
X162080072Y-69573275D01*
X161991197Y-69681569D01*
X161925157Y-69805121D01*
X161884490Y-69939182D01*
X161874199Y-70043666D01*
X161874199Y-70043675D01*
X161870759Y-70078601D01*
X161874199Y-70113527D01*
X161874200Y-73355180D01*
X158942969Y-73355180D01*
X156837742Y-71249955D01*
X156810836Y-71114688D01*
X156743821Y-70952901D01*
X156685756Y-70866000D01*
X156743821Y-70779099D01*
X156810836Y-70617312D01*
X156845000Y-70445559D01*
X156845000Y-70270441D01*
X156837157Y-70231010D01*
X157876330Y-70231010D01*
X157911256Y-70234450D01*
X157946182Y-70231010D01*
X157946192Y-70231010D01*
X158050676Y-70220719D01*
X158184737Y-70180052D01*
X158308289Y-70114012D01*
X158416583Y-70025137D01*
X158438858Y-69997995D01*
X161554088Y-66882767D01*
X161572068Y-66973158D01*
X161684010Y-67243411D01*
X161846525Y-67486632D01*
X162053368Y-67693475D01*
X162296589Y-67855990D01*
X162566842Y-67967932D01*
X162853740Y-68025000D01*
X163146260Y-68025000D01*
X163433158Y-67967932D01*
X163703411Y-67855990D01*
X163946632Y-67693475D01*
X164153475Y-67486632D01*
X164315990Y-67243411D01*
X164427932Y-66973158D01*
X164485000Y-66686260D01*
X164485000Y-66393740D01*
X164427932Y-66106842D01*
X164315990Y-65836589D01*
X164153475Y-65593368D01*
X163946632Y-65386525D01*
X163772240Y-65270000D01*
X163946632Y-65153475D01*
X164153475Y-64946632D01*
X164315990Y-64703411D01*
X164427932Y-64433158D01*
X164485000Y-64146260D01*
X164485000Y-63853740D01*
X164427932Y-63566842D01*
X164315990Y-63296589D01*
X164153475Y-63053368D01*
X164021620Y-62921513D01*
X164094180Y-62899502D01*
X164204494Y-62840537D01*
X164301185Y-62761185D01*
X164358596Y-62691229D01*
X164865000Y-62691229D01*
X164865000Y-63308771D01*
X164985476Y-63914446D01*
X165221799Y-64484979D01*
X165564886Y-64998446D01*
X166001554Y-65435114D01*
X166515021Y-65778201D01*
X167085554Y-66014524D01*
X167691229Y-66135000D01*
X168308771Y-66135000D01*
X168914446Y-66014524D01*
X169484979Y-65778201D01*
X169998446Y-65435114D01*
X170435114Y-64998446D01*
X170778201Y-64484979D01*
X171014524Y-63914446D01*
X171135000Y-63308771D01*
X171135000Y-62691229D01*
X171014524Y-62085554D01*
X170778201Y-61515021D01*
X170435114Y-61001554D01*
X169998446Y-60564886D01*
X169484979Y-60221799D01*
X168914446Y-59985476D01*
X168308771Y-59865000D01*
X167691229Y-59865000D01*
X167085554Y-59985476D01*
X166515021Y-60221799D01*
X166001554Y-60564886D01*
X165564886Y-61001554D01*
X165221799Y-61515021D01*
X164985476Y-62085554D01*
X164865000Y-62691229D01*
X164358596Y-62691229D01*
X164380537Y-62664494D01*
X164439502Y-62554180D01*
X164475812Y-62434482D01*
X164488072Y-62310000D01*
X164488072Y-60610000D01*
X164475812Y-60485518D01*
X164439502Y-60365820D01*
X164380537Y-60255506D01*
X164301185Y-60158815D01*
X164204494Y-60079463D01*
X164094180Y-60020498D01*
X163974482Y-59984188D01*
X163850000Y-59971928D01*
X162150000Y-59971928D01*
X162025518Y-59984188D01*
X161905820Y-60020498D01*
X161795506Y-60079463D01*
X161698815Y-60158815D01*
X161619463Y-60255506D01*
X161560498Y-60365820D01*
X161524188Y-60485518D01*
X161511928Y-60610000D01*
X161511928Y-60938542D01*
X161492273Y-60954673D01*
X161469998Y-60981815D01*
X161192811Y-61259002D01*
X161165673Y-61281274D01*
X161076798Y-61389568D01*
X161010758Y-61513120D01*
X160970091Y-61647181D01*
X160959800Y-61751665D01*
X160959800Y-61751674D01*
X160956360Y-61786600D01*
X160959800Y-61821526D01*
X160959801Y-64603345D01*
X160690026Y-64873120D01*
X160684808Y-64877403D01*
X160684804Y-64877407D01*
X160657673Y-64899673D01*
X160635407Y-64926804D01*
X157439413Y-68122800D01*
X156845000Y-68122800D01*
X156845000Y-67984441D01*
X156810836Y-67812688D01*
X156743821Y-67650901D01*
X156646531Y-67505296D01*
X156522704Y-67381469D01*
X156377099Y-67284179D01*
X156215312Y-67217164D01*
X156043559Y-67183000D01*
X155868441Y-67183000D01*
X155696688Y-67217164D01*
X155534901Y-67284179D01*
X155389296Y-67381469D01*
X155265469Y-67505296D01*
X155168179Y-67650901D01*
X155101164Y-67812688D01*
X155067000Y-67984441D01*
X129660000Y-67984441D01*
X129660000Y-63032278D01*
X129693440Y-62691229D01*
X129865000Y-62691229D01*
X129865000Y-63308771D01*
X129985476Y-63914446D01*
X130221799Y-64484979D01*
X130564886Y-64998446D01*
X131001554Y-65435114D01*
X131515021Y-65778201D01*
X132085554Y-66014524D01*
X132691229Y-66135000D01*
X133308771Y-66135000D01*
X133914446Y-66014524D01*
X134484979Y-65778201D01*
X134998446Y-65435114D01*
X135435114Y-64998446D01*
X135778201Y-64484979D01*
X136014524Y-63914446D01*
X136135000Y-63308771D01*
X136135000Y-62691229D01*
X136014524Y-62085554D01*
X135778201Y-61515021D01*
X135435114Y-61001554D01*
X134998446Y-60564886D01*
X134484979Y-60221799D01*
X133914446Y-59985476D01*
X133308771Y-59865000D01*
X132691229Y-59865000D01*
X132085554Y-59985476D01*
X131515021Y-60221799D01*
X131001554Y-60564886D01*
X130564886Y-61001554D01*
X130221799Y-61515021D01*
X129985476Y-62085554D01*
X129865000Y-62691229D01*
X129693440Y-62691229D01*
X129726714Y-62351874D01*
X129914943Y-61728428D01*
X130220681Y-61153421D01*
X130632279Y-60648753D01*
X131134067Y-60233638D01*
X131706924Y-59923895D01*
X132329039Y-59731318D01*
X133007584Y-59660000D01*
X167967722Y-59660000D01*
X168648126Y-59726714D01*
G37*
X168648126Y-59726714D02*
X169271572Y-59914943D01*
X169846579Y-60220681D01*
X170351247Y-60632279D01*
X170766362Y-61134067D01*
X171076105Y-61706924D01*
X171268682Y-62329039D01*
X171340001Y-63007594D01*
X171340000Y-118967721D01*
X171273286Y-119648126D01*
X171085057Y-120271570D01*
X170779323Y-120846573D01*
X170367721Y-121351248D01*
X169865933Y-121766362D01*
X169293077Y-122076104D01*
X168670961Y-122268682D01*
X167992417Y-122340000D01*
X159801160Y-122340000D01*
X160082578Y-122189579D01*
X160346766Y-121972766D01*
X160563579Y-121708578D01*
X160724686Y-121407168D01*
X160823895Y-121080119D01*
X160857394Y-120740000D01*
X160823895Y-120399881D01*
X160724686Y-120072832D01*
X160563579Y-119771422D01*
X160346766Y-119507234D01*
X160082578Y-119290421D01*
X159781168Y-119129314D01*
X159454119Y-119030105D01*
X159199225Y-119005000D01*
X157228775Y-119005000D01*
X156973881Y-119030105D01*
X156646832Y-119129314D01*
X156345422Y-119290421D01*
X156081234Y-119507234D01*
X155864421Y-119771422D01*
X155703314Y-120072832D01*
X155604105Y-120399881D01*
X155570606Y-120740000D01*
X155604105Y-121080119D01*
X155703314Y-121407168D01*
X155864421Y-121708578D01*
X156081234Y-121972766D01*
X156345422Y-122189579D01*
X156626840Y-122340000D01*
X133032279Y-122340000D01*
X132351874Y-122273286D01*
X131728430Y-122085057D01*
X131153427Y-121779323D01*
X130648752Y-121367721D01*
X130233638Y-120865933D01*
X129923896Y-120293077D01*
X129731318Y-119670961D01*
X129660000Y-118992417D01*
X129660000Y-118691229D01*
X129865000Y-118691229D01*
X129865000Y-119308771D01*
X129985476Y-119914446D01*
X130221799Y-120484979D01*
X130564886Y-120998446D01*
X131001554Y-121435114D01*
X131515021Y-121778201D01*
X132085554Y-122014524D01*
X132691229Y-122135000D01*
X133308771Y-122135000D01*
X133914446Y-122014524D01*
X134484979Y-121778201D01*
X134998446Y-121435114D01*
X135435114Y-120998446D01*
X135778201Y-120484979D01*
X136014524Y-119914446D01*
X136135000Y-119308771D01*
X136135000Y-118691229D01*
X136014524Y-118085554D01*
X135778201Y-117515021D01*
X135435114Y-117001554D01*
X134998446Y-116564886D01*
X134484979Y-116221799D01*
X133914446Y-115985476D01*
X133308771Y-115865000D01*
X132691229Y-115865000D01*
X132085554Y-115985476D01*
X131515021Y-116221799D01*
X131001554Y-116564886D01*
X130564886Y-117001554D01*
X130221799Y-117515021D01*
X129985476Y-118085554D01*
X129865000Y-118691229D01*
X129660000Y-118691229D01*
X129660000Y-111896890D01*
X131558524Y-111896890D01*
X131603175Y-112044099D01*
X131728359Y-112306920D01*
X131902412Y-112540269D01*
X132118645Y-112735178D01*
X132368748Y-112884157D01*
X132643109Y-112981481D01*
X132873000Y-112860814D01*
X132873000Y-111667000D01*
X133127000Y-111667000D01*
X133127000Y-112860814D01*
X133356891Y-112981481D01*
X133631252Y-112884157D01*
X133881355Y-112735178D01*
X134097588Y-112540269D01*
X134271641Y-112306920D01*
X134396825Y-112044099D01*
X134435346Y-111917098D01*
X134871000Y-111917098D01*
X134871000Y-112386902D01*
X134962654Y-112847679D01*
X135142440Y-113281721D01*
X135403450Y-113672349D01*
X135735651Y-114004550D01*
X136126279Y-114265560D01*
X136560321Y-114445346D01*
X137021098Y-114537000D01*
X137490902Y-114537000D01*
X137951679Y-114445346D01*
X138385721Y-114265560D01*
X138776349Y-114004550D01*
X139108550Y-113672349D01*
X139369560Y-113281721D01*
X139549346Y-112847679D01*
X139641000Y-112386902D01*
X139641000Y-111917098D01*
X146911000Y-111917098D01*
X146911000Y-112386902D01*
X147002654Y-112847679D01*
X147182440Y-113281721D01*
X147443450Y-113672349D01*
X147775651Y-114004550D01*
X148166279Y-114265560D01*
X148600321Y-114445346D01*
X149061098Y-114537000D01*
X149530902Y-114537000D01*
X149991679Y-114445346D01*
X150425721Y-114265560D01*
X150816349Y-114004550D01*
X151148550Y-113672349D01*
X151279000Y-113477117D01*
X151279000Y-113725225D01*
X151304106Y-113980119D01*
X151403315Y-114307168D01*
X151564422Y-114608578D01*
X151781235Y-114872766D01*
X152045423Y-115089579D01*
X152346833Y-115250686D01*
X152673882Y-115349895D01*
X153014000Y-115383394D01*
X153354119Y-115349895D01*
X153681168Y-115250686D01*
X153982578Y-115089579D01*
X153994245Y-115080004D01*
X154004106Y-115180119D01*
X154103315Y-115507168D01*
X154264422Y-115808578D01*
X154481235Y-116072766D01*
X154745423Y-116289579D01*
X155046833Y-116450686D01*
X155373882Y-116549895D01*
X155714000Y-116583394D01*
X156054119Y-116549895D01*
X156381168Y-116450686D01*
X156682578Y-116289579D01*
X156946766Y-116072766D01*
X157163579Y-115808578D01*
X157324686Y-115507168D01*
X157423895Y-115180119D01*
X157449000Y-114925225D01*
X157449000Y-114840000D01*
X161075928Y-114840000D01*
X161075928Y-118840000D01*
X161088188Y-118964482D01*
X161124498Y-119084180D01*
X161183463Y-119194494D01*
X161262815Y-119291185D01*
X161359506Y-119370537D01*
X161469820Y-119429502D01*
X161589518Y-119465812D01*
X161714000Y-119478072D01*
X163914000Y-119478072D01*
X164038482Y-119465812D01*
X164158180Y-119429502D01*
X164268494Y-119370537D01*
X164365185Y-119291185D01*
X164444537Y-119194494D01*
X164503502Y-119084180D01*
X164539812Y-118964482D01*
X164552072Y-118840000D01*
X164552072Y-118691229D01*
X164865000Y-118691229D01*
X164865000Y-119308771D01*
X164985476Y-119914446D01*
X165221799Y-120484979D01*
X165564886Y-120998446D01*
X166001554Y-121435114D01*
X166515021Y-121778201D01*
X167085554Y-122014524D01*
X167691229Y-122135000D01*
X168308771Y-122135000D01*
X168914446Y-122014524D01*
X169484979Y-121778201D01*
X169998446Y-121435114D01*
X170435114Y-120998446D01*
X170778201Y-120484979D01*
X171014524Y-119914446D01*
X171135000Y-119308771D01*
X171135000Y-118691229D01*
X171014524Y-118085554D01*
X170778201Y-117515021D01*
X170435114Y-117001554D01*
X169998446Y-116564886D01*
X169484979Y-116221799D01*
X168914446Y-115985476D01*
X168308771Y-115865000D01*
X167691229Y-115865000D01*
X167085554Y-115985476D01*
X166515021Y-116221799D01*
X166001554Y-116564886D01*
X165564886Y-117001554D01*
X165221799Y-117515021D01*
X164985476Y-118085554D01*
X164865000Y-118691229D01*
X164552072Y-118691229D01*
X164552072Y-114840000D01*
X164539812Y-114715518D01*
X164503502Y-114595820D01*
X164444537Y-114485506D01*
X164365185Y-114388815D01*
X164268494Y-114309463D01*
X164158180Y-114250498D01*
X164038482Y-114214188D01*
X163914000Y-114201928D01*
X161714000Y-114201928D01*
X161589518Y-114214188D01*
X161469820Y-114250498D01*
X161359506Y-114309463D01*
X161262815Y-114388815D01*
X161183463Y-114485506D01*
X161124498Y-114595820D01*
X161088188Y-114715518D01*
X161075928Y-114840000D01*
X157449000Y-114840000D01*
X157449000Y-112954775D01*
X157423895Y-112699881D01*
X157324686Y-112372832D01*
X157163579Y-112071422D01*
X156946766Y-111807234D01*
X156682577Y-111590421D01*
X156381167Y-111429314D01*
X156054118Y-111330105D01*
X155714000Y-111296606D01*
X155373881Y-111330105D01*
X155046832Y-111429314D01*
X154745422Y-111590421D01*
X154733755Y-111599995D01*
X154723895Y-111499881D01*
X154624686Y-111172832D01*
X154463579Y-110871422D01*
X154246766Y-110607234D01*
X153982577Y-110390421D01*
X153681167Y-110229314D01*
X153354118Y-110130105D01*
X153014000Y-110096606D01*
X152673881Y-110130105D01*
X152346832Y-110229314D01*
X152045422Y-110390421D01*
X151781234Y-110607234D01*
X151564421Y-110871423D01*
X151441967Y-111100518D01*
X151409560Y-111022279D01*
X151148550Y-110631651D01*
X150816349Y-110299450D01*
X150425721Y-110038440D01*
X149991679Y-109858654D01*
X149530902Y-109767000D01*
X149061098Y-109767000D01*
X148600321Y-109858654D01*
X148166279Y-110038440D01*
X147775651Y-110299450D01*
X147443450Y-110631651D01*
X147182440Y-111022279D01*
X147002654Y-111456321D01*
X146911000Y-111917098D01*
X139641000Y-111917098D01*
X139549346Y-111456321D01*
X139369560Y-111022279D01*
X139108550Y-110631651D01*
X138776349Y-110299450D01*
X138385721Y-110038440D01*
X137951679Y-109858654D01*
X137490902Y-109767000D01*
X137021098Y-109767000D01*
X136560321Y-109858654D01*
X136126279Y-110038440D01*
X135735651Y-110299450D01*
X135403450Y-110631651D01*
X135142440Y-111022279D01*
X134962654Y-111456321D01*
X134871000Y-111917098D01*
X134435346Y-111917098D01*
X134441476Y-111896890D01*
X134320155Y-111667000D01*
X133127000Y-111667000D01*
X132873000Y-111667000D01*
X131679845Y-111667000D01*
X131558524Y-111896890D01*
X129660000Y-111896890D01*
X129660000Y-108150000D01*
X131511928Y-108150000D01*
X131511928Y-109850000D01*
X131524188Y-109974482D01*
X131560498Y-110094180D01*
X131619463Y-110204494D01*
X131698815Y-110301185D01*
X131795506Y-110380537D01*
X131905820Y-110439502D01*
X131986466Y-110463966D01*
X131902412Y-110539731D01*
X131728359Y-110773080D01*
X131603175Y-111035901D01*
X131558524Y-111183110D01*
X131679845Y-111413000D01*
X132873000Y-111413000D01*
X132873000Y-111393000D01*
X133127000Y-111393000D01*
X133127000Y-111413000D01*
X134320155Y-111413000D01*
X134441476Y-111183110D01*
X134396825Y-111035901D01*
X134271641Y-110773080D01*
X134097588Y-110539731D01*
X134013534Y-110463966D01*
X134094180Y-110439502D01*
X134204494Y-110380537D01*
X134301185Y-110301185D01*
X134380537Y-110204494D01*
X134439502Y-110094180D01*
X134475812Y-109974482D01*
X134488072Y-109850000D01*
X134488072Y-108150000D01*
X134475812Y-108025518D01*
X134439502Y-107905820D01*
X134380537Y-107795506D01*
X134301185Y-107698815D01*
X134204494Y-107619463D01*
X134094180Y-107560498D01*
X133974482Y-107524188D01*
X133850000Y-107511928D01*
X132150000Y-107511928D01*
X132025518Y-107524188D01*
X131905820Y-107560498D01*
X131795506Y-107619463D01*
X131698815Y-107698815D01*
X131619463Y-107795506D01*
X131560498Y-107905820D01*
X131524188Y-108025518D01*
X131511928Y-108150000D01*
X129660000Y-108150000D01*
X129660000Y-107295740D01*
X140541000Y-107295740D01*
X140541000Y-107588260D01*
X140598068Y-107875158D01*
X140710010Y-108145411D01*
X140872525Y-108388632D01*
X140925893Y-108442000D01*
X140872525Y-108495368D01*
X140710010Y-108738589D01*
X140598068Y-109008842D01*
X140541000Y-109295740D01*
X140541000Y-109588260D01*
X140598068Y-109875158D01*
X140710010Y-110145411D01*
X140872525Y-110388632D01*
X141079368Y-110595475D01*
X141322589Y-110757990D01*
X141592842Y-110869932D01*
X141879740Y-110927000D01*
X142172260Y-110927000D01*
X142459158Y-110869932D01*
X142729411Y-110757990D01*
X142972632Y-110595475D01*
X143097710Y-110470397D01*
X143677208Y-110470397D01*
X143754843Y-110719472D01*
X144018883Y-110845371D01*
X144302411Y-110917339D01*
X144594531Y-110932611D01*
X144884019Y-110890599D01*
X145159747Y-110792919D01*
X145297157Y-110719472D01*
X145374792Y-110470397D01*
X144526000Y-109621605D01*
X143677208Y-110470397D01*
X143097710Y-110470397D01*
X143179475Y-110388632D01*
X143288416Y-110225590D01*
X143497603Y-110290792D01*
X144346395Y-109442000D01*
X144332253Y-109427858D01*
X144511858Y-109248253D01*
X144526000Y-109262395D01*
X144540143Y-109248253D01*
X144719748Y-109427858D01*
X144705605Y-109442000D01*
X145554397Y-110290792D01*
X145803472Y-110213157D01*
X145929371Y-109949117D01*
X146001339Y-109665589D01*
X146007904Y-109540000D01*
X159670606Y-109540000D01*
X159704105Y-109880119D01*
X159803314Y-110207168D01*
X159964421Y-110508578D01*
X160181234Y-110772766D01*
X160445422Y-110989579D01*
X160746832Y-111150686D01*
X161073881Y-111249895D01*
X161328775Y-111275000D01*
X163299225Y-111275000D01*
X163554119Y-111249895D01*
X163881168Y-111150686D01*
X164182578Y-110989579D01*
X164446766Y-110772766D01*
X164663579Y-110508578D01*
X164824686Y-110207168D01*
X164923895Y-109880119D01*
X164957394Y-109540000D01*
X164923895Y-109199881D01*
X164824686Y-108872832D01*
X164663579Y-108571422D01*
X164446766Y-108307234D01*
X164182578Y-108090421D01*
X163881168Y-107929314D01*
X163554119Y-107830105D01*
X163299225Y-107805000D01*
X161328775Y-107805000D01*
X161073881Y-107830105D01*
X160746832Y-107929314D01*
X160445422Y-108090421D01*
X160181234Y-108307234D01*
X159964421Y-108571422D01*
X159803314Y-108872832D01*
X159704105Y-109199881D01*
X159670606Y-109540000D01*
X146007904Y-109540000D01*
X146016611Y-109373469D01*
X145974599Y-109083981D01*
X145876919Y-108808253D01*
X145836241Y-108732150D01*
X145906537Y-108646494D01*
X145965502Y-108536180D01*
X146001812Y-108416482D01*
X146014072Y-108292000D01*
X146014072Y-106592000D01*
X146001812Y-106467518D01*
X145965502Y-106347820D01*
X145906537Y-106237506D01*
X145827185Y-106140815D01*
X145730494Y-106061463D01*
X145620180Y-106002498D01*
X145500482Y-105966188D01*
X145376000Y-105953928D01*
X143676000Y-105953928D01*
X143551518Y-105966188D01*
X143431820Y-106002498D01*
X143321506Y-106061463D01*
X143224815Y-106140815D01*
X143145463Y-106237506D01*
X143086498Y-106347820D01*
X143073797Y-106389690D01*
X142972632Y-106288525D01*
X142729411Y-106126010D01*
X142459158Y-106014068D01*
X142172260Y-105957000D01*
X141879740Y-105957000D01*
X141592842Y-106014068D01*
X141322589Y-106126010D01*
X141079368Y-106288525D01*
X140872525Y-106495368D01*
X140710010Y-106738589D01*
X140598068Y-107008842D01*
X140541000Y-107295740D01*
X129660000Y-107295740D01*
X129660000Y-104960000D01*
X154161928Y-104960000D01*
X154161928Y-106660000D01*
X154174188Y-106784482D01*
X154210498Y-106904180D01*
X154269463Y-107014494D01*
X154348815Y-107111185D01*
X154445506Y-107190537D01*
X154555820Y-107249502D01*
X154675518Y-107285812D01*
X154800000Y-107298072D01*
X156500000Y-107298072D01*
X156624482Y-107285812D01*
X156744180Y-107249502D01*
X156854494Y-107190537D01*
X156951185Y-107111185D01*
X157030537Y-107014494D01*
X157089502Y-106904180D01*
X157113966Y-106823534D01*
X157189731Y-106907588D01*
X157423080Y-107081641D01*
X157685901Y-107206825D01*
X157833110Y-107251476D01*
X158063000Y-107130155D01*
X158063000Y-105937000D01*
X158317000Y-105937000D01*
X158317000Y-107130155D01*
X158546890Y-107251476D01*
X158694099Y-107206825D01*
X158956920Y-107081641D01*
X159190269Y-106907588D01*
X159385178Y-106691355D01*
X159534157Y-106441252D01*
X159631481Y-106166891D01*
X159510814Y-105937000D01*
X158317000Y-105937000D01*
X158063000Y-105937000D01*
X158043000Y-105937000D01*
X158043000Y-105683000D01*
X158063000Y-105683000D01*
X158063000Y-104489845D01*
X158317000Y-104489845D01*
X158317000Y-105683000D01*
X159510814Y-105683000D01*
X159631481Y-105453109D01*
X159534157Y-105178748D01*
X159403856Y-104960000D01*
X164321928Y-104960000D01*
X164321928Y-106660000D01*
X164334188Y-106784482D01*
X164370498Y-106904180D01*
X164429463Y-107014494D01*
X164508815Y-107111185D01*
X164605506Y-107190537D01*
X164715820Y-107249502D01*
X164835518Y-107285812D01*
X164960000Y-107298072D01*
X166660000Y-107298072D01*
X166784482Y-107285812D01*
X166904180Y-107249502D01*
X167014494Y-107190537D01*
X167111185Y-107111185D01*
X167190537Y-107014494D01*
X167249502Y-106904180D01*
X167271513Y-106831620D01*
X167403368Y-106963475D01*
X167646589Y-107125990D01*
X167916842Y-107237932D01*
X168203740Y-107295000D01*
X168496260Y-107295000D01*
X168783158Y-107237932D01*
X169053411Y-107125990D01*
X169296632Y-106963475D01*
X169503475Y-106756632D01*
X169665990Y-106513411D01*
X169777932Y-106243158D01*
X169835000Y-105956260D01*
X169835000Y-105663740D01*
X169777932Y-105376842D01*
X169665990Y-105106589D01*
X169503475Y-104863368D01*
X169296632Y-104656525D01*
X169053411Y-104494010D01*
X168783158Y-104382068D01*
X168496260Y-104325000D01*
X168203740Y-104325000D01*
X167916842Y-104382068D01*
X167646589Y-104494010D01*
X167403368Y-104656525D01*
X167271513Y-104788380D01*
X167249502Y-104715820D01*
X167190537Y-104605506D01*
X167111185Y-104508815D01*
X167014494Y-104429463D01*
X166904180Y-104370498D01*
X166784482Y-104334188D01*
X166660000Y-104321928D01*
X164960000Y-104321928D01*
X164835518Y-104334188D01*
X164715820Y-104370498D01*
X164605506Y-104429463D01*
X164508815Y-104508815D01*
X164429463Y-104605506D01*
X164370498Y-104715820D01*
X164334188Y-104835518D01*
X164321928Y-104960000D01*
X159403856Y-104960000D01*
X159385178Y-104928645D01*
X159190269Y-104712412D01*
X158956920Y-104538359D01*
X158694099Y-104413175D01*
X158546890Y-104368524D01*
X158317000Y-104489845D01*
X158063000Y-104489845D01*
X157833110Y-104368524D01*
X157685901Y-104413175D01*
X157423080Y-104538359D01*
X157189731Y-104712412D01*
X157113966Y-104796466D01*
X157089502Y-104715820D01*
X157030537Y-104605506D01*
X156951185Y-104508815D01*
X156854494Y-104429463D01*
X156744180Y-104370498D01*
X156624482Y-104334188D01*
X156500000Y-104321928D01*
X154800000Y-104321928D01*
X154675518Y-104334188D01*
X154555820Y-104370498D01*
X154445506Y-104429463D01*
X154348815Y-104508815D01*
X154269463Y-104605506D01*
X154210498Y-104715820D01*
X154174188Y-104835518D01*
X154161928Y-104960000D01*
X129660000Y-104960000D01*
X129660000Y-101435000D01*
X138642928Y-101435000D01*
X138642928Y-103035000D01*
X138655188Y-103159482D01*
X138691498Y-103279180D01*
X138750463Y-103389494D01*
X138829815Y-103486185D01*
X138926506Y-103565537D01*
X139036820Y-103624502D01*
X139156518Y-103660812D01*
X139281000Y-103673072D01*
X140881000Y-103673072D01*
X141005482Y-103660812D01*
X141125180Y-103624502D01*
X141235494Y-103565537D01*
X141332185Y-103486185D01*
X141342807Y-103473242D01*
X141594996Y-103592571D01*
X141869184Y-103661300D01*
X142151512Y-103675217D01*
X142431130Y-103633787D01*
X142697292Y-103538603D01*
X142822514Y-103471671D01*
X142894097Y-103227702D01*
X142081000Y-102414605D01*
X142066858Y-102428748D01*
X141887253Y-102249143D01*
X141901395Y-102235000D01*
X142260605Y-102235000D01*
X143073702Y-103048097D01*
X143317671Y-102976514D01*
X143438571Y-102721004D01*
X143507300Y-102446816D01*
X143521217Y-102164488D01*
X143479787Y-101884870D01*
X143384603Y-101618708D01*
X143317671Y-101493486D01*
X143118340Y-101435000D01*
X144357928Y-101435000D01*
X144357928Y-103035000D01*
X144370188Y-103159482D01*
X144406498Y-103279180D01*
X144465463Y-103389494D01*
X144544815Y-103486185D01*
X144641506Y-103565537D01*
X144751820Y-103624502D01*
X144871518Y-103660812D01*
X144996000Y-103673072D01*
X146596000Y-103673072D01*
X146720482Y-103660812D01*
X146840180Y-103624502D01*
X146950494Y-103565537D01*
X147047185Y-103486185D01*
X147057807Y-103473242D01*
X147309996Y-103592571D01*
X147584184Y-103661300D01*
X147866512Y-103675217D01*
X148146130Y-103633787D01*
X148412292Y-103538603D01*
X148537514Y-103471671D01*
X148609097Y-103227702D01*
X147796000Y-102414605D01*
X147781858Y-102428748D01*
X147602253Y-102249143D01*
X147616395Y-102235000D01*
X147975605Y-102235000D01*
X148788702Y-103048097D01*
X149032671Y-102976514D01*
X149153571Y-102721004D01*
X149222300Y-102446816D01*
X149236217Y-102164488D01*
X149194787Y-101884870D01*
X149099603Y-101618708D01*
X149032671Y-101493486D01*
X148788702Y-101421903D01*
X147975605Y-102235000D01*
X147616395Y-102235000D01*
X147602253Y-102220858D01*
X147781858Y-102041253D01*
X147796000Y-102055395D01*
X148609097Y-101242298D01*
X148537514Y-100998329D01*
X148282004Y-100877429D01*
X148007816Y-100808700D01*
X147725488Y-100794783D01*
X147445870Y-100836213D01*
X147179708Y-100931397D01*
X147057691Y-100996616D01*
X147047185Y-100983815D01*
X146950494Y-100904463D01*
X146840180Y-100845498D01*
X146720482Y-100809188D01*
X146596000Y-100796928D01*
X144996000Y-100796928D01*
X144871518Y-100809188D01*
X144751820Y-100845498D01*
X144641506Y-100904463D01*
X144544815Y-100983815D01*
X144465463Y-101080506D01*
X144406498Y-101190820D01*
X144370188Y-101310518D01*
X144357928Y-101435000D01*
X143118340Y-101435000D01*
X143073702Y-101421903D01*
X142260605Y-102235000D01*
X141901395Y-102235000D01*
X141887253Y-102220858D01*
X142066858Y-102041253D01*
X142081000Y-102055395D01*
X142894097Y-101242298D01*
X142822514Y-100998329D01*
X142567004Y-100877429D01*
X142292816Y-100808700D01*
X142010488Y-100794783D01*
X141730870Y-100836213D01*
X141464708Y-100931397D01*
X141342691Y-100996616D01*
X141332185Y-100983815D01*
X141235494Y-100904463D01*
X141125180Y-100845498D01*
X141005482Y-100809188D01*
X140881000Y-100796928D01*
X139281000Y-100796928D01*
X139156518Y-100809188D01*
X139036820Y-100845498D01*
X138926506Y-100904463D01*
X138829815Y-100983815D01*
X138750463Y-101080506D01*
X138691498Y-101190820D01*
X138655188Y-101310518D01*
X138642928Y-101435000D01*
X129660000Y-101435000D01*
X129660000Y-95720000D01*
X138642928Y-95720000D01*
X138642928Y-97320000D01*
X138655188Y-97444482D01*
X138691498Y-97564180D01*
X138750463Y-97674494D01*
X138829815Y-97771185D01*
X138926506Y-97850537D01*
X139036820Y-97909502D01*
X139156518Y-97945812D01*
X139281000Y-97958072D01*
X140881000Y-97958072D01*
X141005482Y-97945812D01*
X141125180Y-97909502D01*
X141235494Y-97850537D01*
X141332185Y-97771185D01*
X141342807Y-97758242D01*
X141594996Y-97877571D01*
X141869184Y-97946300D01*
X142151512Y-97960217D01*
X142431130Y-97918787D01*
X142697292Y-97823603D01*
X142822514Y-97756671D01*
X142894097Y-97512702D01*
X142081000Y-96699605D01*
X142066858Y-96713748D01*
X141887253Y-96534143D01*
X141901395Y-96520000D01*
X142260605Y-96520000D01*
X143073702Y-97333097D01*
X143317671Y-97261514D01*
X143438571Y-97006004D01*
X143507300Y-96731816D01*
X143521217Y-96449488D01*
X143479787Y-96169870D01*
X143384603Y-95903708D01*
X143317671Y-95778486D01*
X143073702Y-95706903D01*
X142260605Y-96520000D01*
X141901395Y-96520000D01*
X141887253Y-96505858D01*
X142066858Y-96326253D01*
X142081000Y-96340395D01*
X142894097Y-95527298D01*
X142822514Y-95283329D01*
X142567004Y-95162429D01*
X142292816Y-95093700D01*
X142116323Y-95085000D01*
X144738928Y-95085000D01*
X144738928Y-96685000D01*
X144751188Y-96809482D01*
X144787498Y-96929180D01*
X144846463Y-97039494D01*
X144925815Y-97136185D01*
X145022506Y-97215537D01*
X145132820Y-97274502D01*
X145252518Y-97310812D01*
X145377000Y-97323072D01*
X146977000Y-97323072D01*
X147101482Y-97310812D01*
X147221180Y-97274502D01*
X147331494Y-97215537D01*
X147428185Y-97136185D01*
X147507537Y-97039494D01*
X147566502Y-96929180D01*
X147582117Y-96877702D01*
X147863903Y-96877702D01*
X147935486Y-97121671D01*
X148190996Y-97242571D01*
X148465184Y-97311300D01*
X148747512Y-97325217D01*
X149027130Y-97283787D01*
X149293292Y-97188603D01*
X149418514Y-97121671D01*
X149490097Y-96877702D01*
X148677000Y-96064605D01*
X147863903Y-96877702D01*
X147582117Y-96877702D01*
X147602812Y-96809482D01*
X147615072Y-96685000D01*
X147615072Y-96677785D01*
X147684298Y-96698097D01*
X148497395Y-95885000D01*
X148856605Y-95885000D01*
X149669702Y-96698097D01*
X149913671Y-96626514D01*
X150034571Y-96371004D01*
X150103300Y-96096816D01*
X150117217Y-95814488D01*
X150075787Y-95534870D01*
X149980603Y-95268708D01*
X149913671Y-95143486D01*
X149669702Y-95071903D01*
X148856605Y-95885000D01*
X148497395Y-95885000D01*
X147684298Y-95071903D01*
X147615072Y-95092215D01*
X147615072Y-95085000D01*
X147602812Y-94960518D01*
X147582118Y-94892298D01*
X147863903Y-94892298D01*
X148677000Y-95705395D01*
X149490097Y-94892298D01*
X149418514Y-94648329D01*
X149163004Y-94527429D01*
X148888816Y-94458700D01*
X148606488Y-94444783D01*
X148326870Y-94486213D01*
X148060708Y-94581397D01*
X147935486Y-94648329D01*
X147863903Y-94892298D01*
X147582118Y-94892298D01*
X147566502Y-94840820D01*
X147507537Y-94730506D01*
X147428185Y-94633815D01*
X147331494Y-94554463D01*
X147221180Y-94495498D01*
X147101482Y-94459188D01*
X146977000Y-94446928D01*
X145377000Y-94446928D01*
X145252518Y-94459188D01*
X145132820Y-94495498D01*
X145022506Y-94554463D01*
X144925815Y-94633815D01*
X144846463Y-94730506D01*
X144787498Y-94840820D01*
X144751188Y-94960518D01*
X144738928Y-95085000D01*
X142116323Y-95085000D01*
X142010488Y-95079783D01*
X141730870Y-95121213D01*
X141464708Y-95216397D01*
X141342691Y-95281616D01*
X141332185Y-95268815D01*
X141235494Y-95189463D01*
X141125180Y-95130498D01*
X141005482Y-95094188D01*
X140881000Y-95081928D01*
X139281000Y-95081928D01*
X139156518Y-95094188D01*
X139036820Y-95130498D01*
X138926506Y-95189463D01*
X138829815Y-95268815D01*
X138750463Y-95365506D01*
X138691498Y-95475820D01*
X138655188Y-95595518D01*
X138642928Y-95720000D01*
X129660000Y-95720000D01*
X129660000Y-91916890D01*
X130768524Y-91916890D01*
X130813175Y-92064099D01*
X130938359Y-92326920D01*
X131112412Y-92560269D01*
X131328645Y-92755178D01*
X131578748Y-92904157D01*
X131853109Y-93001481D01*
X132083000Y-92880814D01*
X132083000Y-91687000D01*
X132337000Y-91687000D01*
X132337000Y-92880814D01*
X132566891Y-93001481D01*
X132841252Y-92904157D01*
X133091355Y-92755178D01*
X133307588Y-92560269D01*
X133481641Y-92326920D01*
X133606825Y-92064099D01*
X133651476Y-91916890D01*
X133590708Y-91801740D01*
X134913000Y-91801740D01*
X134913000Y-92094260D01*
X134970068Y-92381158D01*
X135082010Y-92651411D01*
X135244525Y-92894632D01*
X135451368Y-93101475D01*
X135694589Y-93263990D01*
X135964842Y-93375932D01*
X136251740Y-93433000D01*
X136544260Y-93433000D01*
X136831158Y-93375932D01*
X137101411Y-93263990D01*
X137344632Y-93101475D01*
X137476487Y-92969620D01*
X137498498Y-93042180D01*
X137557463Y-93152494D01*
X137636815Y-93249185D01*
X137733506Y-93328537D01*
X137843820Y-93387502D01*
X137963518Y-93423812D01*
X138088000Y-93436072D01*
X139788000Y-93436072D01*
X139912482Y-93423812D01*
X140032180Y-93387502D01*
X140142494Y-93328537D01*
X140239185Y-93249185D01*
X140318537Y-93152494D01*
X140377502Y-93042180D01*
X140413812Y-92922482D01*
X140426072Y-92798000D01*
X140426072Y-92260000D01*
X151621928Y-92260000D01*
X151621928Y-93960000D01*
X151634188Y-94084482D01*
X151670498Y-94204180D01*
X151729463Y-94314494D01*
X151808815Y-94411185D01*
X151905506Y-94490537D01*
X152015820Y-94549502D01*
X152088380Y-94571513D01*
X151956525Y-94703368D01*
X151794010Y-94946589D01*
X151682068Y-95216842D01*
X151625000Y-95503740D01*
X151625000Y-95796260D01*
X151682068Y-96083158D01*
X151794010Y-96353411D01*
X151956525Y-96596632D01*
X152163368Y-96803475D01*
X152337760Y-96920000D01*
X152163368Y-97036525D01*
X151956525Y-97243368D01*
X151794010Y-97486589D01*
X151682068Y-97756842D01*
X151625000Y-98043740D01*
X151625000Y-98336260D01*
X151682068Y-98623158D01*
X151794010Y-98893411D01*
X151956525Y-99136632D01*
X152163368Y-99343475D01*
X152406589Y-99505990D01*
X152676842Y-99617932D01*
X152963740Y-99675000D01*
X153256260Y-99675000D01*
X153543158Y-99617932D01*
X153813411Y-99505990D01*
X154056632Y-99343475D01*
X154263475Y-99136632D01*
X154425990Y-98893411D01*
X154537932Y-98623158D01*
X154595000Y-98336260D01*
X154595000Y-98043740D01*
X154537932Y-97756842D01*
X154425990Y-97486589D01*
X154263475Y-97243368D01*
X154056632Y-97036525D01*
X153882240Y-96920000D01*
X154056632Y-96803475D01*
X154263475Y-96596632D01*
X154425990Y-96353411D01*
X154537932Y-96083158D01*
X154595000Y-95796260D01*
X154595000Y-95503740D01*
X154537932Y-95216842D01*
X154425990Y-94946589D01*
X154263475Y-94703368D01*
X154131620Y-94571513D01*
X154204180Y-94549502D01*
X154314494Y-94490537D01*
X154411185Y-94411185D01*
X154490537Y-94314494D01*
X154549502Y-94204180D01*
X154585812Y-94084482D01*
X154598072Y-93960000D01*
X154598072Y-92260000D01*
X154585812Y-92135518D01*
X154549502Y-92015820D01*
X154490537Y-91905506D01*
X154411185Y-91808815D01*
X154314494Y-91729463D01*
X154204180Y-91670498D01*
X154084482Y-91634188D01*
X153960000Y-91621928D01*
X152260000Y-91621928D01*
X152135518Y-91634188D01*
X152015820Y-91670498D01*
X151905506Y-91729463D01*
X151808815Y-91808815D01*
X151729463Y-91905506D01*
X151670498Y-92015820D01*
X151634188Y-92135518D01*
X151621928Y-92260000D01*
X140426072Y-92260000D01*
X140426072Y-91098000D01*
X140413812Y-90973518D01*
X140377502Y-90853820D01*
X140318537Y-90743506D01*
X140239185Y-90646815D01*
X140142494Y-90567463D01*
X140032180Y-90508498D01*
X139912482Y-90472188D01*
X139788000Y-90459928D01*
X138088000Y-90459928D01*
X137963518Y-90472188D01*
X137843820Y-90508498D01*
X137733506Y-90567463D01*
X137636815Y-90646815D01*
X137557463Y-90743506D01*
X137498498Y-90853820D01*
X137476487Y-90926380D01*
X137344632Y-90794525D01*
X137101411Y-90632010D01*
X136831158Y-90520068D01*
X136544260Y-90463000D01*
X136251740Y-90463000D01*
X135964842Y-90520068D01*
X135694589Y-90632010D01*
X135451368Y-90794525D01*
X135244525Y-91001368D01*
X135082010Y-91244589D01*
X134970068Y-91514842D01*
X134913000Y-91801740D01*
X133590708Y-91801740D01*
X133530155Y-91687000D01*
X132337000Y-91687000D01*
X132083000Y-91687000D01*
X130889845Y-91687000D01*
X130768524Y-91916890D01*
X129660000Y-91916890D01*
X129660000Y-80550000D01*
X130721928Y-80550000D01*
X130721928Y-82250000D01*
X130734188Y-82374482D01*
X130770498Y-82494180D01*
X130829463Y-82604494D01*
X130908815Y-82701185D01*
X131005506Y-82780537D01*
X131115820Y-82839502D01*
X131188380Y-82861513D01*
X131056525Y-82993368D01*
X130894010Y-83236589D01*
X130782068Y-83506842D01*
X130725000Y-83793740D01*
X130725000Y-84086260D01*
X130782068Y-84373158D01*
X130894010Y-84643411D01*
X131056525Y-84886632D01*
X131263368Y-85093475D01*
X131437760Y-85210000D01*
X131263368Y-85326525D01*
X131056525Y-85533368D01*
X130894010Y-85776589D01*
X130782068Y-86046842D01*
X130725000Y-86333740D01*
X130725000Y-86626260D01*
X130782068Y-86913158D01*
X130894010Y-87183411D01*
X131056525Y-87426632D01*
X131263368Y-87633475D01*
X131437760Y-87750000D01*
X131263368Y-87866525D01*
X131056525Y-88073368D01*
X130894010Y-88316589D01*
X130782068Y-88586842D01*
X130725000Y-88873740D01*
X130725000Y-89166260D01*
X130782068Y-89453158D01*
X130894010Y-89723411D01*
X131056525Y-89966632D01*
X131263368Y-90173475D01*
X131445534Y-90295195D01*
X131328645Y-90364822D01*
X131112412Y-90559731D01*
X130938359Y-90793080D01*
X130813175Y-91055901D01*
X130768524Y-91203110D01*
X130889845Y-91433000D01*
X132083000Y-91433000D01*
X132083000Y-91413000D01*
X132337000Y-91413000D01*
X132337000Y-91433000D01*
X133530155Y-91433000D01*
X133651476Y-91203110D01*
X133606825Y-91055901D01*
X133481641Y-90793080D01*
X133307588Y-90559731D01*
X133091355Y-90364822D01*
X132974466Y-90295195D01*
X133156632Y-90173475D01*
X133363475Y-89966632D01*
X133525990Y-89723411D01*
X133637932Y-89453158D01*
X133695000Y-89166260D01*
X133695000Y-88873740D01*
X133637932Y-88586842D01*
X133525990Y-88316589D01*
X133363475Y-88073368D01*
X133156632Y-87866525D01*
X132982240Y-87750000D01*
X133156632Y-87633475D01*
X133363475Y-87426632D01*
X133525990Y-87183411D01*
X133637932Y-86913158D01*
X133695000Y-86626260D01*
X133695000Y-86333740D01*
X133637932Y-86046842D01*
X133525990Y-85776589D01*
X133363475Y-85533368D01*
X133156632Y-85326525D01*
X132982240Y-85210000D01*
X133156632Y-85093475D01*
X133363475Y-84886632D01*
X133525990Y-84643411D01*
X133527402Y-84640000D01*
X161781928Y-84640000D01*
X161781928Y-86340000D01*
X161794188Y-86464482D01*
X161830498Y-86584180D01*
X161889463Y-86694494D01*
X161968815Y-86791185D01*
X162065506Y-86870537D01*
X162175820Y-86929502D01*
X162295518Y-86965812D01*
X162420000Y-86978072D01*
X164120000Y-86978072D01*
X164244482Y-86965812D01*
X164364180Y-86929502D01*
X164474494Y-86870537D01*
X164571185Y-86791185D01*
X164650537Y-86694494D01*
X164709502Y-86584180D01*
X164731513Y-86511620D01*
X164863368Y-86643475D01*
X165106589Y-86805990D01*
X165376842Y-86917932D01*
X165663740Y-86975000D01*
X165956260Y-86975000D01*
X166243158Y-86917932D01*
X166513411Y-86805990D01*
X166756632Y-86643475D01*
X166888487Y-86511620D01*
X166910498Y-86584180D01*
X166969463Y-86694494D01*
X167048815Y-86791185D01*
X167145506Y-86870537D01*
X167255820Y-86929502D01*
X167375518Y-86965812D01*
X167500000Y-86978072D01*
X169200000Y-86978072D01*
X169324482Y-86965812D01*
X169444180Y-86929502D01*
X169554494Y-86870537D01*
X169651185Y-86791185D01*
X169730537Y-86694494D01*
X169789502Y-86584180D01*
X169825812Y-86464482D01*
X169838072Y-86340000D01*
X169838072Y-84640000D01*
X169825812Y-84515518D01*
X169789502Y-84395820D01*
X169730537Y-84285506D01*
X169651185Y-84188815D01*
X169554494Y-84109463D01*
X169444180Y-84050498D01*
X169324482Y-84014188D01*
X169200000Y-84001928D01*
X167500000Y-84001928D01*
X167375518Y-84014188D01*
X167255820Y-84050498D01*
X167145506Y-84109463D01*
X167048815Y-84188815D01*
X166969463Y-84285506D01*
X166910498Y-84395820D01*
X166888487Y-84468380D01*
X166756632Y-84336525D01*
X166513411Y-84174010D01*
X166243158Y-84062068D01*
X165956260Y-84005000D01*
X165663740Y-84005000D01*
X165376842Y-84062068D01*
X165106589Y-84174010D01*
X164863368Y-84336525D01*
X164731513Y-84468380D01*
X164709502Y-84395820D01*
X164650537Y-84285506D01*
X164571185Y-84188815D01*
X164474494Y-84109463D01*
X164364180Y-84050498D01*
X164244482Y-84014188D01*
X164120000Y-84001928D01*
X162420000Y-84001928D01*
X162295518Y-84014188D01*
X162175820Y-84050498D01*
X162065506Y-84109463D01*
X161968815Y-84188815D01*
X161889463Y-84285506D01*
X161830498Y-84395820D01*
X161794188Y-84515518D01*
X161781928Y-84640000D01*
X133527402Y-84640000D01*
X133637932Y-84373158D01*
X133695000Y-84086260D01*
X133695000Y-83793740D01*
X133637932Y-83506842D01*
X133525990Y-83236589D01*
X133363475Y-82993368D01*
X133231620Y-82861513D01*
X133304180Y-82839502D01*
X133414494Y-82780537D01*
X133511185Y-82701185D01*
X133590537Y-82604494D01*
X133649502Y-82494180D01*
X133685812Y-82374482D01*
X133698072Y-82250000D01*
X133698072Y-80550000D01*
X133685812Y-80425518D01*
X133649502Y-80305820D01*
X133590537Y-80195506D01*
X133511185Y-80098815D01*
X133414494Y-80019463D01*
X133304180Y-79960498D01*
X133184482Y-79924188D01*
X133060000Y-79911928D01*
X131360000Y-79911928D01*
X131235518Y-79924188D01*
X131115820Y-79960498D01*
X131005506Y-80019463D01*
X130908815Y-80098815D01*
X130829463Y-80195506D01*
X130770498Y-80305820D01*
X130734188Y-80425518D01*
X130721928Y-80550000D01*
X129660000Y-80550000D01*
X129660000Y-79488470D01*
X137414020Y-79488470D01*
X137414020Y-79663588D01*
X137448184Y-79835341D01*
X137515199Y-79997128D01*
X137543020Y-80038765D01*
X137543020Y-80226698D01*
X137539344Y-80264020D01*
X137543020Y-80301342D01*
X137543020Y-80301353D01*
X137554017Y-80413006D01*
X137571500Y-80470639D01*
X137597474Y-80556266D01*
X137668046Y-80688296D01*
X137739221Y-80775022D01*
X137763020Y-80804021D01*
X137792018Y-80827819D01*
X139724394Y-82760196D01*
X139734164Y-82809312D01*
X139801179Y-82971099D01*
X139898469Y-83116704D01*
X140022296Y-83240531D01*
X140167901Y-83337821D01*
X140329688Y-83404836D01*
X140501441Y-83439000D01*
X140676559Y-83439000D01*
X140848312Y-83404836D01*
X141010099Y-83337821D01*
X141155704Y-83240531D01*
X141279531Y-83116704D01*
X141376821Y-82971099D01*
X141443836Y-82809312D01*
X141478000Y-82637559D01*
X141478000Y-82462441D01*
X141443836Y-82290688D01*
X141376821Y-82128901D01*
X141279531Y-81983296D01*
X141155704Y-81859469D01*
X141010099Y-81762179D01*
X140848312Y-81695164D01*
X140799196Y-81685394D01*
X139096725Y-79982924D01*
X139121777Y-79922441D01*
X157861000Y-79922441D01*
X157861000Y-80097559D01*
X157895164Y-80269312D01*
X157962179Y-80431099D01*
X158059469Y-80576704D01*
X158183296Y-80700531D01*
X158328901Y-80797821D01*
X158490688Y-80864836D01*
X158662441Y-80899000D01*
X158837559Y-80899000D01*
X159009312Y-80864836D01*
X159171099Y-80797821D01*
X159302319Y-80710143D01*
X160534686Y-80710143D01*
X160649358Y-80786764D01*
X160811145Y-80853779D01*
X160982898Y-80887943D01*
X161158016Y-80887943D01*
X161329769Y-80853779D01*
X161491556Y-80786764D01*
X161637161Y-80689474D01*
X161760988Y-80565647D01*
X161858278Y-80420042D01*
X161925293Y-80258255D01*
X161959457Y-80086502D01*
X161959457Y-79911384D01*
X161925293Y-79739631D01*
X161858278Y-79577844D01*
X161760988Y-79432239D01*
X161637161Y-79308412D01*
X161491556Y-79211122D01*
X161329769Y-79144107D01*
X161158016Y-79109943D01*
X160982898Y-79109943D01*
X160811145Y-79144107D01*
X160649358Y-79211122D01*
X160534686Y-79287743D01*
X159269223Y-79287743D01*
X159171099Y-79222179D01*
X159009312Y-79155164D01*
X158837559Y-79121000D01*
X158662441Y-79121000D01*
X158490688Y-79155164D01*
X158328901Y-79222179D01*
X158183296Y-79319469D01*
X158059469Y-79443296D01*
X157962179Y-79588901D01*
X157895164Y-79750688D01*
X157861000Y-79922441D01*
X139121777Y-79922441D01*
X139157856Y-79835341D01*
X139192020Y-79663588D01*
X139192020Y-79488470D01*
X139157856Y-79316717D01*
X139090841Y-79154930D01*
X138993551Y-79009325D01*
X138869724Y-78885498D01*
X138724119Y-78788208D01*
X138562332Y-78721193D01*
X138390579Y-78687029D01*
X138215461Y-78687029D01*
X138043708Y-78721193D01*
X137881921Y-78788208D01*
X137736316Y-78885498D01*
X137612489Y-79009325D01*
X137515199Y-79154930D01*
X137448184Y-79316717D01*
X137414020Y-79488470D01*
X129660000Y-79488470D01*
X129660000Y-69120000D01*
X130721928Y-69120000D01*
X130721928Y-70820000D01*
X130734188Y-70944482D01*
X130770498Y-71064180D01*
X130829463Y-71174494D01*
X130908815Y-71271185D01*
X131005506Y-71350537D01*
X131115820Y-71409502D01*
X131188380Y-71431513D01*
X131056525Y-71563368D01*
X130894010Y-71806589D01*
X130782068Y-72076842D01*
X130725000Y-72363740D01*
X130725000Y-72656260D01*
X130782068Y-72943158D01*
X130894010Y-73213411D01*
X131056525Y-73456632D01*
X131263368Y-73663475D01*
X131437760Y-73780000D01*
X131263368Y-73896525D01*
X131056525Y-74103368D01*
X130894010Y-74346589D01*
X130782068Y-74616842D01*
X130725000Y-74903740D01*
X130725000Y-75196260D01*
X130782068Y-75483158D01*
X130894010Y-75753411D01*
X131056525Y-75996632D01*
X131263368Y-76203475D01*
X131437760Y-76320000D01*
X131263368Y-76436525D01*
X131056525Y-76643368D01*
X130894010Y-76886589D01*
X130782068Y-77156842D01*
X130725000Y-77443740D01*
X130725000Y-77736260D01*
X130782068Y-78023158D01*
X130894010Y-78293411D01*
X131056525Y-78536632D01*
X131263368Y-78743475D01*
X131506589Y-78905990D01*
X131776842Y-79017932D01*
X132063740Y-79075000D01*
X132356260Y-79075000D01*
X132643158Y-79017932D01*
X132913411Y-78905990D01*
X133156632Y-78743475D01*
X133363475Y-78536632D01*
X133525990Y-78293411D01*
X133637932Y-78023158D01*
X133695000Y-77736260D01*
X133695000Y-77443740D01*
X133637932Y-77156842D01*
X133525990Y-76886589D01*
X133363475Y-76643368D01*
X133156632Y-76436525D01*
X132982240Y-76320000D01*
X133156632Y-76203475D01*
X133363475Y-75996632D01*
X133525990Y-75753411D01*
X133637932Y-75483158D01*
X133695000Y-75196260D01*
X133695000Y-74903740D01*
X133637932Y-74616842D01*
X133525990Y-74346589D01*
X133363475Y-74103368D01*
X133156632Y-73896525D01*
X132982240Y-73780000D01*
X133156632Y-73663475D01*
X133363475Y-73456632D01*
X133525990Y-73213411D01*
X133637932Y-72943158D01*
X133695000Y-72656260D01*
X133695000Y-72363740D01*
X133637932Y-72076842D01*
X133525990Y-71806589D01*
X133363475Y-71563368D01*
X133231620Y-71431513D01*
X133304180Y-71409502D01*
X133414494Y-71350537D01*
X133511185Y-71271185D01*
X133590537Y-71174494D01*
X133649502Y-71064180D01*
X133685812Y-70944482D01*
X133698072Y-70820000D01*
X133698072Y-69120000D01*
X133685812Y-68995518D01*
X133649502Y-68875820D01*
X133590537Y-68765506D01*
X133511185Y-68668815D01*
X133414494Y-68589463D01*
X133304180Y-68530498D01*
X133184482Y-68494188D01*
X133060000Y-68481928D01*
X131360000Y-68481928D01*
X131235518Y-68494188D01*
X131115820Y-68530498D01*
X131005506Y-68589463D01*
X130908815Y-68668815D01*
X130829463Y-68765506D01*
X130770498Y-68875820D01*
X130734188Y-68995518D01*
X130721928Y-69120000D01*
X129660000Y-69120000D01*
X129660000Y-67984441D01*
X155067000Y-67984441D01*
X155067000Y-68159559D01*
X155101164Y-68331312D01*
X155168179Y-68493099D01*
X155265469Y-68638704D01*
X155270265Y-68643500D01*
X155265469Y-68648296D01*
X155168179Y-68793901D01*
X155101164Y-68955688D01*
X155067000Y-69127441D01*
X155067000Y-69302559D01*
X155101164Y-69474312D01*
X155168179Y-69636099D01*
X155260027Y-69773559D01*
X155255091Y-69789831D01*
X155253127Y-69809766D01*
X155168179Y-69936901D01*
X155101164Y-70098688D01*
X155067000Y-70270441D01*
X155067000Y-70445559D01*
X155101164Y-70617312D01*
X155168179Y-70779099D01*
X155226244Y-70866000D01*
X155168179Y-70952901D01*
X155101164Y-71114688D01*
X155067000Y-71286441D01*
X155067000Y-71461559D01*
X155101164Y-71633312D01*
X155168179Y-71795099D01*
X155265469Y-71940704D01*
X155270265Y-71945500D01*
X155265469Y-71950296D01*
X155168179Y-72095901D01*
X155101164Y-72257688D01*
X155067000Y-72429441D01*
X155067000Y-72604559D01*
X155101164Y-72776312D01*
X155168179Y-72938099D01*
X155265469Y-73083704D01*
X155270265Y-73088500D01*
X155265469Y-73093296D01*
X155168179Y-73238901D01*
X155101164Y-73400688D01*
X155067000Y-73572441D01*
X155067000Y-73747559D01*
X155101164Y-73919312D01*
X155168179Y-74081099D01*
X155226244Y-74168000D01*
X155168179Y-74254901D01*
X155101164Y-74416688D01*
X155067000Y-74588441D01*
X155067000Y-74763559D01*
X155101164Y-74935312D01*
X155168179Y-75097099D01*
X155265469Y-75242704D01*
X155270265Y-75247500D01*
X155265469Y-75252296D01*
X155168179Y-75397901D01*
X155101164Y-75559688D01*
X155067000Y-75731441D01*
X155067000Y-75906559D01*
X155101164Y-76078312D01*
X155168179Y-76240099D01*
X155265469Y-76385704D01*
X155389296Y-76509531D01*
X155534901Y-76606821D01*
X155696688Y-76673836D01*
X155868441Y-76708000D01*
X156043559Y-76708000D01*
X156215312Y-76673836D01*
X156377099Y-76606821D01*
X156522704Y-76509531D01*
X156646531Y-76385704D01*
X156743821Y-76240099D01*
X156810836Y-76078312D01*
X156821997Y-76022200D01*
X161848800Y-76022200D01*
X161848801Y-79213064D01*
X161845360Y-79248000D01*
X161848801Y-79282936D01*
X161859092Y-79387420D01*
X161871112Y-79427043D01*
X161899759Y-79521481D01*
X161965798Y-79645032D01*
X162011091Y-79700221D01*
X162054674Y-79753327D01*
X162081809Y-79775596D01*
X162186258Y-79880045D01*
X162213164Y-80015312D01*
X162280179Y-80177099D01*
X162377469Y-80322704D01*
X162501296Y-80446531D01*
X162646901Y-80543821D01*
X162808688Y-80610836D01*
X162980441Y-80645000D01*
X163155559Y-80645000D01*
X163327312Y-80610836D01*
X163489099Y-80543821D01*
X163634704Y-80446531D01*
X163758531Y-80322704D01*
X163855821Y-80177099D01*
X163922836Y-80015312D01*
X163957000Y-79843559D01*
X163957000Y-79668441D01*
X163922836Y-79496688D01*
X163855821Y-79334901D01*
X163758531Y-79189296D01*
X163634704Y-79065469D01*
X163489099Y-78968179D01*
X163327312Y-78901164D01*
X163271200Y-78890003D01*
X163271200Y-78081997D01*
X163327312Y-78070836D01*
X163489099Y-78003821D01*
X163634704Y-77906531D01*
X163758531Y-77782704D01*
X163855821Y-77637099D01*
X163922836Y-77475312D01*
X163957000Y-77303559D01*
X163957000Y-77128441D01*
X163922836Y-76956688D01*
X163855821Y-76794901D01*
X163779200Y-76680229D01*
X163779200Y-75549859D01*
X163782640Y-75514933D01*
X163779200Y-75480007D01*
X163779200Y-75479998D01*
X163768909Y-75375514D01*
X163735583Y-75265652D01*
X163758531Y-75242704D01*
X163855821Y-75097099D01*
X163922836Y-74935312D01*
X163957000Y-74763559D01*
X163957000Y-74588441D01*
X163922836Y-74416688D01*
X163855821Y-74254901D01*
X163758531Y-74109296D01*
X163735583Y-74086348D01*
X163768909Y-73976486D01*
X163779200Y-73872002D01*
X163779200Y-73871992D01*
X163782640Y-73837066D01*
X163779200Y-73802140D01*
X163779200Y-72671771D01*
X163855821Y-72557099D01*
X163922836Y-72395312D01*
X163957000Y-72223559D01*
X163957000Y-72048441D01*
X163922836Y-71876688D01*
X163855821Y-71714901D01*
X163758531Y-71569296D01*
X163634704Y-71445469D01*
X163489099Y-71348179D01*
X163327312Y-71281164D01*
X163296599Y-71275055D01*
X163296599Y-70456945D01*
X163327312Y-70450836D01*
X163489099Y-70383821D01*
X163634704Y-70286531D01*
X163758531Y-70162704D01*
X163855821Y-70017099D01*
X163922836Y-69855312D01*
X163957000Y-69683559D01*
X163957000Y-69508441D01*
X163922836Y-69336688D01*
X163855821Y-69174901D01*
X163758531Y-69029296D01*
X163634704Y-68905469D01*
X163489099Y-68808179D01*
X163338988Y-68746000D01*
X167627928Y-68746000D01*
X167627928Y-70446000D01*
X167640188Y-70570482D01*
X167676498Y-70690180D01*
X167735463Y-70800494D01*
X167814815Y-70897185D01*
X167911506Y-70976537D01*
X168021820Y-71035502D01*
X168094380Y-71057513D01*
X167962525Y-71189368D01*
X167800010Y-71432589D01*
X167688068Y-71702842D01*
X167631000Y-71989740D01*
X167631000Y-72282260D01*
X167688068Y-72569158D01*
X167800010Y-72839411D01*
X167962525Y-73082632D01*
X168169368Y-73289475D01*
X168343760Y-73406000D01*
X168169368Y-73522525D01*
X167962525Y-73729368D01*
X167800010Y-73972589D01*
X167688068Y-74242842D01*
X167631000Y-74529740D01*
X167631000Y-74822260D01*
X167688068Y-75109158D01*
X167800010Y-75379411D01*
X167962525Y-75622632D01*
X168169368Y-75829475D01*
X168343760Y-75946000D01*
X168169368Y-76062525D01*
X167962525Y-76269368D01*
X167800010Y-76512589D01*
X167688068Y-76782842D01*
X167631000Y-77069740D01*
X167631000Y-77362260D01*
X167688068Y-77649158D01*
X167800010Y-77919411D01*
X167962525Y-78162632D01*
X168169368Y-78369475D01*
X168343760Y-78486000D01*
X168169368Y-78602525D01*
X167962525Y-78809368D01*
X167800010Y-79052589D01*
X167688068Y-79322842D01*
X167631000Y-79609740D01*
X167631000Y-79902260D01*
X167688068Y-80189158D01*
X167800010Y-80459411D01*
X167962525Y-80702632D01*
X168169368Y-80909475D01*
X168343760Y-81026000D01*
X168169368Y-81142525D01*
X167962525Y-81349368D01*
X167800010Y-81592589D01*
X167688068Y-81862842D01*
X167631000Y-82149740D01*
X167631000Y-82442260D01*
X167688068Y-82729158D01*
X167800010Y-82999411D01*
X167962525Y-83242632D01*
X168169368Y-83449475D01*
X168412589Y-83611990D01*
X168682842Y-83723932D01*
X168969740Y-83781000D01*
X169262260Y-83781000D01*
X169549158Y-83723932D01*
X169819411Y-83611990D01*
X170062632Y-83449475D01*
X170269475Y-83242632D01*
X170431990Y-82999411D01*
X170543932Y-82729158D01*
X170601000Y-82442260D01*
X170601000Y-82149740D01*
X170543932Y-81862842D01*
X170431990Y-81592589D01*
X170269475Y-81349368D01*
X170062632Y-81142525D01*
X169888240Y-81026000D01*
X170062632Y-80909475D01*
X170269475Y-80702632D01*
X170431990Y-80459411D01*
X170543932Y-80189158D01*
X170601000Y-79902260D01*
X170601000Y-79609740D01*
X170543932Y-79322842D01*
X170431990Y-79052589D01*
X170269475Y-78809368D01*
X170062632Y-78602525D01*
X169888240Y-78486000D01*
X170062632Y-78369475D01*
X170269475Y-78162632D01*
X170431990Y-77919411D01*
X170543932Y-77649158D01*
X170601000Y-77362260D01*
X170601000Y-77069740D01*
X170543932Y-76782842D01*
X170431990Y-76512589D01*
X170269475Y-76269368D01*
X170062632Y-76062525D01*
X169888240Y-75946000D01*
X170062632Y-75829475D01*
X170269475Y-75622632D01*
X170431990Y-75379411D01*
X170543932Y-75109158D01*
X170601000Y-74822260D01*
X170601000Y-74529740D01*
X170543932Y-74242842D01*
X170431990Y-73972589D01*
X170269475Y-73729368D01*
X170062632Y-73522525D01*
X169888240Y-73406000D01*
X170062632Y-73289475D01*
X170269475Y-73082632D01*
X170431990Y-72839411D01*
X170543932Y-72569158D01*
X170601000Y-72282260D01*
X170601000Y-71989740D01*
X170543932Y-71702842D01*
X170431990Y-71432589D01*
X170269475Y-71189368D01*
X170137620Y-71057513D01*
X170210180Y-71035502D01*
X170320494Y-70976537D01*
X170417185Y-70897185D01*
X170496537Y-70800494D01*
X170555502Y-70690180D01*
X170591812Y-70570482D01*
X170604072Y-70446000D01*
X170604072Y-68746000D01*
X170591812Y-68621518D01*
X170555502Y-68501820D01*
X170496537Y-68391506D01*
X170417185Y-68294815D01*
X170320494Y-68215463D01*
X170210180Y-68156498D01*
X170090482Y-68120188D01*
X169966000Y-68107928D01*
X168266000Y-68107928D01*
X168141518Y-68120188D01*
X168021820Y-68156498D01*
X167911506Y-68215463D01*
X167814815Y-68294815D01*
X167735463Y-68391506D01*
X167676498Y-68501820D01*
X167640188Y-68621518D01*
X167627928Y-68746000D01*
X163338988Y-68746000D01*
X163327312Y-68741164D01*
X163155559Y-68707000D01*
X162980441Y-68707000D01*
X162808688Y-68741164D01*
X162646901Y-68808179D01*
X162501296Y-68905469D01*
X162377469Y-69029296D01*
X162280179Y-69174901D01*
X162213164Y-69336688D01*
X162186258Y-69471955D01*
X162107209Y-69551004D01*
X162080072Y-69573275D01*
X161991197Y-69681569D01*
X161925157Y-69805121D01*
X161884490Y-69939182D01*
X161874199Y-70043666D01*
X161874199Y-70043675D01*
X161870759Y-70078601D01*
X161874199Y-70113527D01*
X161874200Y-73355180D01*
X158942969Y-73355180D01*
X156837742Y-71249955D01*
X156810836Y-71114688D01*
X156743821Y-70952901D01*
X156685756Y-70866000D01*
X156743821Y-70779099D01*
X156810836Y-70617312D01*
X156845000Y-70445559D01*
X156845000Y-70270441D01*
X156837157Y-70231010D01*
X157876330Y-70231010D01*
X157911256Y-70234450D01*
X157946182Y-70231010D01*
X157946192Y-70231010D01*
X158050676Y-70220719D01*
X158184737Y-70180052D01*
X158308289Y-70114012D01*
X158416583Y-70025137D01*
X158438858Y-69997995D01*
X161554088Y-66882767D01*
X161572068Y-66973158D01*
X161684010Y-67243411D01*
X161846525Y-67486632D01*
X162053368Y-67693475D01*
X162296589Y-67855990D01*
X162566842Y-67967932D01*
X162853740Y-68025000D01*
X163146260Y-68025000D01*
X163433158Y-67967932D01*
X163703411Y-67855990D01*
X163946632Y-67693475D01*
X164153475Y-67486632D01*
X164315990Y-67243411D01*
X164427932Y-66973158D01*
X164485000Y-66686260D01*
X164485000Y-66393740D01*
X164427932Y-66106842D01*
X164315990Y-65836589D01*
X164153475Y-65593368D01*
X163946632Y-65386525D01*
X163772240Y-65270000D01*
X163946632Y-65153475D01*
X164153475Y-64946632D01*
X164315990Y-64703411D01*
X164427932Y-64433158D01*
X164485000Y-64146260D01*
X164485000Y-63853740D01*
X164427932Y-63566842D01*
X164315990Y-63296589D01*
X164153475Y-63053368D01*
X164021620Y-62921513D01*
X164094180Y-62899502D01*
X164204494Y-62840537D01*
X164301185Y-62761185D01*
X164358596Y-62691229D01*
X164865000Y-62691229D01*
X164865000Y-63308771D01*
X164985476Y-63914446D01*
X165221799Y-64484979D01*
X165564886Y-64998446D01*
X166001554Y-65435114D01*
X166515021Y-65778201D01*
X167085554Y-66014524D01*
X167691229Y-66135000D01*
X168308771Y-66135000D01*
X168914446Y-66014524D01*
X169484979Y-65778201D01*
X169998446Y-65435114D01*
X170435114Y-64998446D01*
X170778201Y-64484979D01*
X171014524Y-63914446D01*
X171135000Y-63308771D01*
X171135000Y-62691229D01*
X171014524Y-62085554D01*
X170778201Y-61515021D01*
X170435114Y-61001554D01*
X169998446Y-60564886D01*
X169484979Y-60221799D01*
X168914446Y-59985476D01*
X168308771Y-59865000D01*
X167691229Y-59865000D01*
X167085554Y-59985476D01*
X166515021Y-60221799D01*
X166001554Y-60564886D01*
X165564886Y-61001554D01*
X165221799Y-61515021D01*
X164985476Y-62085554D01*
X164865000Y-62691229D01*
X164358596Y-62691229D01*
X164380537Y-62664494D01*
X164439502Y-62554180D01*
X164475812Y-62434482D01*
X164488072Y-62310000D01*
X164488072Y-60610000D01*
X164475812Y-60485518D01*
X164439502Y-60365820D01*
X164380537Y-60255506D01*
X164301185Y-60158815D01*
X164204494Y-60079463D01*
X164094180Y-60020498D01*
X163974482Y-59984188D01*
X163850000Y-59971928D01*
X162150000Y-59971928D01*
X162025518Y-59984188D01*
X161905820Y-60020498D01*
X161795506Y-60079463D01*
X161698815Y-60158815D01*
X161619463Y-60255506D01*
X161560498Y-60365820D01*
X161524188Y-60485518D01*
X161511928Y-60610000D01*
X161511928Y-60938542D01*
X161492273Y-60954673D01*
X161469998Y-60981815D01*
X161192811Y-61259002D01*
X161165673Y-61281274D01*
X161076798Y-61389568D01*
X161010758Y-61513120D01*
X160970091Y-61647181D01*
X160959800Y-61751665D01*
X160959800Y-61751674D01*
X160956360Y-61786600D01*
X160959800Y-61821526D01*
X160959801Y-64603345D01*
X160690026Y-64873120D01*
X160684808Y-64877403D01*
X160684804Y-64877407D01*
X160657673Y-64899673D01*
X160635407Y-64926804D01*
X157439413Y-68122800D01*
X156845000Y-68122800D01*
X156845000Y-67984441D01*
X156810836Y-67812688D01*
X156743821Y-67650901D01*
X156646531Y-67505296D01*
X156522704Y-67381469D01*
X156377099Y-67284179D01*
X156215312Y-67217164D01*
X156043559Y-67183000D01*
X155868441Y-67183000D01*
X155696688Y-67217164D01*
X155534901Y-67284179D01*
X155389296Y-67381469D01*
X155265469Y-67505296D01*
X155168179Y-67650901D01*
X155101164Y-67812688D01*
X155067000Y-67984441D01*
X129660000Y-67984441D01*
X129660000Y-63032278D01*
X129693440Y-62691229D01*
X129865000Y-62691229D01*
X129865000Y-63308771D01*
X129985476Y-63914446D01*
X130221799Y-64484979D01*
X130564886Y-64998446D01*
X131001554Y-65435114D01*
X131515021Y-65778201D01*
X132085554Y-66014524D01*
X132691229Y-66135000D01*
X133308771Y-66135000D01*
X133914446Y-66014524D01*
X134484979Y-65778201D01*
X134998446Y-65435114D01*
X135435114Y-64998446D01*
X135778201Y-64484979D01*
X136014524Y-63914446D01*
X136135000Y-63308771D01*
X136135000Y-62691229D01*
X136014524Y-62085554D01*
X135778201Y-61515021D01*
X135435114Y-61001554D01*
X134998446Y-60564886D01*
X134484979Y-60221799D01*
X133914446Y-59985476D01*
X133308771Y-59865000D01*
X132691229Y-59865000D01*
X132085554Y-59985476D01*
X131515021Y-60221799D01*
X131001554Y-60564886D01*
X130564886Y-61001554D01*
X130221799Y-61515021D01*
X129985476Y-62085554D01*
X129865000Y-62691229D01*
X129693440Y-62691229D01*
X129726714Y-62351874D01*
X129914943Y-61728428D01*
X130220681Y-61153421D01*
X130632279Y-60648753D01*
X131134067Y-60233638D01*
X131706924Y-59923895D01*
X132329039Y-59731318D01*
X133007584Y-59660000D01*
X167967722Y-59660000D01*
X168648126Y-59726714D01*
M02*
