G04 #@! TF.GenerationSoftware,KiCad,Pcbnew,(5.1.5)-3*
G04 #@! TF.CreationDate,2020-02-22T17:46:18+01:00*
G04 #@! TF.ProjectId,Breakoutboard,42726561-6b6f-4757-9462-6f6172642e6b,rev?*
G04 #@! TF.SameCoordinates,Original*
G04 #@! TF.FileFunction,Soldermask,Top*
G04 #@! TF.FilePolarity,Negative*
%FSLAX46Y46*%
G04 Gerber Fmt 4.6, Leading zero omitted, Abs format (unit mm)*
G04 Created by KiCad (PCBNEW (5.1.5)-3) date 2020-02-22 17:46:18*
%MOMM*%
%LPD*%
G04 APERTURE LIST*
%ADD10C,0.100000*%
%ADD11R,3.901600X2.101600*%
%ADD12R,1.601600X2.101600*%
%ADD13R,1.801600X1.801600*%
%ADD14O,1.801600X1.801600*%
%ADD15C,5.101600*%
%ADD16C,1.801600*%
%ADD17R,2.101600X0.901600*%
%ADD18R,0.901600X2.101600*%
%ADD19R,0.901600X1.001600*%
%ADD20C,1.701600*%
%ADD21R,1.701600X1.701600*%
%ADD22C,3.601600*%
%ADD23R,2.301600X4.101600*%
%ADD24O,4.101600X2.301600*%
%ADD25O,2.301600X4.101600*%
G04 APERTURE END LIST*
D10*
G36*
X170688000Y-116332000D02*
G01*
X165354000Y-116332000D01*
X165354000Y-107442000D01*
X170688000Y-107442000D01*
X170688000Y-116332000D01*
G37*
X170688000Y-116332000D02*
X165354000Y-116332000D01*
X165354000Y-107442000D01*
X170688000Y-107442000D01*
X170688000Y-116332000D01*
G36*
X130842383Y-103495510D02*
G01*
X130868795Y-103499428D01*
X130894696Y-103505916D01*
X130919837Y-103514911D01*
X130943974Y-103526328D01*
X130966877Y-103540055D01*
X130988324Y-103555961D01*
X131008108Y-103573892D01*
X131026039Y-103593676D01*
X131041945Y-103615123D01*
X131055672Y-103638026D01*
X131067089Y-103662163D01*
X131076084Y-103687304D01*
X131082572Y-103713205D01*
X131086490Y-103739617D01*
X131087800Y-103766286D01*
X131087800Y-104723714D01*
X131086490Y-104750383D01*
X131082572Y-104776795D01*
X131076084Y-104802696D01*
X131067089Y-104827837D01*
X131055672Y-104851974D01*
X131041945Y-104874877D01*
X131026039Y-104896324D01*
X131008108Y-104916108D01*
X130988324Y-104934039D01*
X130966877Y-104949945D01*
X130943974Y-104963672D01*
X130919837Y-104975089D01*
X130894696Y-104984084D01*
X130868795Y-104990572D01*
X130842383Y-104994490D01*
X130815714Y-104995800D01*
X130108286Y-104995800D01*
X130081617Y-104994490D01*
X130055205Y-104990572D01*
X130029304Y-104984084D01*
X130004163Y-104975089D01*
X129980026Y-104963672D01*
X129957123Y-104949945D01*
X129935676Y-104934039D01*
X129915892Y-104916108D01*
X129897961Y-104896324D01*
X129882055Y-104874877D01*
X129868328Y-104851974D01*
X129856911Y-104827837D01*
X129847916Y-104802696D01*
X129841428Y-104776795D01*
X129837510Y-104750383D01*
X129836200Y-104723714D01*
X129836200Y-103766286D01*
X129837510Y-103739617D01*
X129841428Y-103713205D01*
X129847916Y-103687304D01*
X129856911Y-103662163D01*
X129868328Y-103638026D01*
X129882055Y-103615123D01*
X129897961Y-103593676D01*
X129915892Y-103573892D01*
X129935676Y-103555961D01*
X129957123Y-103540055D01*
X129980026Y-103526328D01*
X130004163Y-103514911D01*
X130029304Y-103505916D01*
X130055205Y-103499428D01*
X130081617Y-103495510D01*
X130108286Y-103494200D01*
X130815714Y-103494200D01*
X130842383Y-103495510D01*
G37*
G36*
X132892383Y-103495510D02*
G01*
X132918795Y-103499428D01*
X132944696Y-103505916D01*
X132969837Y-103514911D01*
X132993974Y-103526328D01*
X133016877Y-103540055D01*
X133038324Y-103555961D01*
X133058108Y-103573892D01*
X133076039Y-103593676D01*
X133091945Y-103615123D01*
X133105672Y-103638026D01*
X133117089Y-103662163D01*
X133126084Y-103687304D01*
X133132572Y-103713205D01*
X133136490Y-103739617D01*
X133137800Y-103766286D01*
X133137800Y-104723714D01*
X133136490Y-104750383D01*
X133132572Y-104776795D01*
X133126084Y-104802696D01*
X133117089Y-104827837D01*
X133105672Y-104851974D01*
X133091945Y-104874877D01*
X133076039Y-104896324D01*
X133058108Y-104916108D01*
X133038324Y-104934039D01*
X133016877Y-104949945D01*
X132993974Y-104963672D01*
X132969837Y-104975089D01*
X132944696Y-104984084D01*
X132918795Y-104990572D01*
X132892383Y-104994490D01*
X132865714Y-104995800D01*
X132158286Y-104995800D01*
X132131617Y-104994490D01*
X132105205Y-104990572D01*
X132079304Y-104984084D01*
X132054163Y-104975089D01*
X132030026Y-104963672D01*
X132007123Y-104949945D01*
X131985676Y-104934039D01*
X131965892Y-104916108D01*
X131947961Y-104896324D01*
X131932055Y-104874877D01*
X131918328Y-104851974D01*
X131906911Y-104827837D01*
X131897916Y-104802696D01*
X131891428Y-104776795D01*
X131887510Y-104750383D01*
X131886200Y-104723714D01*
X131886200Y-103766286D01*
X131887510Y-103739617D01*
X131891428Y-103713205D01*
X131897916Y-103687304D01*
X131906911Y-103662163D01*
X131918328Y-103638026D01*
X131932055Y-103615123D01*
X131947961Y-103593676D01*
X131965892Y-103573892D01*
X131985676Y-103555961D01*
X132007123Y-103540055D01*
X132030026Y-103526328D01*
X132054163Y-103514911D01*
X132079304Y-103505916D01*
X132105205Y-103499428D01*
X132131617Y-103495510D01*
X132158286Y-103494200D01*
X132865714Y-103494200D01*
X132892383Y-103495510D01*
G37*
G36*
X136720383Y-103495510D02*
G01*
X136746795Y-103499428D01*
X136772696Y-103505916D01*
X136797837Y-103514911D01*
X136821974Y-103526328D01*
X136844877Y-103540055D01*
X136866324Y-103555961D01*
X136886108Y-103573892D01*
X136904039Y-103593676D01*
X136919945Y-103615123D01*
X136933672Y-103638026D01*
X136945089Y-103662163D01*
X136954084Y-103687304D01*
X136960572Y-103713205D01*
X136964490Y-103739617D01*
X136965800Y-103766286D01*
X136965800Y-104723714D01*
X136964490Y-104750383D01*
X136960572Y-104776795D01*
X136954084Y-104802696D01*
X136945089Y-104827837D01*
X136933672Y-104851974D01*
X136919945Y-104874877D01*
X136904039Y-104896324D01*
X136886108Y-104916108D01*
X136866324Y-104934039D01*
X136844877Y-104949945D01*
X136821974Y-104963672D01*
X136797837Y-104975089D01*
X136772696Y-104984084D01*
X136746795Y-104990572D01*
X136720383Y-104994490D01*
X136693714Y-104995800D01*
X135986286Y-104995800D01*
X135959617Y-104994490D01*
X135933205Y-104990572D01*
X135907304Y-104984084D01*
X135882163Y-104975089D01*
X135858026Y-104963672D01*
X135835123Y-104949945D01*
X135813676Y-104934039D01*
X135793892Y-104916108D01*
X135775961Y-104896324D01*
X135760055Y-104874877D01*
X135746328Y-104851974D01*
X135734911Y-104827837D01*
X135725916Y-104802696D01*
X135719428Y-104776795D01*
X135715510Y-104750383D01*
X135714200Y-104723714D01*
X135714200Y-103766286D01*
X135715510Y-103739617D01*
X135719428Y-103713205D01*
X135725916Y-103687304D01*
X135734911Y-103662163D01*
X135746328Y-103638026D01*
X135760055Y-103615123D01*
X135775961Y-103593676D01*
X135793892Y-103573892D01*
X135813676Y-103555961D01*
X135835123Y-103540055D01*
X135858026Y-103526328D01*
X135882163Y-103514911D01*
X135907304Y-103505916D01*
X135933205Y-103499428D01*
X135959617Y-103495510D01*
X135986286Y-103494200D01*
X136693714Y-103494200D01*
X136720383Y-103495510D01*
G37*
G36*
X134670383Y-103495510D02*
G01*
X134696795Y-103499428D01*
X134722696Y-103505916D01*
X134747837Y-103514911D01*
X134771974Y-103526328D01*
X134794877Y-103540055D01*
X134816324Y-103555961D01*
X134836108Y-103573892D01*
X134854039Y-103593676D01*
X134869945Y-103615123D01*
X134883672Y-103638026D01*
X134895089Y-103662163D01*
X134904084Y-103687304D01*
X134910572Y-103713205D01*
X134914490Y-103739617D01*
X134915800Y-103766286D01*
X134915800Y-104723714D01*
X134914490Y-104750383D01*
X134910572Y-104776795D01*
X134904084Y-104802696D01*
X134895089Y-104827837D01*
X134883672Y-104851974D01*
X134869945Y-104874877D01*
X134854039Y-104896324D01*
X134836108Y-104916108D01*
X134816324Y-104934039D01*
X134794877Y-104949945D01*
X134771974Y-104963672D01*
X134747837Y-104975089D01*
X134722696Y-104984084D01*
X134696795Y-104990572D01*
X134670383Y-104994490D01*
X134643714Y-104995800D01*
X133936286Y-104995800D01*
X133909617Y-104994490D01*
X133883205Y-104990572D01*
X133857304Y-104984084D01*
X133832163Y-104975089D01*
X133808026Y-104963672D01*
X133785123Y-104949945D01*
X133763676Y-104934039D01*
X133743892Y-104916108D01*
X133725961Y-104896324D01*
X133710055Y-104874877D01*
X133696328Y-104851974D01*
X133684911Y-104827837D01*
X133675916Y-104802696D01*
X133669428Y-104776795D01*
X133665510Y-104750383D01*
X133664200Y-104723714D01*
X133664200Y-103766286D01*
X133665510Y-103739617D01*
X133669428Y-103713205D01*
X133675916Y-103687304D01*
X133684911Y-103662163D01*
X133696328Y-103638026D01*
X133710055Y-103615123D01*
X133725961Y-103593676D01*
X133743892Y-103573892D01*
X133763676Y-103555961D01*
X133785123Y-103540055D01*
X133808026Y-103526328D01*
X133832163Y-103514911D01*
X133857304Y-103505916D01*
X133883205Y-103499428D01*
X133909617Y-103495510D01*
X133936286Y-103494200D01*
X134643714Y-103494200D01*
X134670383Y-103495510D01*
G37*
D11*
X133782000Y-95253000D03*
D12*
X133782000Y-101553000D03*
X136082000Y-101553000D03*
X131482000Y-101553000D03*
D10*
G36*
X166840383Y-81514510D02*
G01*
X166866795Y-81518428D01*
X166892696Y-81524916D01*
X166917837Y-81533911D01*
X166941974Y-81545328D01*
X166964877Y-81559055D01*
X166986324Y-81574961D01*
X167006108Y-81592892D01*
X167024039Y-81612676D01*
X167039945Y-81634123D01*
X167053672Y-81657026D01*
X167065089Y-81681163D01*
X167074084Y-81706304D01*
X167080572Y-81732205D01*
X167084490Y-81758617D01*
X167085800Y-81785286D01*
X167085800Y-82742714D01*
X167084490Y-82769383D01*
X167080572Y-82795795D01*
X167074084Y-82821696D01*
X167065089Y-82846837D01*
X167053672Y-82870974D01*
X167039945Y-82893877D01*
X167024039Y-82915324D01*
X167006108Y-82935108D01*
X166986324Y-82953039D01*
X166964877Y-82968945D01*
X166941974Y-82982672D01*
X166917837Y-82994089D01*
X166892696Y-83003084D01*
X166866795Y-83009572D01*
X166840383Y-83013490D01*
X166813714Y-83014800D01*
X166106286Y-83014800D01*
X166079617Y-83013490D01*
X166053205Y-83009572D01*
X166027304Y-83003084D01*
X166002163Y-82994089D01*
X165978026Y-82982672D01*
X165955123Y-82968945D01*
X165933676Y-82953039D01*
X165913892Y-82935108D01*
X165895961Y-82915324D01*
X165880055Y-82893877D01*
X165866328Y-82870974D01*
X165854911Y-82846837D01*
X165845916Y-82821696D01*
X165839428Y-82795795D01*
X165835510Y-82769383D01*
X165834200Y-82742714D01*
X165834200Y-81785286D01*
X165835510Y-81758617D01*
X165839428Y-81732205D01*
X165845916Y-81706304D01*
X165854911Y-81681163D01*
X165866328Y-81657026D01*
X165880055Y-81634123D01*
X165895961Y-81612676D01*
X165913892Y-81592892D01*
X165933676Y-81574961D01*
X165955123Y-81559055D01*
X165978026Y-81545328D01*
X166002163Y-81533911D01*
X166027304Y-81524916D01*
X166053205Y-81518428D01*
X166079617Y-81514510D01*
X166106286Y-81513200D01*
X166813714Y-81513200D01*
X166840383Y-81514510D01*
G37*
G36*
X164790383Y-81514510D02*
G01*
X164816795Y-81518428D01*
X164842696Y-81524916D01*
X164867837Y-81533911D01*
X164891974Y-81545328D01*
X164914877Y-81559055D01*
X164936324Y-81574961D01*
X164956108Y-81592892D01*
X164974039Y-81612676D01*
X164989945Y-81634123D01*
X165003672Y-81657026D01*
X165015089Y-81681163D01*
X165024084Y-81706304D01*
X165030572Y-81732205D01*
X165034490Y-81758617D01*
X165035800Y-81785286D01*
X165035800Y-82742714D01*
X165034490Y-82769383D01*
X165030572Y-82795795D01*
X165024084Y-82821696D01*
X165015089Y-82846837D01*
X165003672Y-82870974D01*
X164989945Y-82893877D01*
X164974039Y-82915324D01*
X164956108Y-82935108D01*
X164936324Y-82953039D01*
X164914877Y-82968945D01*
X164891974Y-82982672D01*
X164867837Y-82994089D01*
X164842696Y-83003084D01*
X164816795Y-83009572D01*
X164790383Y-83013490D01*
X164763714Y-83014800D01*
X164056286Y-83014800D01*
X164029617Y-83013490D01*
X164003205Y-83009572D01*
X163977304Y-83003084D01*
X163952163Y-82994089D01*
X163928026Y-82982672D01*
X163905123Y-82968945D01*
X163883676Y-82953039D01*
X163863892Y-82935108D01*
X163845961Y-82915324D01*
X163830055Y-82893877D01*
X163816328Y-82870974D01*
X163804911Y-82846837D01*
X163795916Y-82821696D01*
X163789428Y-82795795D01*
X163785510Y-82769383D01*
X163784200Y-82742714D01*
X163784200Y-81785286D01*
X163785510Y-81758617D01*
X163789428Y-81732205D01*
X163795916Y-81706304D01*
X163804911Y-81681163D01*
X163816328Y-81657026D01*
X163830055Y-81634123D01*
X163845961Y-81612676D01*
X163863892Y-81592892D01*
X163883676Y-81574961D01*
X163905123Y-81559055D01*
X163928026Y-81545328D01*
X163952163Y-81533911D01*
X163977304Y-81524916D01*
X164003205Y-81518428D01*
X164029617Y-81514510D01*
X164056286Y-81513200D01*
X164763714Y-81513200D01*
X164790383Y-81514510D01*
G37*
G36*
X166822383Y-71354510D02*
G01*
X166848795Y-71358428D01*
X166874696Y-71364916D01*
X166899837Y-71373911D01*
X166923974Y-71385328D01*
X166946877Y-71399055D01*
X166968324Y-71414961D01*
X166988108Y-71432892D01*
X167006039Y-71452676D01*
X167021945Y-71474123D01*
X167035672Y-71497026D01*
X167047089Y-71521163D01*
X167056084Y-71546304D01*
X167062572Y-71572205D01*
X167066490Y-71598617D01*
X167067800Y-71625286D01*
X167067800Y-72582714D01*
X167066490Y-72609383D01*
X167062572Y-72635795D01*
X167056084Y-72661696D01*
X167047089Y-72686837D01*
X167035672Y-72710974D01*
X167021945Y-72733877D01*
X167006039Y-72755324D01*
X166988108Y-72775108D01*
X166968324Y-72793039D01*
X166946877Y-72808945D01*
X166923974Y-72822672D01*
X166899837Y-72834089D01*
X166874696Y-72843084D01*
X166848795Y-72849572D01*
X166822383Y-72853490D01*
X166795714Y-72854800D01*
X166088286Y-72854800D01*
X166061617Y-72853490D01*
X166035205Y-72849572D01*
X166009304Y-72843084D01*
X165984163Y-72834089D01*
X165960026Y-72822672D01*
X165937123Y-72808945D01*
X165915676Y-72793039D01*
X165895892Y-72775108D01*
X165877961Y-72755324D01*
X165862055Y-72733877D01*
X165848328Y-72710974D01*
X165836911Y-72686837D01*
X165827916Y-72661696D01*
X165821428Y-72635795D01*
X165817510Y-72609383D01*
X165816200Y-72582714D01*
X165816200Y-71625286D01*
X165817510Y-71598617D01*
X165821428Y-71572205D01*
X165827916Y-71546304D01*
X165836911Y-71521163D01*
X165848328Y-71497026D01*
X165862055Y-71474123D01*
X165877961Y-71452676D01*
X165895892Y-71432892D01*
X165915676Y-71414961D01*
X165937123Y-71399055D01*
X165960026Y-71385328D01*
X165984163Y-71373911D01*
X166009304Y-71364916D01*
X166035205Y-71358428D01*
X166061617Y-71354510D01*
X166088286Y-71353200D01*
X166795714Y-71353200D01*
X166822383Y-71354510D01*
G37*
G36*
X164772383Y-71354510D02*
G01*
X164798795Y-71358428D01*
X164824696Y-71364916D01*
X164849837Y-71373911D01*
X164873974Y-71385328D01*
X164896877Y-71399055D01*
X164918324Y-71414961D01*
X164938108Y-71432892D01*
X164956039Y-71452676D01*
X164971945Y-71474123D01*
X164985672Y-71497026D01*
X164997089Y-71521163D01*
X165006084Y-71546304D01*
X165012572Y-71572205D01*
X165016490Y-71598617D01*
X165017800Y-71625286D01*
X165017800Y-72582714D01*
X165016490Y-72609383D01*
X165012572Y-72635795D01*
X165006084Y-72661696D01*
X164997089Y-72686837D01*
X164985672Y-72710974D01*
X164971945Y-72733877D01*
X164956039Y-72755324D01*
X164938108Y-72775108D01*
X164918324Y-72793039D01*
X164896877Y-72808945D01*
X164873974Y-72822672D01*
X164849837Y-72834089D01*
X164824696Y-72843084D01*
X164798795Y-72849572D01*
X164772383Y-72853490D01*
X164745714Y-72854800D01*
X164038286Y-72854800D01*
X164011617Y-72853490D01*
X163985205Y-72849572D01*
X163959304Y-72843084D01*
X163934163Y-72834089D01*
X163910026Y-72822672D01*
X163887123Y-72808945D01*
X163865676Y-72793039D01*
X163845892Y-72775108D01*
X163827961Y-72755324D01*
X163812055Y-72733877D01*
X163798328Y-72710974D01*
X163786911Y-72686837D01*
X163777916Y-72661696D01*
X163771428Y-72635795D01*
X163767510Y-72609383D01*
X163766200Y-72582714D01*
X163766200Y-71625286D01*
X163767510Y-71598617D01*
X163771428Y-71572205D01*
X163777916Y-71546304D01*
X163786911Y-71521163D01*
X163798328Y-71497026D01*
X163812055Y-71474123D01*
X163827961Y-71452676D01*
X163845892Y-71432892D01*
X163865676Y-71414961D01*
X163887123Y-71399055D01*
X163910026Y-71385328D01*
X163934163Y-71373911D01*
X163959304Y-71364916D01*
X163985205Y-71358428D01*
X164011617Y-71354510D01*
X164038286Y-71353200D01*
X164745714Y-71353200D01*
X164772383Y-71354510D01*
G37*
G36*
X164790383Y-73894510D02*
G01*
X164816795Y-73898428D01*
X164842696Y-73904916D01*
X164867837Y-73913911D01*
X164891974Y-73925328D01*
X164914877Y-73939055D01*
X164936324Y-73954961D01*
X164956108Y-73972892D01*
X164974039Y-73992676D01*
X164989945Y-74014123D01*
X165003672Y-74037026D01*
X165015089Y-74061163D01*
X165024084Y-74086304D01*
X165030572Y-74112205D01*
X165034490Y-74138617D01*
X165035800Y-74165286D01*
X165035800Y-75122714D01*
X165034490Y-75149383D01*
X165030572Y-75175795D01*
X165024084Y-75201696D01*
X165015089Y-75226837D01*
X165003672Y-75250974D01*
X164989945Y-75273877D01*
X164974039Y-75295324D01*
X164956108Y-75315108D01*
X164936324Y-75333039D01*
X164914877Y-75348945D01*
X164891974Y-75362672D01*
X164867837Y-75374089D01*
X164842696Y-75383084D01*
X164816795Y-75389572D01*
X164790383Y-75393490D01*
X164763714Y-75394800D01*
X164056286Y-75394800D01*
X164029617Y-75393490D01*
X164003205Y-75389572D01*
X163977304Y-75383084D01*
X163952163Y-75374089D01*
X163928026Y-75362672D01*
X163905123Y-75348945D01*
X163883676Y-75333039D01*
X163863892Y-75315108D01*
X163845961Y-75295324D01*
X163830055Y-75273877D01*
X163816328Y-75250974D01*
X163804911Y-75226837D01*
X163795916Y-75201696D01*
X163789428Y-75175795D01*
X163785510Y-75149383D01*
X163784200Y-75122714D01*
X163784200Y-74165286D01*
X163785510Y-74138617D01*
X163789428Y-74112205D01*
X163795916Y-74086304D01*
X163804911Y-74061163D01*
X163816328Y-74037026D01*
X163830055Y-74014123D01*
X163845961Y-73992676D01*
X163863892Y-73972892D01*
X163883676Y-73954961D01*
X163905123Y-73939055D01*
X163928026Y-73925328D01*
X163952163Y-73913911D01*
X163977304Y-73904916D01*
X164003205Y-73898428D01*
X164029617Y-73894510D01*
X164056286Y-73893200D01*
X164763714Y-73893200D01*
X164790383Y-73894510D01*
G37*
G36*
X166840383Y-73894510D02*
G01*
X166866795Y-73898428D01*
X166892696Y-73904916D01*
X166917837Y-73913911D01*
X166941974Y-73925328D01*
X166964877Y-73939055D01*
X166986324Y-73954961D01*
X167006108Y-73972892D01*
X167024039Y-73992676D01*
X167039945Y-74014123D01*
X167053672Y-74037026D01*
X167065089Y-74061163D01*
X167074084Y-74086304D01*
X167080572Y-74112205D01*
X167084490Y-74138617D01*
X167085800Y-74165286D01*
X167085800Y-75122714D01*
X167084490Y-75149383D01*
X167080572Y-75175795D01*
X167074084Y-75201696D01*
X167065089Y-75226837D01*
X167053672Y-75250974D01*
X167039945Y-75273877D01*
X167024039Y-75295324D01*
X167006108Y-75315108D01*
X166986324Y-75333039D01*
X166964877Y-75348945D01*
X166941974Y-75362672D01*
X166917837Y-75374089D01*
X166892696Y-75383084D01*
X166866795Y-75389572D01*
X166840383Y-75393490D01*
X166813714Y-75394800D01*
X166106286Y-75394800D01*
X166079617Y-75393490D01*
X166053205Y-75389572D01*
X166027304Y-75383084D01*
X166002163Y-75374089D01*
X165978026Y-75362672D01*
X165955123Y-75348945D01*
X165933676Y-75333039D01*
X165913892Y-75315108D01*
X165895961Y-75295324D01*
X165880055Y-75273877D01*
X165866328Y-75250974D01*
X165854911Y-75226837D01*
X165845916Y-75201696D01*
X165839428Y-75175795D01*
X165835510Y-75149383D01*
X165834200Y-75122714D01*
X165834200Y-74165286D01*
X165835510Y-74138617D01*
X165839428Y-74112205D01*
X165845916Y-74086304D01*
X165854911Y-74061163D01*
X165866328Y-74037026D01*
X165880055Y-74014123D01*
X165895961Y-73992676D01*
X165913892Y-73972892D01*
X165933676Y-73954961D01*
X165955123Y-73939055D01*
X165978026Y-73925328D01*
X166002163Y-73913911D01*
X166027304Y-73904916D01*
X166053205Y-73898428D01*
X166079617Y-73894510D01*
X166106286Y-73893200D01*
X166813714Y-73893200D01*
X166840383Y-73894510D01*
G37*
G36*
X166840383Y-76434510D02*
G01*
X166866795Y-76438428D01*
X166892696Y-76444916D01*
X166917837Y-76453911D01*
X166941974Y-76465328D01*
X166964877Y-76479055D01*
X166986324Y-76494961D01*
X167006108Y-76512892D01*
X167024039Y-76532676D01*
X167039945Y-76554123D01*
X167053672Y-76577026D01*
X167065089Y-76601163D01*
X167074084Y-76626304D01*
X167080572Y-76652205D01*
X167084490Y-76678617D01*
X167085800Y-76705286D01*
X167085800Y-77662714D01*
X167084490Y-77689383D01*
X167080572Y-77715795D01*
X167074084Y-77741696D01*
X167065089Y-77766837D01*
X167053672Y-77790974D01*
X167039945Y-77813877D01*
X167024039Y-77835324D01*
X167006108Y-77855108D01*
X166986324Y-77873039D01*
X166964877Y-77888945D01*
X166941974Y-77902672D01*
X166917837Y-77914089D01*
X166892696Y-77923084D01*
X166866795Y-77929572D01*
X166840383Y-77933490D01*
X166813714Y-77934800D01*
X166106286Y-77934800D01*
X166079617Y-77933490D01*
X166053205Y-77929572D01*
X166027304Y-77923084D01*
X166002163Y-77914089D01*
X165978026Y-77902672D01*
X165955123Y-77888945D01*
X165933676Y-77873039D01*
X165913892Y-77855108D01*
X165895961Y-77835324D01*
X165880055Y-77813877D01*
X165866328Y-77790974D01*
X165854911Y-77766837D01*
X165845916Y-77741696D01*
X165839428Y-77715795D01*
X165835510Y-77689383D01*
X165834200Y-77662714D01*
X165834200Y-76705286D01*
X165835510Y-76678617D01*
X165839428Y-76652205D01*
X165845916Y-76626304D01*
X165854911Y-76601163D01*
X165866328Y-76577026D01*
X165880055Y-76554123D01*
X165895961Y-76532676D01*
X165913892Y-76512892D01*
X165933676Y-76494961D01*
X165955123Y-76479055D01*
X165978026Y-76465328D01*
X166002163Y-76453911D01*
X166027304Y-76444916D01*
X166053205Y-76438428D01*
X166079617Y-76434510D01*
X166106286Y-76433200D01*
X166813714Y-76433200D01*
X166840383Y-76434510D01*
G37*
G36*
X164790383Y-76434510D02*
G01*
X164816795Y-76438428D01*
X164842696Y-76444916D01*
X164867837Y-76453911D01*
X164891974Y-76465328D01*
X164914877Y-76479055D01*
X164936324Y-76494961D01*
X164956108Y-76512892D01*
X164974039Y-76532676D01*
X164989945Y-76554123D01*
X165003672Y-76577026D01*
X165015089Y-76601163D01*
X165024084Y-76626304D01*
X165030572Y-76652205D01*
X165034490Y-76678617D01*
X165035800Y-76705286D01*
X165035800Y-77662714D01*
X165034490Y-77689383D01*
X165030572Y-77715795D01*
X165024084Y-77741696D01*
X165015089Y-77766837D01*
X165003672Y-77790974D01*
X164989945Y-77813877D01*
X164974039Y-77835324D01*
X164956108Y-77855108D01*
X164936324Y-77873039D01*
X164914877Y-77888945D01*
X164891974Y-77902672D01*
X164867837Y-77914089D01*
X164842696Y-77923084D01*
X164816795Y-77929572D01*
X164790383Y-77933490D01*
X164763714Y-77934800D01*
X164056286Y-77934800D01*
X164029617Y-77933490D01*
X164003205Y-77929572D01*
X163977304Y-77923084D01*
X163952163Y-77914089D01*
X163928026Y-77902672D01*
X163905123Y-77888945D01*
X163883676Y-77873039D01*
X163863892Y-77855108D01*
X163845961Y-77835324D01*
X163830055Y-77813877D01*
X163816328Y-77790974D01*
X163804911Y-77766837D01*
X163795916Y-77741696D01*
X163789428Y-77715795D01*
X163785510Y-77689383D01*
X163784200Y-77662714D01*
X163784200Y-76705286D01*
X163785510Y-76678617D01*
X163789428Y-76652205D01*
X163795916Y-76626304D01*
X163804911Y-76601163D01*
X163816328Y-76577026D01*
X163830055Y-76554123D01*
X163845961Y-76532676D01*
X163863892Y-76512892D01*
X163883676Y-76494961D01*
X163905123Y-76479055D01*
X163928026Y-76465328D01*
X163952163Y-76453911D01*
X163977304Y-76444916D01*
X164003205Y-76438428D01*
X164029617Y-76434510D01*
X164056286Y-76433200D01*
X164763714Y-76433200D01*
X164790383Y-76434510D01*
G37*
G36*
X164790383Y-68814510D02*
G01*
X164816795Y-68818428D01*
X164842696Y-68824916D01*
X164867837Y-68833911D01*
X164891974Y-68845328D01*
X164914877Y-68859055D01*
X164936324Y-68874961D01*
X164956108Y-68892892D01*
X164974039Y-68912676D01*
X164989945Y-68934123D01*
X165003672Y-68957026D01*
X165015089Y-68981163D01*
X165024084Y-69006304D01*
X165030572Y-69032205D01*
X165034490Y-69058617D01*
X165035800Y-69085286D01*
X165035800Y-70042714D01*
X165034490Y-70069383D01*
X165030572Y-70095795D01*
X165024084Y-70121696D01*
X165015089Y-70146837D01*
X165003672Y-70170974D01*
X164989945Y-70193877D01*
X164974039Y-70215324D01*
X164956108Y-70235108D01*
X164936324Y-70253039D01*
X164914877Y-70268945D01*
X164891974Y-70282672D01*
X164867837Y-70294089D01*
X164842696Y-70303084D01*
X164816795Y-70309572D01*
X164790383Y-70313490D01*
X164763714Y-70314800D01*
X164056286Y-70314800D01*
X164029617Y-70313490D01*
X164003205Y-70309572D01*
X163977304Y-70303084D01*
X163952163Y-70294089D01*
X163928026Y-70282672D01*
X163905123Y-70268945D01*
X163883676Y-70253039D01*
X163863892Y-70235108D01*
X163845961Y-70215324D01*
X163830055Y-70193877D01*
X163816328Y-70170974D01*
X163804911Y-70146837D01*
X163795916Y-70121696D01*
X163789428Y-70095795D01*
X163785510Y-70069383D01*
X163784200Y-70042714D01*
X163784200Y-69085286D01*
X163785510Y-69058617D01*
X163789428Y-69032205D01*
X163795916Y-69006304D01*
X163804911Y-68981163D01*
X163816328Y-68957026D01*
X163830055Y-68934123D01*
X163845961Y-68912676D01*
X163863892Y-68892892D01*
X163883676Y-68874961D01*
X163905123Y-68859055D01*
X163928026Y-68845328D01*
X163952163Y-68833911D01*
X163977304Y-68824916D01*
X164003205Y-68818428D01*
X164029617Y-68814510D01*
X164056286Y-68813200D01*
X164763714Y-68813200D01*
X164790383Y-68814510D01*
G37*
G36*
X166840383Y-68814510D02*
G01*
X166866795Y-68818428D01*
X166892696Y-68824916D01*
X166917837Y-68833911D01*
X166941974Y-68845328D01*
X166964877Y-68859055D01*
X166986324Y-68874961D01*
X167006108Y-68892892D01*
X167024039Y-68912676D01*
X167039945Y-68934123D01*
X167053672Y-68957026D01*
X167065089Y-68981163D01*
X167074084Y-69006304D01*
X167080572Y-69032205D01*
X167084490Y-69058617D01*
X167085800Y-69085286D01*
X167085800Y-70042714D01*
X167084490Y-70069383D01*
X167080572Y-70095795D01*
X167074084Y-70121696D01*
X167065089Y-70146837D01*
X167053672Y-70170974D01*
X167039945Y-70193877D01*
X167024039Y-70215324D01*
X167006108Y-70235108D01*
X166986324Y-70253039D01*
X166964877Y-70268945D01*
X166941974Y-70282672D01*
X166917837Y-70294089D01*
X166892696Y-70303084D01*
X166866795Y-70309572D01*
X166840383Y-70313490D01*
X166813714Y-70314800D01*
X166106286Y-70314800D01*
X166079617Y-70313490D01*
X166053205Y-70309572D01*
X166027304Y-70303084D01*
X166002163Y-70294089D01*
X165978026Y-70282672D01*
X165955123Y-70268945D01*
X165933676Y-70253039D01*
X165913892Y-70235108D01*
X165895961Y-70215324D01*
X165880055Y-70193877D01*
X165866328Y-70170974D01*
X165854911Y-70146837D01*
X165845916Y-70121696D01*
X165839428Y-70095795D01*
X165835510Y-70069383D01*
X165834200Y-70042714D01*
X165834200Y-69085286D01*
X165835510Y-69058617D01*
X165839428Y-69032205D01*
X165845916Y-69006304D01*
X165854911Y-68981163D01*
X165866328Y-68957026D01*
X165880055Y-68934123D01*
X165895961Y-68912676D01*
X165913892Y-68892892D01*
X165933676Y-68874961D01*
X165955123Y-68859055D01*
X165978026Y-68845328D01*
X166002163Y-68833911D01*
X166027304Y-68824916D01*
X166053205Y-68818428D01*
X166079617Y-68814510D01*
X166106286Y-68813200D01*
X166813714Y-68813200D01*
X166840383Y-68814510D01*
G37*
G36*
X164790383Y-78974510D02*
G01*
X164816795Y-78978428D01*
X164842696Y-78984916D01*
X164867837Y-78993911D01*
X164891974Y-79005328D01*
X164914877Y-79019055D01*
X164936324Y-79034961D01*
X164956108Y-79052892D01*
X164974039Y-79072676D01*
X164989945Y-79094123D01*
X165003672Y-79117026D01*
X165015089Y-79141163D01*
X165024084Y-79166304D01*
X165030572Y-79192205D01*
X165034490Y-79218617D01*
X165035800Y-79245286D01*
X165035800Y-80202714D01*
X165034490Y-80229383D01*
X165030572Y-80255795D01*
X165024084Y-80281696D01*
X165015089Y-80306837D01*
X165003672Y-80330974D01*
X164989945Y-80353877D01*
X164974039Y-80375324D01*
X164956108Y-80395108D01*
X164936324Y-80413039D01*
X164914877Y-80428945D01*
X164891974Y-80442672D01*
X164867837Y-80454089D01*
X164842696Y-80463084D01*
X164816795Y-80469572D01*
X164790383Y-80473490D01*
X164763714Y-80474800D01*
X164056286Y-80474800D01*
X164029617Y-80473490D01*
X164003205Y-80469572D01*
X163977304Y-80463084D01*
X163952163Y-80454089D01*
X163928026Y-80442672D01*
X163905123Y-80428945D01*
X163883676Y-80413039D01*
X163863892Y-80395108D01*
X163845961Y-80375324D01*
X163830055Y-80353877D01*
X163816328Y-80330974D01*
X163804911Y-80306837D01*
X163795916Y-80281696D01*
X163789428Y-80255795D01*
X163785510Y-80229383D01*
X163784200Y-80202714D01*
X163784200Y-79245286D01*
X163785510Y-79218617D01*
X163789428Y-79192205D01*
X163795916Y-79166304D01*
X163804911Y-79141163D01*
X163816328Y-79117026D01*
X163830055Y-79094123D01*
X163845961Y-79072676D01*
X163863892Y-79052892D01*
X163883676Y-79034961D01*
X163905123Y-79019055D01*
X163928026Y-79005328D01*
X163952163Y-78993911D01*
X163977304Y-78984916D01*
X164003205Y-78978428D01*
X164029617Y-78974510D01*
X164056286Y-78973200D01*
X164763714Y-78973200D01*
X164790383Y-78974510D01*
G37*
G36*
X166840383Y-78974510D02*
G01*
X166866795Y-78978428D01*
X166892696Y-78984916D01*
X166917837Y-78993911D01*
X166941974Y-79005328D01*
X166964877Y-79019055D01*
X166986324Y-79034961D01*
X167006108Y-79052892D01*
X167024039Y-79072676D01*
X167039945Y-79094123D01*
X167053672Y-79117026D01*
X167065089Y-79141163D01*
X167074084Y-79166304D01*
X167080572Y-79192205D01*
X167084490Y-79218617D01*
X167085800Y-79245286D01*
X167085800Y-80202714D01*
X167084490Y-80229383D01*
X167080572Y-80255795D01*
X167074084Y-80281696D01*
X167065089Y-80306837D01*
X167053672Y-80330974D01*
X167039945Y-80353877D01*
X167024039Y-80375324D01*
X167006108Y-80395108D01*
X166986324Y-80413039D01*
X166964877Y-80428945D01*
X166941974Y-80442672D01*
X166917837Y-80454089D01*
X166892696Y-80463084D01*
X166866795Y-80469572D01*
X166840383Y-80473490D01*
X166813714Y-80474800D01*
X166106286Y-80474800D01*
X166079617Y-80473490D01*
X166053205Y-80469572D01*
X166027304Y-80463084D01*
X166002163Y-80454089D01*
X165978026Y-80442672D01*
X165955123Y-80428945D01*
X165933676Y-80413039D01*
X165913892Y-80395108D01*
X165895961Y-80375324D01*
X165880055Y-80353877D01*
X165866328Y-80330974D01*
X165854911Y-80306837D01*
X165845916Y-80281696D01*
X165839428Y-80255795D01*
X165835510Y-80229383D01*
X165834200Y-80202714D01*
X165834200Y-79245286D01*
X165835510Y-79218617D01*
X165839428Y-79192205D01*
X165845916Y-79166304D01*
X165854911Y-79141163D01*
X165866328Y-79117026D01*
X165880055Y-79094123D01*
X165895961Y-79072676D01*
X165913892Y-79052892D01*
X165933676Y-79034961D01*
X165955123Y-79019055D01*
X165978026Y-79005328D01*
X166002163Y-78993911D01*
X166027304Y-78984916D01*
X166053205Y-78978428D01*
X166079617Y-78974510D01*
X166106286Y-78973200D01*
X166813714Y-78973200D01*
X166840383Y-78974510D01*
G37*
D13*
X169116000Y-69596000D03*
D14*
X169116000Y-72136000D03*
X169116000Y-74676000D03*
X169116000Y-77216000D03*
X169116000Y-79756000D03*
X169116000Y-82296000D03*
D13*
X163000000Y-61460000D03*
D14*
X163000000Y-64000000D03*
X163000000Y-66540000D03*
D15*
X168000000Y-119000000D03*
X168000000Y-63000000D03*
X133000000Y-119000000D03*
X133000000Y-63000000D03*
D13*
X155650000Y-105810000D03*
D14*
X158190000Y-105810000D03*
D13*
X165810000Y-105810000D03*
D14*
X168350000Y-105810000D03*
D16*
X153110000Y-98190000D03*
X153110000Y-95650000D03*
D13*
X153110000Y-93110000D03*
D16*
X165810000Y-85490000D03*
D13*
X168350000Y-85490000D03*
X163270000Y-85490000D03*
D17*
X144000000Y-60400000D03*
X144000000Y-61500000D03*
X144000000Y-62600000D03*
X144000000Y-63700000D03*
X144000000Y-64800000D03*
X144000000Y-65900000D03*
X144000000Y-67000000D03*
X144000000Y-68100000D03*
X144000000Y-69200000D03*
X144000000Y-70300000D03*
X144000000Y-71400000D03*
X144000000Y-72500000D03*
X144000000Y-73600000D03*
X144000000Y-74700000D03*
X144000000Y-75800000D03*
X144000000Y-76900000D03*
X144000000Y-78000000D03*
D18*
X146000000Y-80000000D03*
X147200000Y-80000000D03*
X148400000Y-80000000D03*
X149600000Y-80000000D03*
X150800000Y-80000000D03*
X152000000Y-80000000D03*
X153200000Y-80000000D03*
X154400000Y-80000000D03*
X155600000Y-80000000D03*
D17*
X157500000Y-60400000D03*
X157500000Y-61500000D03*
X157500000Y-62600000D03*
X157500000Y-63700000D03*
X157500000Y-64800000D03*
X157500000Y-65900000D03*
X157500000Y-67000000D03*
X157500000Y-68100000D03*
X157500000Y-69200000D03*
X157500000Y-70300000D03*
X157500000Y-71400000D03*
X157500000Y-72500000D03*
X157500000Y-73600000D03*
X157500000Y-74700000D03*
X157500000Y-75800000D03*
X157500000Y-76900000D03*
X157500000Y-78000000D03*
D19*
X146238000Y-84614000D03*
X144338000Y-84614000D03*
X145288000Y-86614000D03*
D10*
G36*
X150494383Y-83832510D02*
G01*
X150520795Y-83836428D01*
X150546696Y-83842916D01*
X150571837Y-83851911D01*
X150595974Y-83863328D01*
X150618877Y-83877055D01*
X150640324Y-83892961D01*
X150660108Y-83910892D01*
X150678039Y-83930676D01*
X150693945Y-83952123D01*
X150707672Y-83975026D01*
X150719089Y-83999163D01*
X150728084Y-84024304D01*
X150734572Y-84050205D01*
X150738490Y-84076617D01*
X150739800Y-84103286D01*
X150739800Y-85060714D01*
X150738490Y-85087383D01*
X150734572Y-85113795D01*
X150728084Y-85139696D01*
X150719089Y-85164837D01*
X150707672Y-85188974D01*
X150693945Y-85211877D01*
X150678039Y-85233324D01*
X150660108Y-85253108D01*
X150640324Y-85271039D01*
X150618877Y-85286945D01*
X150595974Y-85300672D01*
X150571837Y-85312089D01*
X150546696Y-85321084D01*
X150520795Y-85327572D01*
X150494383Y-85331490D01*
X150467714Y-85332800D01*
X149760286Y-85332800D01*
X149733617Y-85331490D01*
X149707205Y-85327572D01*
X149681304Y-85321084D01*
X149656163Y-85312089D01*
X149632026Y-85300672D01*
X149609123Y-85286945D01*
X149587676Y-85271039D01*
X149567892Y-85253108D01*
X149549961Y-85233324D01*
X149534055Y-85211877D01*
X149520328Y-85188974D01*
X149508911Y-85164837D01*
X149499916Y-85139696D01*
X149493428Y-85113795D01*
X149489510Y-85087383D01*
X149488200Y-85060714D01*
X149488200Y-84103286D01*
X149489510Y-84076617D01*
X149493428Y-84050205D01*
X149499916Y-84024304D01*
X149508911Y-83999163D01*
X149520328Y-83975026D01*
X149534055Y-83952123D01*
X149549961Y-83930676D01*
X149567892Y-83910892D01*
X149587676Y-83892961D01*
X149609123Y-83877055D01*
X149632026Y-83863328D01*
X149656163Y-83851911D01*
X149681304Y-83842916D01*
X149707205Y-83836428D01*
X149733617Y-83832510D01*
X149760286Y-83831200D01*
X150467714Y-83831200D01*
X150494383Y-83832510D01*
G37*
G36*
X148444383Y-83832510D02*
G01*
X148470795Y-83836428D01*
X148496696Y-83842916D01*
X148521837Y-83851911D01*
X148545974Y-83863328D01*
X148568877Y-83877055D01*
X148590324Y-83892961D01*
X148610108Y-83910892D01*
X148628039Y-83930676D01*
X148643945Y-83952123D01*
X148657672Y-83975026D01*
X148669089Y-83999163D01*
X148678084Y-84024304D01*
X148684572Y-84050205D01*
X148688490Y-84076617D01*
X148689800Y-84103286D01*
X148689800Y-85060714D01*
X148688490Y-85087383D01*
X148684572Y-85113795D01*
X148678084Y-85139696D01*
X148669089Y-85164837D01*
X148657672Y-85188974D01*
X148643945Y-85211877D01*
X148628039Y-85233324D01*
X148610108Y-85253108D01*
X148590324Y-85271039D01*
X148568877Y-85286945D01*
X148545974Y-85300672D01*
X148521837Y-85312089D01*
X148496696Y-85321084D01*
X148470795Y-85327572D01*
X148444383Y-85331490D01*
X148417714Y-85332800D01*
X147710286Y-85332800D01*
X147683617Y-85331490D01*
X147657205Y-85327572D01*
X147631304Y-85321084D01*
X147606163Y-85312089D01*
X147582026Y-85300672D01*
X147559123Y-85286945D01*
X147537676Y-85271039D01*
X147517892Y-85253108D01*
X147499961Y-85233324D01*
X147484055Y-85211877D01*
X147470328Y-85188974D01*
X147458911Y-85164837D01*
X147449916Y-85139696D01*
X147443428Y-85113795D01*
X147439510Y-85087383D01*
X147438200Y-85060714D01*
X147438200Y-84103286D01*
X147439510Y-84076617D01*
X147443428Y-84050205D01*
X147449916Y-84024304D01*
X147458911Y-83999163D01*
X147470328Y-83975026D01*
X147484055Y-83952123D01*
X147499961Y-83930676D01*
X147517892Y-83910892D01*
X147537676Y-83892961D01*
X147559123Y-83877055D01*
X147582026Y-83863328D01*
X147606163Y-83851911D01*
X147631304Y-83842916D01*
X147657205Y-83836428D01*
X147683617Y-83832510D01*
X147710286Y-83831200D01*
X148417714Y-83831200D01*
X148444383Y-83832510D01*
G37*
G36*
X148462383Y-85864510D02*
G01*
X148488795Y-85868428D01*
X148514696Y-85874916D01*
X148539837Y-85883911D01*
X148563974Y-85895328D01*
X148586877Y-85909055D01*
X148608324Y-85924961D01*
X148628108Y-85942892D01*
X148646039Y-85962676D01*
X148661945Y-85984123D01*
X148675672Y-86007026D01*
X148687089Y-86031163D01*
X148696084Y-86056304D01*
X148702572Y-86082205D01*
X148706490Y-86108617D01*
X148707800Y-86135286D01*
X148707800Y-87092714D01*
X148706490Y-87119383D01*
X148702572Y-87145795D01*
X148696084Y-87171696D01*
X148687089Y-87196837D01*
X148675672Y-87220974D01*
X148661945Y-87243877D01*
X148646039Y-87265324D01*
X148628108Y-87285108D01*
X148608324Y-87303039D01*
X148586877Y-87318945D01*
X148563974Y-87332672D01*
X148539837Y-87344089D01*
X148514696Y-87353084D01*
X148488795Y-87359572D01*
X148462383Y-87363490D01*
X148435714Y-87364800D01*
X147728286Y-87364800D01*
X147701617Y-87363490D01*
X147675205Y-87359572D01*
X147649304Y-87353084D01*
X147624163Y-87344089D01*
X147600026Y-87332672D01*
X147577123Y-87318945D01*
X147555676Y-87303039D01*
X147535892Y-87285108D01*
X147517961Y-87265324D01*
X147502055Y-87243877D01*
X147488328Y-87220974D01*
X147476911Y-87196837D01*
X147467916Y-87171696D01*
X147461428Y-87145795D01*
X147457510Y-87119383D01*
X147456200Y-87092714D01*
X147456200Y-86135286D01*
X147457510Y-86108617D01*
X147461428Y-86082205D01*
X147467916Y-86056304D01*
X147476911Y-86031163D01*
X147488328Y-86007026D01*
X147502055Y-85984123D01*
X147517961Y-85962676D01*
X147535892Y-85942892D01*
X147555676Y-85924961D01*
X147577123Y-85909055D01*
X147600026Y-85895328D01*
X147624163Y-85883911D01*
X147649304Y-85874916D01*
X147675205Y-85868428D01*
X147701617Y-85864510D01*
X147728286Y-85863200D01*
X148435714Y-85863200D01*
X148462383Y-85864510D01*
G37*
G36*
X150512383Y-85864510D02*
G01*
X150538795Y-85868428D01*
X150564696Y-85874916D01*
X150589837Y-85883911D01*
X150613974Y-85895328D01*
X150636877Y-85909055D01*
X150658324Y-85924961D01*
X150678108Y-85942892D01*
X150696039Y-85962676D01*
X150711945Y-85984123D01*
X150725672Y-86007026D01*
X150737089Y-86031163D01*
X150746084Y-86056304D01*
X150752572Y-86082205D01*
X150756490Y-86108617D01*
X150757800Y-86135286D01*
X150757800Y-87092714D01*
X150756490Y-87119383D01*
X150752572Y-87145795D01*
X150746084Y-87171696D01*
X150737089Y-87196837D01*
X150725672Y-87220974D01*
X150711945Y-87243877D01*
X150696039Y-87265324D01*
X150678108Y-87285108D01*
X150658324Y-87303039D01*
X150636877Y-87318945D01*
X150613974Y-87332672D01*
X150589837Y-87344089D01*
X150564696Y-87353084D01*
X150538795Y-87359572D01*
X150512383Y-87363490D01*
X150485714Y-87364800D01*
X149778286Y-87364800D01*
X149751617Y-87363490D01*
X149725205Y-87359572D01*
X149699304Y-87353084D01*
X149674163Y-87344089D01*
X149650026Y-87332672D01*
X149627123Y-87318945D01*
X149605676Y-87303039D01*
X149585892Y-87285108D01*
X149567961Y-87265324D01*
X149552055Y-87243877D01*
X149538328Y-87220974D01*
X149526911Y-87196837D01*
X149517916Y-87171696D01*
X149511428Y-87145795D01*
X149507510Y-87119383D01*
X149506200Y-87092714D01*
X149506200Y-86135286D01*
X149507510Y-86108617D01*
X149511428Y-86082205D01*
X149517916Y-86056304D01*
X149526911Y-86031163D01*
X149538328Y-86007026D01*
X149552055Y-85984123D01*
X149567961Y-85962676D01*
X149585892Y-85942892D01*
X149605676Y-85924961D01*
X149627123Y-85909055D01*
X149650026Y-85895328D01*
X149674163Y-85883911D01*
X149699304Y-85874916D01*
X149725205Y-85868428D01*
X149751617Y-85864510D01*
X149778286Y-85863200D01*
X150485714Y-85863200D01*
X150512383Y-85864510D01*
G37*
G36*
X144643383Y-81800510D02*
G01*
X144669795Y-81804428D01*
X144695696Y-81810916D01*
X144720837Y-81819911D01*
X144744974Y-81831328D01*
X144767877Y-81845055D01*
X144789324Y-81860961D01*
X144809108Y-81878892D01*
X144827039Y-81898676D01*
X144842945Y-81920123D01*
X144856672Y-81943026D01*
X144868089Y-81967163D01*
X144877084Y-81992304D01*
X144883572Y-82018205D01*
X144887490Y-82044617D01*
X144888800Y-82071286D01*
X144888800Y-83028714D01*
X144887490Y-83055383D01*
X144883572Y-83081795D01*
X144877084Y-83107696D01*
X144868089Y-83132837D01*
X144856672Y-83156974D01*
X144842945Y-83179877D01*
X144827039Y-83201324D01*
X144809108Y-83221108D01*
X144789324Y-83239039D01*
X144767877Y-83254945D01*
X144744974Y-83268672D01*
X144720837Y-83280089D01*
X144695696Y-83289084D01*
X144669795Y-83295572D01*
X144643383Y-83299490D01*
X144616714Y-83300800D01*
X143909286Y-83300800D01*
X143882617Y-83299490D01*
X143856205Y-83295572D01*
X143830304Y-83289084D01*
X143805163Y-83280089D01*
X143781026Y-83268672D01*
X143758123Y-83254945D01*
X143736676Y-83239039D01*
X143716892Y-83221108D01*
X143698961Y-83201324D01*
X143683055Y-83179877D01*
X143669328Y-83156974D01*
X143657911Y-83132837D01*
X143648916Y-83107696D01*
X143642428Y-83081795D01*
X143638510Y-83055383D01*
X143637200Y-83028714D01*
X143637200Y-82071286D01*
X143638510Y-82044617D01*
X143642428Y-82018205D01*
X143648916Y-81992304D01*
X143657911Y-81967163D01*
X143669328Y-81943026D01*
X143683055Y-81920123D01*
X143698961Y-81898676D01*
X143716892Y-81878892D01*
X143736676Y-81860961D01*
X143758123Y-81845055D01*
X143781026Y-81831328D01*
X143805163Y-81819911D01*
X143830304Y-81810916D01*
X143856205Y-81804428D01*
X143882617Y-81800510D01*
X143909286Y-81799200D01*
X144616714Y-81799200D01*
X144643383Y-81800510D01*
G37*
G36*
X146693383Y-81800510D02*
G01*
X146719795Y-81804428D01*
X146745696Y-81810916D01*
X146770837Y-81819911D01*
X146794974Y-81831328D01*
X146817877Y-81845055D01*
X146839324Y-81860961D01*
X146859108Y-81878892D01*
X146877039Y-81898676D01*
X146892945Y-81920123D01*
X146906672Y-81943026D01*
X146918089Y-81967163D01*
X146927084Y-81992304D01*
X146933572Y-82018205D01*
X146937490Y-82044617D01*
X146938800Y-82071286D01*
X146938800Y-83028714D01*
X146937490Y-83055383D01*
X146933572Y-83081795D01*
X146927084Y-83107696D01*
X146918089Y-83132837D01*
X146906672Y-83156974D01*
X146892945Y-83179877D01*
X146877039Y-83201324D01*
X146859108Y-83221108D01*
X146839324Y-83239039D01*
X146817877Y-83254945D01*
X146794974Y-83268672D01*
X146770837Y-83280089D01*
X146745696Y-83289084D01*
X146719795Y-83295572D01*
X146693383Y-83299490D01*
X146666714Y-83300800D01*
X145959286Y-83300800D01*
X145932617Y-83299490D01*
X145906205Y-83295572D01*
X145880304Y-83289084D01*
X145855163Y-83280089D01*
X145831026Y-83268672D01*
X145808123Y-83254945D01*
X145786676Y-83239039D01*
X145766892Y-83221108D01*
X145748961Y-83201324D01*
X145733055Y-83179877D01*
X145719328Y-83156974D01*
X145707911Y-83132837D01*
X145698916Y-83107696D01*
X145692428Y-83081795D01*
X145688510Y-83055383D01*
X145687200Y-83028714D01*
X145687200Y-82071286D01*
X145688510Y-82044617D01*
X145692428Y-82018205D01*
X145698916Y-81992304D01*
X145707911Y-81967163D01*
X145719328Y-81943026D01*
X145733055Y-81920123D01*
X145748961Y-81898676D01*
X145766892Y-81878892D01*
X145786676Y-81860961D01*
X145808123Y-81845055D01*
X145831026Y-81831328D01*
X145855163Y-81819911D01*
X145880304Y-81810916D01*
X145906205Y-81804428D01*
X145932617Y-81800510D01*
X145959286Y-81799200D01*
X146666714Y-81799200D01*
X146693383Y-81800510D01*
G37*
G36*
X150512383Y-81800510D02*
G01*
X150538795Y-81804428D01*
X150564696Y-81810916D01*
X150589837Y-81819911D01*
X150613974Y-81831328D01*
X150636877Y-81845055D01*
X150658324Y-81860961D01*
X150678108Y-81878892D01*
X150696039Y-81898676D01*
X150711945Y-81920123D01*
X150725672Y-81943026D01*
X150737089Y-81967163D01*
X150746084Y-81992304D01*
X150752572Y-82018205D01*
X150756490Y-82044617D01*
X150757800Y-82071286D01*
X150757800Y-83028714D01*
X150756490Y-83055383D01*
X150752572Y-83081795D01*
X150746084Y-83107696D01*
X150737089Y-83132837D01*
X150725672Y-83156974D01*
X150711945Y-83179877D01*
X150696039Y-83201324D01*
X150678108Y-83221108D01*
X150658324Y-83239039D01*
X150636877Y-83254945D01*
X150613974Y-83268672D01*
X150589837Y-83280089D01*
X150564696Y-83289084D01*
X150538795Y-83295572D01*
X150512383Y-83299490D01*
X150485714Y-83300800D01*
X149778286Y-83300800D01*
X149751617Y-83299490D01*
X149725205Y-83295572D01*
X149699304Y-83289084D01*
X149674163Y-83280089D01*
X149650026Y-83268672D01*
X149627123Y-83254945D01*
X149605676Y-83239039D01*
X149585892Y-83221108D01*
X149567961Y-83201324D01*
X149552055Y-83179877D01*
X149538328Y-83156974D01*
X149526911Y-83132837D01*
X149517916Y-83107696D01*
X149511428Y-83081795D01*
X149507510Y-83055383D01*
X149506200Y-83028714D01*
X149506200Y-82071286D01*
X149507510Y-82044617D01*
X149511428Y-82018205D01*
X149517916Y-81992304D01*
X149526911Y-81967163D01*
X149538328Y-81943026D01*
X149552055Y-81920123D01*
X149567961Y-81898676D01*
X149585892Y-81878892D01*
X149605676Y-81860961D01*
X149627123Y-81845055D01*
X149650026Y-81831328D01*
X149674163Y-81819911D01*
X149699304Y-81810916D01*
X149725205Y-81804428D01*
X149751617Y-81800510D01*
X149778286Y-81799200D01*
X150485714Y-81799200D01*
X150512383Y-81800510D01*
G37*
G36*
X148462383Y-81800510D02*
G01*
X148488795Y-81804428D01*
X148514696Y-81810916D01*
X148539837Y-81819911D01*
X148563974Y-81831328D01*
X148586877Y-81845055D01*
X148608324Y-81860961D01*
X148628108Y-81878892D01*
X148646039Y-81898676D01*
X148661945Y-81920123D01*
X148675672Y-81943026D01*
X148687089Y-81967163D01*
X148696084Y-81992304D01*
X148702572Y-82018205D01*
X148706490Y-82044617D01*
X148707800Y-82071286D01*
X148707800Y-83028714D01*
X148706490Y-83055383D01*
X148702572Y-83081795D01*
X148696084Y-83107696D01*
X148687089Y-83132837D01*
X148675672Y-83156974D01*
X148661945Y-83179877D01*
X148646039Y-83201324D01*
X148628108Y-83221108D01*
X148608324Y-83239039D01*
X148586877Y-83254945D01*
X148563974Y-83268672D01*
X148539837Y-83280089D01*
X148514696Y-83289084D01*
X148488795Y-83295572D01*
X148462383Y-83299490D01*
X148435714Y-83300800D01*
X147728286Y-83300800D01*
X147701617Y-83299490D01*
X147675205Y-83295572D01*
X147649304Y-83289084D01*
X147624163Y-83280089D01*
X147600026Y-83268672D01*
X147577123Y-83254945D01*
X147555676Y-83239039D01*
X147535892Y-83221108D01*
X147517961Y-83201324D01*
X147502055Y-83179877D01*
X147488328Y-83156974D01*
X147476911Y-83132837D01*
X147467916Y-83107696D01*
X147461428Y-83081795D01*
X147457510Y-83055383D01*
X147456200Y-83028714D01*
X147456200Y-82071286D01*
X147457510Y-82044617D01*
X147461428Y-82018205D01*
X147467916Y-81992304D01*
X147476911Y-81967163D01*
X147488328Y-81943026D01*
X147502055Y-81920123D01*
X147517961Y-81898676D01*
X147535892Y-81878892D01*
X147555676Y-81860961D01*
X147577123Y-81845055D01*
X147600026Y-81831328D01*
X147624163Y-81819911D01*
X147649304Y-81810916D01*
X147675205Y-81804428D01*
X147701617Y-81800510D01*
X147728286Y-81799200D01*
X148435714Y-81799200D01*
X148462383Y-81800510D01*
G37*
D20*
X147796000Y-102235000D03*
D21*
X145796000Y-102235000D03*
D10*
G36*
X137416383Y-76840510D02*
G01*
X137442795Y-76844428D01*
X137468696Y-76850916D01*
X137493837Y-76859911D01*
X137517974Y-76871328D01*
X137540877Y-76885055D01*
X137562324Y-76900961D01*
X137582108Y-76918892D01*
X137600039Y-76938676D01*
X137615945Y-76960123D01*
X137629672Y-76983026D01*
X137641089Y-77007163D01*
X137650084Y-77032304D01*
X137656572Y-77058205D01*
X137660490Y-77084617D01*
X137661800Y-77111286D01*
X137661800Y-78068714D01*
X137660490Y-78095383D01*
X137656572Y-78121795D01*
X137650084Y-78147696D01*
X137641089Y-78172837D01*
X137629672Y-78196974D01*
X137615945Y-78219877D01*
X137600039Y-78241324D01*
X137582108Y-78261108D01*
X137562324Y-78279039D01*
X137540877Y-78294945D01*
X137517974Y-78308672D01*
X137493837Y-78320089D01*
X137468696Y-78329084D01*
X137442795Y-78335572D01*
X137416383Y-78339490D01*
X137389714Y-78340800D01*
X136682286Y-78340800D01*
X136655617Y-78339490D01*
X136629205Y-78335572D01*
X136603304Y-78329084D01*
X136578163Y-78320089D01*
X136554026Y-78308672D01*
X136531123Y-78294945D01*
X136509676Y-78279039D01*
X136489892Y-78261108D01*
X136471961Y-78241324D01*
X136456055Y-78219877D01*
X136442328Y-78196974D01*
X136430911Y-78172837D01*
X136421916Y-78147696D01*
X136415428Y-78121795D01*
X136411510Y-78095383D01*
X136410200Y-78068714D01*
X136410200Y-77111286D01*
X136411510Y-77084617D01*
X136415428Y-77058205D01*
X136421916Y-77032304D01*
X136430911Y-77007163D01*
X136442328Y-76983026D01*
X136456055Y-76960123D01*
X136471961Y-76938676D01*
X136489892Y-76918892D01*
X136509676Y-76900961D01*
X136531123Y-76885055D01*
X136554026Y-76871328D01*
X136578163Y-76859911D01*
X136603304Y-76850916D01*
X136629205Y-76844428D01*
X136655617Y-76840510D01*
X136682286Y-76839200D01*
X137389714Y-76839200D01*
X137416383Y-76840510D01*
G37*
G36*
X135366383Y-76840510D02*
G01*
X135392795Y-76844428D01*
X135418696Y-76850916D01*
X135443837Y-76859911D01*
X135467974Y-76871328D01*
X135490877Y-76885055D01*
X135512324Y-76900961D01*
X135532108Y-76918892D01*
X135550039Y-76938676D01*
X135565945Y-76960123D01*
X135579672Y-76983026D01*
X135591089Y-77007163D01*
X135600084Y-77032304D01*
X135606572Y-77058205D01*
X135610490Y-77084617D01*
X135611800Y-77111286D01*
X135611800Y-78068714D01*
X135610490Y-78095383D01*
X135606572Y-78121795D01*
X135600084Y-78147696D01*
X135591089Y-78172837D01*
X135579672Y-78196974D01*
X135565945Y-78219877D01*
X135550039Y-78241324D01*
X135532108Y-78261108D01*
X135512324Y-78279039D01*
X135490877Y-78294945D01*
X135467974Y-78308672D01*
X135443837Y-78320089D01*
X135418696Y-78329084D01*
X135392795Y-78335572D01*
X135366383Y-78339490D01*
X135339714Y-78340800D01*
X134632286Y-78340800D01*
X134605617Y-78339490D01*
X134579205Y-78335572D01*
X134553304Y-78329084D01*
X134528163Y-78320089D01*
X134504026Y-78308672D01*
X134481123Y-78294945D01*
X134459676Y-78279039D01*
X134439892Y-78261108D01*
X134421961Y-78241324D01*
X134406055Y-78219877D01*
X134392328Y-78196974D01*
X134380911Y-78172837D01*
X134371916Y-78147696D01*
X134365428Y-78121795D01*
X134361510Y-78095383D01*
X134360200Y-78068714D01*
X134360200Y-77111286D01*
X134361510Y-77084617D01*
X134365428Y-77058205D01*
X134371916Y-77032304D01*
X134380911Y-77007163D01*
X134392328Y-76983026D01*
X134406055Y-76960123D01*
X134421961Y-76938676D01*
X134439892Y-76918892D01*
X134459676Y-76900961D01*
X134481123Y-76885055D01*
X134504026Y-76871328D01*
X134528163Y-76859911D01*
X134553304Y-76850916D01*
X134579205Y-76844428D01*
X134605617Y-76840510D01*
X134632286Y-76839200D01*
X135339714Y-76839200D01*
X135366383Y-76840510D01*
G37*
D21*
X140081000Y-102235000D03*
D20*
X142081000Y-102235000D03*
D21*
X140081000Y-96520000D03*
D20*
X142081000Y-96520000D03*
D21*
X146177000Y-95885000D03*
D20*
X148677000Y-95885000D03*
D10*
G36*
X142237383Y-74051510D02*
G01*
X142263795Y-74055428D01*
X142289696Y-74061916D01*
X142314837Y-74070911D01*
X142338974Y-74082328D01*
X142361877Y-74096055D01*
X142383324Y-74111961D01*
X142403108Y-74129892D01*
X142421039Y-74149676D01*
X142436945Y-74171123D01*
X142450672Y-74194026D01*
X142462089Y-74218163D01*
X142471084Y-74243304D01*
X142477572Y-74269205D01*
X142481490Y-74295617D01*
X142482800Y-74322286D01*
X142482800Y-75029714D01*
X142481490Y-75056383D01*
X142477572Y-75082795D01*
X142471084Y-75108696D01*
X142462089Y-75133837D01*
X142450672Y-75157974D01*
X142436945Y-75180877D01*
X142421039Y-75202324D01*
X142403108Y-75222108D01*
X142383324Y-75240039D01*
X142361877Y-75255945D01*
X142338974Y-75269672D01*
X142314837Y-75281089D01*
X142289696Y-75290084D01*
X142263795Y-75296572D01*
X142237383Y-75300490D01*
X142210714Y-75301800D01*
X141253286Y-75301800D01*
X141226617Y-75300490D01*
X141200205Y-75296572D01*
X141174304Y-75290084D01*
X141149163Y-75281089D01*
X141125026Y-75269672D01*
X141102123Y-75255945D01*
X141080676Y-75240039D01*
X141060892Y-75222108D01*
X141042961Y-75202324D01*
X141027055Y-75180877D01*
X141013328Y-75157974D01*
X141001911Y-75133837D01*
X140992916Y-75108696D01*
X140986428Y-75082795D01*
X140982510Y-75056383D01*
X140981200Y-75029714D01*
X140981200Y-74322286D01*
X140982510Y-74295617D01*
X140986428Y-74269205D01*
X140992916Y-74243304D01*
X141001911Y-74218163D01*
X141013328Y-74194026D01*
X141027055Y-74171123D01*
X141042961Y-74149676D01*
X141060892Y-74129892D01*
X141080676Y-74111961D01*
X141102123Y-74096055D01*
X141125026Y-74082328D01*
X141149163Y-74070911D01*
X141174304Y-74061916D01*
X141200205Y-74055428D01*
X141226617Y-74051510D01*
X141253286Y-74050200D01*
X142210714Y-74050200D01*
X142237383Y-74051510D01*
G37*
G36*
X142237383Y-72001510D02*
G01*
X142263795Y-72005428D01*
X142289696Y-72011916D01*
X142314837Y-72020911D01*
X142338974Y-72032328D01*
X142361877Y-72046055D01*
X142383324Y-72061961D01*
X142403108Y-72079892D01*
X142421039Y-72099676D01*
X142436945Y-72121123D01*
X142450672Y-72144026D01*
X142462089Y-72168163D01*
X142471084Y-72193304D01*
X142477572Y-72219205D01*
X142481490Y-72245617D01*
X142482800Y-72272286D01*
X142482800Y-72979714D01*
X142481490Y-73006383D01*
X142477572Y-73032795D01*
X142471084Y-73058696D01*
X142462089Y-73083837D01*
X142450672Y-73107974D01*
X142436945Y-73130877D01*
X142421039Y-73152324D01*
X142403108Y-73172108D01*
X142383324Y-73190039D01*
X142361877Y-73205945D01*
X142338974Y-73219672D01*
X142314837Y-73231089D01*
X142289696Y-73240084D01*
X142263795Y-73246572D01*
X142237383Y-73250490D01*
X142210714Y-73251800D01*
X141253286Y-73251800D01*
X141226617Y-73250490D01*
X141200205Y-73246572D01*
X141174304Y-73240084D01*
X141149163Y-73231089D01*
X141125026Y-73219672D01*
X141102123Y-73205945D01*
X141080676Y-73190039D01*
X141060892Y-73172108D01*
X141042961Y-73152324D01*
X141027055Y-73130877D01*
X141013328Y-73107974D01*
X141001911Y-73083837D01*
X140992916Y-73058696D01*
X140986428Y-73032795D01*
X140982510Y-73006383D01*
X140981200Y-72979714D01*
X140981200Y-72272286D01*
X140982510Y-72245617D01*
X140986428Y-72219205D01*
X140992916Y-72193304D01*
X141001911Y-72168163D01*
X141013328Y-72144026D01*
X141027055Y-72121123D01*
X141042961Y-72099676D01*
X141060892Y-72079892D01*
X141080676Y-72061961D01*
X141102123Y-72046055D01*
X141125026Y-72032328D01*
X141149163Y-72020911D01*
X141174304Y-72011916D01*
X141200205Y-72005428D01*
X141226617Y-72001510D01*
X141253286Y-72000200D01*
X142210714Y-72000200D01*
X142237383Y-72001510D01*
G37*
G36*
X142237383Y-76337510D02*
G01*
X142263795Y-76341428D01*
X142289696Y-76347916D01*
X142314837Y-76356911D01*
X142338974Y-76368328D01*
X142361877Y-76382055D01*
X142383324Y-76397961D01*
X142403108Y-76415892D01*
X142421039Y-76435676D01*
X142436945Y-76457123D01*
X142450672Y-76480026D01*
X142462089Y-76504163D01*
X142471084Y-76529304D01*
X142477572Y-76555205D01*
X142481490Y-76581617D01*
X142482800Y-76608286D01*
X142482800Y-77315714D01*
X142481490Y-77342383D01*
X142477572Y-77368795D01*
X142471084Y-77394696D01*
X142462089Y-77419837D01*
X142450672Y-77443974D01*
X142436945Y-77466877D01*
X142421039Y-77488324D01*
X142403108Y-77508108D01*
X142383324Y-77526039D01*
X142361877Y-77541945D01*
X142338974Y-77555672D01*
X142314837Y-77567089D01*
X142289696Y-77576084D01*
X142263795Y-77582572D01*
X142237383Y-77586490D01*
X142210714Y-77587800D01*
X141253286Y-77587800D01*
X141226617Y-77586490D01*
X141200205Y-77582572D01*
X141174304Y-77576084D01*
X141149163Y-77567089D01*
X141125026Y-77555672D01*
X141102123Y-77541945D01*
X141080676Y-77526039D01*
X141060892Y-77508108D01*
X141042961Y-77488324D01*
X141027055Y-77466877D01*
X141013328Y-77443974D01*
X141001911Y-77419837D01*
X140992916Y-77394696D01*
X140986428Y-77368795D01*
X140982510Y-77342383D01*
X140981200Y-77315714D01*
X140981200Y-76608286D01*
X140982510Y-76581617D01*
X140986428Y-76555205D01*
X140992916Y-76529304D01*
X141001911Y-76504163D01*
X141013328Y-76480026D01*
X141027055Y-76457123D01*
X141042961Y-76435676D01*
X141060892Y-76415892D01*
X141080676Y-76397961D01*
X141102123Y-76382055D01*
X141125026Y-76368328D01*
X141149163Y-76356911D01*
X141174304Y-76347916D01*
X141200205Y-76341428D01*
X141226617Y-76337510D01*
X141253286Y-76336200D01*
X142210714Y-76336200D01*
X142237383Y-76337510D01*
G37*
G36*
X142237383Y-78387510D02*
G01*
X142263795Y-78391428D01*
X142289696Y-78397916D01*
X142314837Y-78406911D01*
X142338974Y-78418328D01*
X142361877Y-78432055D01*
X142383324Y-78447961D01*
X142403108Y-78465892D01*
X142421039Y-78485676D01*
X142436945Y-78507123D01*
X142450672Y-78530026D01*
X142462089Y-78554163D01*
X142471084Y-78579304D01*
X142477572Y-78605205D01*
X142481490Y-78631617D01*
X142482800Y-78658286D01*
X142482800Y-79365714D01*
X142481490Y-79392383D01*
X142477572Y-79418795D01*
X142471084Y-79444696D01*
X142462089Y-79469837D01*
X142450672Y-79493974D01*
X142436945Y-79516877D01*
X142421039Y-79538324D01*
X142403108Y-79558108D01*
X142383324Y-79576039D01*
X142361877Y-79591945D01*
X142338974Y-79605672D01*
X142314837Y-79617089D01*
X142289696Y-79626084D01*
X142263795Y-79632572D01*
X142237383Y-79636490D01*
X142210714Y-79637800D01*
X141253286Y-79637800D01*
X141226617Y-79636490D01*
X141200205Y-79632572D01*
X141174304Y-79626084D01*
X141149163Y-79617089D01*
X141125026Y-79605672D01*
X141102123Y-79591945D01*
X141080676Y-79576039D01*
X141060892Y-79558108D01*
X141042961Y-79538324D01*
X141027055Y-79516877D01*
X141013328Y-79493974D01*
X141001911Y-79469837D01*
X140992916Y-79444696D01*
X140986428Y-79418795D01*
X140982510Y-79392383D01*
X140981200Y-79365714D01*
X140981200Y-78658286D01*
X140982510Y-78631617D01*
X140986428Y-78605205D01*
X140992916Y-78579304D01*
X141001911Y-78554163D01*
X141013328Y-78530026D01*
X141027055Y-78507123D01*
X141042961Y-78485676D01*
X141060892Y-78465892D01*
X141080676Y-78447961D01*
X141102123Y-78432055D01*
X141125026Y-78418328D01*
X141149163Y-78406911D01*
X141174304Y-78397916D01*
X141200205Y-78391428D01*
X141226617Y-78387510D01*
X141253286Y-78386200D01*
X142210714Y-78386200D01*
X142237383Y-78387510D01*
G37*
D13*
X132210000Y-69970000D03*
D14*
X132210000Y-72510000D03*
X132210000Y-75050000D03*
X132210000Y-77590000D03*
D13*
X132210000Y-81400000D03*
D14*
X132210000Y-83940000D03*
X132210000Y-86480000D03*
X132210000Y-89020000D03*
X132210000Y-91560000D03*
D13*
X144526000Y-107442000D03*
D16*
X142026000Y-107442000D03*
X142026000Y-109442000D03*
X144526000Y-109442000D03*
D22*
X149296000Y-112152000D03*
X137256000Y-112152000D03*
D13*
X138938000Y-91948000D03*
D14*
X136398000Y-91948000D03*
D13*
X133000000Y-109000000D03*
D14*
X133000000Y-111540000D03*
D23*
X162814000Y-116840000D03*
D24*
X162314000Y-109540000D03*
D25*
X155714000Y-113940000D03*
X153014000Y-112740000D03*
D24*
X158214000Y-120740000D03*
D10*
G36*
X142237383Y-80655510D02*
G01*
X142263795Y-80659428D01*
X142289696Y-80665916D01*
X142314837Y-80674911D01*
X142338974Y-80686328D01*
X142361877Y-80700055D01*
X142383324Y-80715961D01*
X142403108Y-80733892D01*
X142421039Y-80753676D01*
X142436945Y-80775123D01*
X142450672Y-80798026D01*
X142462089Y-80822163D01*
X142471084Y-80847304D01*
X142477572Y-80873205D01*
X142481490Y-80899617D01*
X142482800Y-80926286D01*
X142482800Y-81633714D01*
X142481490Y-81660383D01*
X142477572Y-81686795D01*
X142471084Y-81712696D01*
X142462089Y-81737837D01*
X142450672Y-81761974D01*
X142436945Y-81784877D01*
X142421039Y-81806324D01*
X142403108Y-81826108D01*
X142383324Y-81844039D01*
X142361877Y-81859945D01*
X142338974Y-81873672D01*
X142314837Y-81885089D01*
X142289696Y-81894084D01*
X142263795Y-81900572D01*
X142237383Y-81904490D01*
X142210714Y-81905800D01*
X141253286Y-81905800D01*
X141226617Y-81904490D01*
X141200205Y-81900572D01*
X141174304Y-81894084D01*
X141149163Y-81885089D01*
X141125026Y-81873672D01*
X141102123Y-81859945D01*
X141080676Y-81844039D01*
X141060892Y-81826108D01*
X141042961Y-81806324D01*
X141027055Y-81784877D01*
X141013328Y-81761974D01*
X141001911Y-81737837D01*
X140992916Y-81712696D01*
X140986428Y-81686795D01*
X140982510Y-81660383D01*
X140981200Y-81633714D01*
X140981200Y-80926286D01*
X140982510Y-80899617D01*
X140986428Y-80873205D01*
X140992916Y-80847304D01*
X141001911Y-80822163D01*
X141013328Y-80798026D01*
X141027055Y-80775123D01*
X141042961Y-80753676D01*
X141060892Y-80733892D01*
X141080676Y-80715961D01*
X141102123Y-80700055D01*
X141125026Y-80686328D01*
X141149163Y-80674911D01*
X141174304Y-80665916D01*
X141200205Y-80659428D01*
X141226617Y-80655510D01*
X141253286Y-80654200D01*
X142210714Y-80654200D01*
X142237383Y-80655510D01*
G37*
G36*
X142237383Y-82705510D02*
G01*
X142263795Y-82709428D01*
X142289696Y-82715916D01*
X142314837Y-82724911D01*
X142338974Y-82736328D01*
X142361877Y-82750055D01*
X142383324Y-82765961D01*
X142403108Y-82783892D01*
X142421039Y-82803676D01*
X142436945Y-82825123D01*
X142450672Y-82848026D01*
X142462089Y-82872163D01*
X142471084Y-82897304D01*
X142477572Y-82923205D01*
X142481490Y-82949617D01*
X142482800Y-82976286D01*
X142482800Y-83683714D01*
X142481490Y-83710383D01*
X142477572Y-83736795D01*
X142471084Y-83762696D01*
X142462089Y-83787837D01*
X142450672Y-83811974D01*
X142436945Y-83834877D01*
X142421039Y-83856324D01*
X142403108Y-83876108D01*
X142383324Y-83894039D01*
X142361877Y-83909945D01*
X142338974Y-83923672D01*
X142314837Y-83935089D01*
X142289696Y-83944084D01*
X142263795Y-83950572D01*
X142237383Y-83954490D01*
X142210714Y-83955800D01*
X141253286Y-83955800D01*
X141226617Y-83954490D01*
X141200205Y-83950572D01*
X141174304Y-83944084D01*
X141149163Y-83935089D01*
X141125026Y-83923672D01*
X141102123Y-83909945D01*
X141080676Y-83894039D01*
X141060892Y-83876108D01*
X141042961Y-83856324D01*
X141027055Y-83834877D01*
X141013328Y-83811974D01*
X141001911Y-83787837D01*
X140992916Y-83762696D01*
X140986428Y-83736795D01*
X140982510Y-83710383D01*
X140981200Y-83683714D01*
X140981200Y-82976286D01*
X140982510Y-82949617D01*
X140986428Y-82923205D01*
X140992916Y-82897304D01*
X141001911Y-82872163D01*
X141013328Y-82848026D01*
X141027055Y-82825123D01*
X141042961Y-82803676D01*
X141060892Y-82783892D01*
X141080676Y-82765961D01*
X141102123Y-82750055D01*
X141125026Y-82736328D01*
X141149163Y-82724911D01*
X141174304Y-82715916D01*
X141200205Y-82709428D01*
X141226617Y-82705510D01*
X141253286Y-82704200D01*
X142210714Y-82704200D01*
X142237383Y-82705510D01*
G37*
G36*
X135384383Y-80650510D02*
G01*
X135410795Y-80654428D01*
X135436696Y-80660916D01*
X135461837Y-80669911D01*
X135485974Y-80681328D01*
X135508877Y-80695055D01*
X135530324Y-80710961D01*
X135550108Y-80728892D01*
X135568039Y-80748676D01*
X135583945Y-80770123D01*
X135597672Y-80793026D01*
X135609089Y-80817163D01*
X135618084Y-80842304D01*
X135624572Y-80868205D01*
X135628490Y-80894617D01*
X135629800Y-80921286D01*
X135629800Y-81878714D01*
X135628490Y-81905383D01*
X135624572Y-81931795D01*
X135618084Y-81957696D01*
X135609089Y-81982837D01*
X135597672Y-82006974D01*
X135583945Y-82029877D01*
X135568039Y-82051324D01*
X135550108Y-82071108D01*
X135530324Y-82089039D01*
X135508877Y-82104945D01*
X135485974Y-82118672D01*
X135461837Y-82130089D01*
X135436696Y-82139084D01*
X135410795Y-82145572D01*
X135384383Y-82149490D01*
X135357714Y-82150800D01*
X134650286Y-82150800D01*
X134623617Y-82149490D01*
X134597205Y-82145572D01*
X134571304Y-82139084D01*
X134546163Y-82130089D01*
X134522026Y-82118672D01*
X134499123Y-82104945D01*
X134477676Y-82089039D01*
X134457892Y-82071108D01*
X134439961Y-82051324D01*
X134424055Y-82029877D01*
X134410328Y-82006974D01*
X134398911Y-81982837D01*
X134389916Y-81957696D01*
X134383428Y-81931795D01*
X134379510Y-81905383D01*
X134378200Y-81878714D01*
X134378200Y-80921286D01*
X134379510Y-80894617D01*
X134383428Y-80868205D01*
X134389916Y-80842304D01*
X134398911Y-80817163D01*
X134410328Y-80793026D01*
X134424055Y-80770123D01*
X134439961Y-80748676D01*
X134457892Y-80728892D01*
X134477676Y-80710961D01*
X134499123Y-80695055D01*
X134522026Y-80681328D01*
X134546163Y-80669911D01*
X134571304Y-80660916D01*
X134597205Y-80654428D01*
X134623617Y-80650510D01*
X134650286Y-80649200D01*
X135357714Y-80649200D01*
X135384383Y-80650510D01*
G37*
G36*
X137434383Y-80650510D02*
G01*
X137460795Y-80654428D01*
X137486696Y-80660916D01*
X137511837Y-80669911D01*
X137535974Y-80681328D01*
X137558877Y-80695055D01*
X137580324Y-80710961D01*
X137600108Y-80728892D01*
X137618039Y-80748676D01*
X137633945Y-80770123D01*
X137647672Y-80793026D01*
X137659089Y-80817163D01*
X137668084Y-80842304D01*
X137674572Y-80868205D01*
X137678490Y-80894617D01*
X137679800Y-80921286D01*
X137679800Y-81878714D01*
X137678490Y-81905383D01*
X137674572Y-81931795D01*
X137668084Y-81957696D01*
X137659089Y-81982837D01*
X137647672Y-82006974D01*
X137633945Y-82029877D01*
X137618039Y-82051324D01*
X137600108Y-82071108D01*
X137580324Y-82089039D01*
X137558877Y-82104945D01*
X137535974Y-82118672D01*
X137511837Y-82130089D01*
X137486696Y-82139084D01*
X137460795Y-82145572D01*
X137434383Y-82149490D01*
X137407714Y-82150800D01*
X136700286Y-82150800D01*
X136673617Y-82149490D01*
X136647205Y-82145572D01*
X136621304Y-82139084D01*
X136596163Y-82130089D01*
X136572026Y-82118672D01*
X136549123Y-82104945D01*
X136527676Y-82089039D01*
X136507892Y-82071108D01*
X136489961Y-82051324D01*
X136474055Y-82029877D01*
X136460328Y-82006974D01*
X136448911Y-81982837D01*
X136439916Y-81957696D01*
X136433428Y-81931795D01*
X136429510Y-81905383D01*
X136428200Y-81878714D01*
X136428200Y-80921286D01*
X136429510Y-80894617D01*
X136433428Y-80868205D01*
X136439916Y-80842304D01*
X136448911Y-80817163D01*
X136460328Y-80793026D01*
X136474055Y-80770123D01*
X136489961Y-80748676D01*
X136507892Y-80728892D01*
X136527676Y-80710961D01*
X136549123Y-80695055D01*
X136572026Y-80681328D01*
X136596163Y-80669911D01*
X136621304Y-80660916D01*
X136647205Y-80654428D01*
X136673617Y-80650510D01*
X136700286Y-80649200D01*
X137407714Y-80649200D01*
X137434383Y-80650510D01*
G37*
G36*
X137416383Y-88270510D02*
G01*
X137442795Y-88274428D01*
X137468696Y-88280916D01*
X137493837Y-88289911D01*
X137517974Y-88301328D01*
X137540877Y-88315055D01*
X137562324Y-88330961D01*
X137582108Y-88348892D01*
X137600039Y-88368676D01*
X137615945Y-88390123D01*
X137629672Y-88413026D01*
X137641089Y-88437163D01*
X137650084Y-88462304D01*
X137656572Y-88488205D01*
X137660490Y-88514617D01*
X137661800Y-88541286D01*
X137661800Y-89498714D01*
X137660490Y-89525383D01*
X137656572Y-89551795D01*
X137650084Y-89577696D01*
X137641089Y-89602837D01*
X137629672Y-89626974D01*
X137615945Y-89649877D01*
X137600039Y-89671324D01*
X137582108Y-89691108D01*
X137562324Y-89709039D01*
X137540877Y-89724945D01*
X137517974Y-89738672D01*
X137493837Y-89750089D01*
X137468696Y-89759084D01*
X137442795Y-89765572D01*
X137416383Y-89769490D01*
X137389714Y-89770800D01*
X136682286Y-89770800D01*
X136655617Y-89769490D01*
X136629205Y-89765572D01*
X136603304Y-89759084D01*
X136578163Y-89750089D01*
X136554026Y-89738672D01*
X136531123Y-89724945D01*
X136509676Y-89709039D01*
X136489892Y-89691108D01*
X136471961Y-89671324D01*
X136456055Y-89649877D01*
X136442328Y-89626974D01*
X136430911Y-89602837D01*
X136421916Y-89577696D01*
X136415428Y-89551795D01*
X136411510Y-89525383D01*
X136410200Y-89498714D01*
X136410200Y-88541286D01*
X136411510Y-88514617D01*
X136415428Y-88488205D01*
X136421916Y-88462304D01*
X136430911Y-88437163D01*
X136442328Y-88413026D01*
X136456055Y-88390123D01*
X136471961Y-88368676D01*
X136489892Y-88348892D01*
X136509676Y-88330961D01*
X136531123Y-88315055D01*
X136554026Y-88301328D01*
X136578163Y-88289911D01*
X136603304Y-88280916D01*
X136629205Y-88274428D01*
X136655617Y-88270510D01*
X136682286Y-88269200D01*
X137389714Y-88269200D01*
X137416383Y-88270510D01*
G37*
G36*
X135366383Y-88270510D02*
G01*
X135392795Y-88274428D01*
X135418696Y-88280916D01*
X135443837Y-88289911D01*
X135467974Y-88301328D01*
X135490877Y-88315055D01*
X135512324Y-88330961D01*
X135532108Y-88348892D01*
X135550039Y-88368676D01*
X135565945Y-88390123D01*
X135579672Y-88413026D01*
X135591089Y-88437163D01*
X135600084Y-88462304D01*
X135606572Y-88488205D01*
X135610490Y-88514617D01*
X135611800Y-88541286D01*
X135611800Y-89498714D01*
X135610490Y-89525383D01*
X135606572Y-89551795D01*
X135600084Y-89577696D01*
X135591089Y-89602837D01*
X135579672Y-89626974D01*
X135565945Y-89649877D01*
X135550039Y-89671324D01*
X135532108Y-89691108D01*
X135512324Y-89709039D01*
X135490877Y-89724945D01*
X135467974Y-89738672D01*
X135443837Y-89750089D01*
X135418696Y-89759084D01*
X135392795Y-89765572D01*
X135366383Y-89769490D01*
X135339714Y-89770800D01*
X134632286Y-89770800D01*
X134605617Y-89769490D01*
X134579205Y-89765572D01*
X134553304Y-89759084D01*
X134528163Y-89750089D01*
X134504026Y-89738672D01*
X134481123Y-89724945D01*
X134459676Y-89709039D01*
X134439892Y-89691108D01*
X134421961Y-89671324D01*
X134406055Y-89649877D01*
X134392328Y-89626974D01*
X134380911Y-89602837D01*
X134371916Y-89577696D01*
X134365428Y-89551795D01*
X134361510Y-89525383D01*
X134360200Y-89498714D01*
X134360200Y-88541286D01*
X134361510Y-88514617D01*
X134365428Y-88488205D01*
X134371916Y-88462304D01*
X134380911Y-88437163D01*
X134392328Y-88413026D01*
X134406055Y-88390123D01*
X134421961Y-88368676D01*
X134439892Y-88348892D01*
X134459676Y-88330961D01*
X134481123Y-88315055D01*
X134504026Y-88301328D01*
X134528163Y-88289911D01*
X134553304Y-88280916D01*
X134579205Y-88274428D01*
X134605617Y-88270510D01*
X134632286Y-88269200D01*
X135339714Y-88269200D01*
X135366383Y-88270510D01*
G37*
G36*
X135384383Y-85730510D02*
G01*
X135410795Y-85734428D01*
X135436696Y-85740916D01*
X135461837Y-85749911D01*
X135485974Y-85761328D01*
X135508877Y-85775055D01*
X135530324Y-85790961D01*
X135550108Y-85808892D01*
X135568039Y-85828676D01*
X135583945Y-85850123D01*
X135597672Y-85873026D01*
X135609089Y-85897163D01*
X135618084Y-85922304D01*
X135624572Y-85948205D01*
X135628490Y-85974617D01*
X135629800Y-86001286D01*
X135629800Y-86958714D01*
X135628490Y-86985383D01*
X135624572Y-87011795D01*
X135618084Y-87037696D01*
X135609089Y-87062837D01*
X135597672Y-87086974D01*
X135583945Y-87109877D01*
X135568039Y-87131324D01*
X135550108Y-87151108D01*
X135530324Y-87169039D01*
X135508877Y-87184945D01*
X135485974Y-87198672D01*
X135461837Y-87210089D01*
X135436696Y-87219084D01*
X135410795Y-87225572D01*
X135384383Y-87229490D01*
X135357714Y-87230800D01*
X134650286Y-87230800D01*
X134623617Y-87229490D01*
X134597205Y-87225572D01*
X134571304Y-87219084D01*
X134546163Y-87210089D01*
X134522026Y-87198672D01*
X134499123Y-87184945D01*
X134477676Y-87169039D01*
X134457892Y-87151108D01*
X134439961Y-87131324D01*
X134424055Y-87109877D01*
X134410328Y-87086974D01*
X134398911Y-87062837D01*
X134389916Y-87037696D01*
X134383428Y-87011795D01*
X134379510Y-86985383D01*
X134378200Y-86958714D01*
X134378200Y-86001286D01*
X134379510Y-85974617D01*
X134383428Y-85948205D01*
X134389916Y-85922304D01*
X134398911Y-85897163D01*
X134410328Y-85873026D01*
X134424055Y-85850123D01*
X134439961Y-85828676D01*
X134457892Y-85808892D01*
X134477676Y-85790961D01*
X134499123Y-85775055D01*
X134522026Y-85761328D01*
X134546163Y-85749911D01*
X134571304Y-85740916D01*
X134597205Y-85734428D01*
X134623617Y-85730510D01*
X134650286Y-85729200D01*
X135357714Y-85729200D01*
X135384383Y-85730510D01*
G37*
G36*
X137434383Y-85730510D02*
G01*
X137460795Y-85734428D01*
X137486696Y-85740916D01*
X137511837Y-85749911D01*
X137535974Y-85761328D01*
X137558877Y-85775055D01*
X137580324Y-85790961D01*
X137600108Y-85808892D01*
X137618039Y-85828676D01*
X137633945Y-85850123D01*
X137647672Y-85873026D01*
X137659089Y-85897163D01*
X137668084Y-85922304D01*
X137674572Y-85948205D01*
X137678490Y-85974617D01*
X137679800Y-86001286D01*
X137679800Y-86958714D01*
X137678490Y-86985383D01*
X137674572Y-87011795D01*
X137668084Y-87037696D01*
X137659089Y-87062837D01*
X137647672Y-87086974D01*
X137633945Y-87109877D01*
X137618039Y-87131324D01*
X137600108Y-87151108D01*
X137580324Y-87169039D01*
X137558877Y-87184945D01*
X137535974Y-87198672D01*
X137511837Y-87210089D01*
X137486696Y-87219084D01*
X137460795Y-87225572D01*
X137434383Y-87229490D01*
X137407714Y-87230800D01*
X136700286Y-87230800D01*
X136673617Y-87229490D01*
X136647205Y-87225572D01*
X136621304Y-87219084D01*
X136596163Y-87210089D01*
X136572026Y-87198672D01*
X136549123Y-87184945D01*
X136527676Y-87169039D01*
X136507892Y-87151108D01*
X136489961Y-87131324D01*
X136474055Y-87109877D01*
X136460328Y-87086974D01*
X136448911Y-87062837D01*
X136439916Y-87037696D01*
X136433428Y-87011795D01*
X136429510Y-86985383D01*
X136428200Y-86958714D01*
X136428200Y-86001286D01*
X136429510Y-85974617D01*
X136433428Y-85948205D01*
X136439916Y-85922304D01*
X136448911Y-85897163D01*
X136460328Y-85873026D01*
X136474055Y-85850123D01*
X136489961Y-85828676D01*
X136507892Y-85808892D01*
X136527676Y-85790961D01*
X136549123Y-85775055D01*
X136572026Y-85761328D01*
X136596163Y-85749911D01*
X136621304Y-85740916D01*
X136647205Y-85734428D01*
X136673617Y-85730510D01*
X136700286Y-85729200D01*
X137407714Y-85729200D01*
X137434383Y-85730510D01*
G37*
G36*
X137434383Y-83190510D02*
G01*
X137460795Y-83194428D01*
X137486696Y-83200916D01*
X137511837Y-83209911D01*
X137535974Y-83221328D01*
X137558877Y-83235055D01*
X137580324Y-83250961D01*
X137600108Y-83268892D01*
X137618039Y-83288676D01*
X137633945Y-83310123D01*
X137647672Y-83333026D01*
X137659089Y-83357163D01*
X137668084Y-83382304D01*
X137674572Y-83408205D01*
X137678490Y-83434617D01*
X137679800Y-83461286D01*
X137679800Y-84418714D01*
X137678490Y-84445383D01*
X137674572Y-84471795D01*
X137668084Y-84497696D01*
X137659089Y-84522837D01*
X137647672Y-84546974D01*
X137633945Y-84569877D01*
X137618039Y-84591324D01*
X137600108Y-84611108D01*
X137580324Y-84629039D01*
X137558877Y-84644945D01*
X137535974Y-84658672D01*
X137511837Y-84670089D01*
X137486696Y-84679084D01*
X137460795Y-84685572D01*
X137434383Y-84689490D01*
X137407714Y-84690800D01*
X136700286Y-84690800D01*
X136673617Y-84689490D01*
X136647205Y-84685572D01*
X136621304Y-84679084D01*
X136596163Y-84670089D01*
X136572026Y-84658672D01*
X136549123Y-84644945D01*
X136527676Y-84629039D01*
X136507892Y-84611108D01*
X136489961Y-84591324D01*
X136474055Y-84569877D01*
X136460328Y-84546974D01*
X136448911Y-84522837D01*
X136439916Y-84497696D01*
X136433428Y-84471795D01*
X136429510Y-84445383D01*
X136428200Y-84418714D01*
X136428200Y-83461286D01*
X136429510Y-83434617D01*
X136433428Y-83408205D01*
X136439916Y-83382304D01*
X136448911Y-83357163D01*
X136460328Y-83333026D01*
X136474055Y-83310123D01*
X136489961Y-83288676D01*
X136507892Y-83268892D01*
X136527676Y-83250961D01*
X136549123Y-83235055D01*
X136572026Y-83221328D01*
X136596163Y-83209911D01*
X136621304Y-83200916D01*
X136647205Y-83194428D01*
X136673617Y-83190510D01*
X136700286Y-83189200D01*
X137407714Y-83189200D01*
X137434383Y-83190510D01*
G37*
G36*
X135384383Y-83190510D02*
G01*
X135410795Y-83194428D01*
X135436696Y-83200916D01*
X135461837Y-83209911D01*
X135485974Y-83221328D01*
X135508877Y-83235055D01*
X135530324Y-83250961D01*
X135550108Y-83268892D01*
X135568039Y-83288676D01*
X135583945Y-83310123D01*
X135597672Y-83333026D01*
X135609089Y-83357163D01*
X135618084Y-83382304D01*
X135624572Y-83408205D01*
X135628490Y-83434617D01*
X135629800Y-83461286D01*
X135629800Y-84418714D01*
X135628490Y-84445383D01*
X135624572Y-84471795D01*
X135618084Y-84497696D01*
X135609089Y-84522837D01*
X135597672Y-84546974D01*
X135583945Y-84569877D01*
X135568039Y-84591324D01*
X135550108Y-84611108D01*
X135530324Y-84629039D01*
X135508877Y-84644945D01*
X135485974Y-84658672D01*
X135461837Y-84670089D01*
X135436696Y-84679084D01*
X135410795Y-84685572D01*
X135384383Y-84689490D01*
X135357714Y-84690800D01*
X134650286Y-84690800D01*
X134623617Y-84689490D01*
X134597205Y-84685572D01*
X134571304Y-84679084D01*
X134546163Y-84670089D01*
X134522026Y-84658672D01*
X134499123Y-84644945D01*
X134477676Y-84629039D01*
X134457892Y-84611108D01*
X134439961Y-84591324D01*
X134424055Y-84569877D01*
X134410328Y-84546974D01*
X134398911Y-84522837D01*
X134389916Y-84497696D01*
X134383428Y-84471795D01*
X134379510Y-84445383D01*
X134378200Y-84418714D01*
X134378200Y-83461286D01*
X134379510Y-83434617D01*
X134383428Y-83408205D01*
X134389916Y-83382304D01*
X134398911Y-83357163D01*
X134410328Y-83333026D01*
X134424055Y-83310123D01*
X134439961Y-83288676D01*
X134457892Y-83268892D01*
X134477676Y-83250961D01*
X134499123Y-83235055D01*
X134522026Y-83221328D01*
X134546163Y-83209911D01*
X134571304Y-83200916D01*
X134597205Y-83194428D01*
X134623617Y-83190510D01*
X134650286Y-83189200D01*
X135357714Y-83189200D01*
X135384383Y-83190510D01*
G37*
G36*
X135366383Y-69220510D02*
G01*
X135392795Y-69224428D01*
X135418696Y-69230916D01*
X135443837Y-69239911D01*
X135467974Y-69251328D01*
X135490877Y-69265055D01*
X135512324Y-69280961D01*
X135532108Y-69298892D01*
X135550039Y-69318676D01*
X135565945Y-69340123D01*
X135579672Y-69363026D01*
X135591089Y-69387163D01*
X135600084Y-69412304D01*
X135606572Y-69438205D01*
X135610490Y-69464617D01*
X135611800Y-69491286D01*
X135611800Y-70448714D01*
X135610490Y-70475383D01*
X135606572Y-70501795D01*
X135600084Y-70527696D01*
X135591089Y-70552837D01*
X135579672Y-70576974D01*
X135565945Y-70599877D01*
X135550039Y-70621324D01*
X135532108Y-70641108D01*
X135512324Y-70659039D01*
X135490877Y-70674945D01*
X135467974Y-70688672D01*
X135443837Y-70700089D01*
X135418696Y-70709084D01*
X135392795Y-70715572D01*
X135366383Y-70719490D01*
X135339714Y-70720800D01*
X134632286Y-70720800D01*
X134605617Y-70719490D01*
X134579205Y-70715572D01*
X134553304Y-70709084D01*
X134528163Y-70700089D01*
X134504026Y-70688672D01*
X134481123Y-70674945D01*
X134459676Y-70659039D01*
X134439892Y-70641108D01*
X134421961Y-70621324D01*
X134406055Y-70599877D01*
X134392328Y-70576974D01*
X134380911Y-70552837D01*
X134371916Y-70527696D01*
X134365428Y-70501795D01*
X134361510Y-70475383D01*
X134360200Y-70448714D01*
X134360200Y-69491286D01*
X134361510Y-69464617D01*
X134365428Y-69438205D01*
X134371916Y-69412304D01*
X134380911Y-69387163D01*
X134392328Y-69363026D01*
X134406055Y-69340123D01*
X134421961Y-69318676D01*
X134439892Y-69298892D01*
X134459676Y-69280961D01*
X134481123Y-69265055D01*
X134504026Y-69251328D01*
X134528163Y-69239911D01*
X134553304Y-69230916D01*
X134579205Y-69224428D01*
X134605617Y-69220510D01*
X134632286Y-69219200D01*
X135339714Y-69219200D01*
X135366383Y-69220510D01*
G37*
G36*
X137416383Y-69220510D02*
G01*
X137442795Y-69224428D01*
X137468696Y-69230916D01*
X137493837Y-69239911D01*
X137517974Y-69251328D01*
X137540877Y-69265055D01*
X137562324Y-69280961D01*
X137582108Y-69298892D01*
X137600039Y-69318676D01*
X137615945Y-69340123D01*
X137629672Y-69363026D01*
X137641089Y-69387163D01*
X137650084Y-69412304D01*
X137656572Y-69438205D01*
X137660490Y-69464617D01*
X137661800Y-69491286D01*
X137661800Y-70448714D01*
X137660490Y-70475383D01*
X137656572Y-70501795D01*
X137650084Y-70527696D01*
X137641089Y-70552837D01*
X137629672Y-70576974D01*
X137615945Y-70599877D01*
X137600039Y-70621324D01*
X137582108Y-70641108D01*
X137562324Y-70659039D01*
X137540877Y-70674945D01*
X137517974Y-70688672D01*
X137493837Y-70700089D01*
X137468696Y-70709084D01*
X137442795Y-70715572D01*
X137416383Y-70719490D01*
X137389714Y-70720800D01*
X136682286Y-70720800D01*
X136655617Y-70719490D01*
X136629205Y-70715572D01*
X136603304Y-70709084D01*
X136578163Y-70700089D01*
X136554026Y-70688672D01*
X136531123Y-70674945D01*
X136509676Y-70659039D01*
X136489892Y-70641108D01*
X136471961Y-70621324D01*
X136456055Y-70599877D01*
X136442328Y-70576974D01*
X136430911Y-70552837D01*
X136421916Y-70527696D01*
X136415428Y-70501795D01*
X136411510Y-70475383D01*
X136410200Y-70448714D01*
X136410200Y-69491286D01*
X136411510Y-69464617D01*
X136415428Y-69438205D01*
X136421916Y-69412304D01*
X136430911Y-69387163D01*
X136442328Y-69363026D01*
X136456055Y-69340123D01*
X136471961Y-69318676D01*
X136489892Y-69298892D01*
X136509676Y-69280961D01*
X136531123Y-69265055D01*
X136554026Y-69251328D01*
X136578163Y-69239911D01*
X136603304Y-69230916D01*
X136629205Y-69224428D01*
X136655617Y-69220510D01*
X136682286Y-69219200D01*
X137389714Y-69219200D01*
X137416383Y-69220510D01*
G37*
G36*
X137425383Y-71760510D02*
G01*
X137451795Y-71764428D01*
X137477696Y-71770916D01*
X137502837Y-71779911D01*
X137526974Y-71791328D01*
X137549877Y-71805055D01*
X137571324Y-71820961D01*
X137591108Y-71838892D01*
X137609039Y-71858676D01*
X137624945Y-71880123D01*
X137638672Y-71903026D01*
X137650089Y-71927163D01*
X137659084Y-71952304D01*
X137665572Y-71978205D01*
X137669490Y-72004617D01*
X137670800Y-72031286D01*
X137670800Y-72988714D01*
X137669490Y-73015383D01*
X137665572Y-73041795D01*
X137659084Y-73067696D01*
X137650089Y-73092837D01*
X137638672Y-73116974D01*
X137624945Y-73139877D01*
X137609039Y-73161324D01*
X137591108Y-73181108D01*
X137571324Y-73199039D01*
X137549877Y-73214945D01*
X137526974Y-73228672D01*
X137502837Y-73240089D01*
X137477696Y-73249084D01*
X137451795Y-73255572D01*
X137425383Y-73259490D01*
X137398714Y-73260800D01*
X136691286Y-73260800D01*
X136664617Y-73259490D01*
X136638205Y-73255572D01*
X136612304Y-73249084D01*
X136587163Y-73240089D01*
X136563026Y-73228672D01*
X136540123Y-73214945D01*
X136518676Y-73199039D01*
X136498892Y-73181108D01*
X136480961Y-73161324D01*
X136465055Y-73139877D01*
X136451328Y-73116974D01*
X136439911Y-73092837D01*
X136430916Y-73067696D01*
X136424428Y-73041795D01*
X136420510Y-73015383D01*
X136419200Y-72988714D01*
X136419200Y-72031286D01*
X136420510Y-72004617D01*
X136424428Y-71978205D01*
X136430916Y-71952304D01*
X136439911Y-71927163D01*
X136451328Y-71903026D01*
X136465055Y-71880123D01*
X136480961Y-71858676D01*
X136498892Y-71838892D01*
X136518676Y-71820961D01*
X136540123Y-71805055D01*
X136563026Y-71791328D01*
X136587163Y-71779911D01*
X136612304Y-71770916D01*
X136638205Y-71764428D01*
X136664617Y-71760510D01*
X136691286Y-71759200D01*
X137398714Y-71759200D01*
X137425383Y-71760510D01*
G37*
G36*
X135375383Y-71760510D02*
G01*
X135401795Y-71764428D01*
X135427696Y-71770916D01*
X135452837Y-71779911D01*
X135476974Y-71791328D01*
X135499877Y-71805055D01*
X135521324Y-71820961D01*
X135541108Y-71838892D01*
X135559039Y-71858676D01*
X135574945Y-71880123D01*
X135588672Y-71903026D01*
X135600089Y-71927163D01*
X135609084Y-71952304D01*
X135615572Y-71978205D01*
X135619490Y-72004617D01*
X135620800Y-72031286D01*
X135620800Y-72988714D01*
X135619490Y-73015383D01*
X135615572Y-73041795D01*
X135609084Y-73067696D01*
X135600089Y-73092837D01*
X135588672Y-73116974D01*
X135574945Y-73139877D01*
X135559039Y-73161324D01*
X135541108Y-73181108D01*
X135521324Y-73199039D01*
X135499877Y-73214945D01*
X135476974Y-73228672D01*
X135452837Y-73240089D01*
X135427696Y-73249084D01*
X135401795Y-73255572D01*
X135375383Y-73259490D01*
X135348714Y-73260800D01*
X134641286Y-73260800D01*
X134614617Y-73259490D01*
X134588205Y-73255572D01*
X134562304Y-73249084D01*
X134537163Y-73240089D01*
X134513026Y-73228672D01*
X134490123Y-73214945D01*
X134468676Y-73199039D01*
X134448892Y-73181108D01*
X134430961Y-73161324D01*
X134415055Y-73139877D01*
X134401328Y-73116974D01*
X134389911Y-73092837D01*
X134380916Y-73067696D01*
X134374428Y-73041795D01*
X134370510Y-73015383D01*
X134369200Y-72988714D01*
X134369200Y-72031286D01*
X134370510Y-72004617D01*
X134374428Y-71978205D01*
X134380916Y-71952304D01*
X134389911Y-71927163D01*
X134401328Y-71903026D01*
X134415055Y-71880123D01*
X134430961Y-71858676D01*
X134448892Y-71838892D01*
X134468676Y-71820961D01*
X134490123Y-71805055D01*
X134513026Y-71791328D01*
X134537163Y-71779911D01*
X134562304Y-71770916D01*
X134588205Y-71764428D01*
X134614617Y-71760510D01*
X134641286Y-71759200D01*
X135348714Y-71759200D01*
X135375383Y-71760510D01*
G37*
G36*
X137416383Y-74300510D02*
G01*
X137442795Y-74304428D01*
X137468696Y-74310916D01*
X137493837Y-74319911D01*
X137517974Y-74331328D01*
X137540877Y-74345055D01*
X137562324Y-74360961D01*
X137582108Y-74378892D01*
X137600039Y-74398676D01*
X137615945Y-74420123D01*
X137629672Y-74443026D01*
X137641089Y-74467163D01*
X137650084Y-74492304D01*
X137656572Y-74518205D01*
X137660490Y-74544617D01*
X137661800Y-74571286D01*
X137661800Y-75528714D01*
X137660490Y-75555383D01*
X137656572Y-75581795D01*
X137650084Y-75607696D01*
X137641089Y-75632837D01*
X137629672Y-75656974D01*
X137615945Y-75679877D01*
X137600039Y-75701324D01*
X137582108Y-75721108D01*
X137562324Y-75739039D01*
X137540877Y-75754945D01*
X137517974Y-75768672D01*
X137493837Y-75780089D01*
X137468696Y-75789084D01*
X137442795Y-75795572D01*
X137416383Y-75799490D01*
X137389714Y-75800800D01*
X136682286Y-75800800D01*
X136655617Y-75799490D01*
X136629205Y-75795572D01*
X136603304Y-75789084D01*
X136578163Y-75780089D01*
X136554026Y-75768672D01*
X136531123Y-75754945D01*
X136509676Y-75739039D01*
X136489892Y-75721108D01*
X136471961Y-75701324D01*
X136456055Y-75679877D01*
X136442328Y-75656974D01*
X136430911Y-75632837D01*
X136421916Y-75607696D01*
X136415428Y-75581795D01*
X136411510Y-75555383D01*
X136410200Y-75528714D01*
X136410200Y-74571286D01*
X136411510Y-74544617D01*
X136415428Y-74518205D01*
X136421916Y-74492304D01*
X136430911Y-74467163D01*
X136442328Y-74443026D01*
X136456055Y-74420123D01*
X136471961Y-74398676D01*
X136489892Y-74378892D01*
X136509676Y-74360961D01*
X136531123Y-74345055D01*
X136554026Y-74331328D01*
X136578163Y-74319911D01*
X136603304Y-74310916D01*
X136629205Y-74304428D01*
X136655617Y-74300510D01*
X136682286Y-74299200D01*
X137389714Y-74299200D01*
X137416383Y-74300510D01*
G37*
G36*
X135366383Y-74300510D02*
G01*
X135392795Y-74304428D01*
X135418696Y-74310916D01*
X135443837Y-74319911D01*
X135467974Y-74331328D01*
X135490877Y-74345055D01*
X135512324Y-74360961D01*
X135532108Y-74378892D01*
X135550039Y-74398676D01*
X135565945Y-74420123D01*
X135579672Y-74443026D01*
X135591089Y-74467163D01*
X135600084Y-74492304D01*
X135606572Y-74518205D01*
X135610490Y-74544617D01*
X135611800Y-74571286D01*
X135611800Y-75528714D01*
X135610490Y-75555383D01*
X135606572Y-75581795D01*
X135600084Y-75607696D01*
X135591089Y-75632837D01*
X135579672Y-75656974D01*
X135565945Y-75679877D01*
X135550039Y-75701324D01*
X135532108Y-75721108D01*
X135512324Y-75739039D01*
X135490877Y-75754945D01*
X135467974Y-75768672D01*
X135443837Y-75780089D01*
X135418696Y-75789084D01*
X135392795Y-75795572D01*
X135366383Y-75799490D01*
X135339714Y-75800800D01*
X134632286Y-75800800D01*
X134605617Y-75799490D01*
X134579205Y-75795572D01*
X134553304Y-75789084D01*
X134528163Y-75780089D01*
X134504026Y-75768672D01*
X134481123Y-75754945D01*
X134459676Y-75739039D01*
X134439892Y-75721108D01*
X134421961Y-75701324D01*
X134406055Y-75679877D01*
X134392328Y-75656974D01*
X134380911Y-75632837D01*
X134371916Y-75607696D01*
X134365428Y-75581795D01*
X134361510Y-75555383D01*
X134360200Y-75528714D01*
X134360200Y-74571286D01*
X134361510Y-74544617D01*
X134365428Y-74518205D01*
X134371916Y-74492304D01*
X134380911Y-74467163D01*
X134392328Y-74443026D01*
X134406055Y-74420123D01*
X134421961Y-74398676D01*
X134439892Y-74378892D01*
X134459676Y-74360961D01*
X134481123Y-74345055D01*
X134504026Y-74331328D01*
X134528163Y-74319911D01*
X134553304Y-74310916D01*
X134579205Y-74304428D01*
X134605617Y-74300510D01*
X134632286Y-74299200D01*
X135339714Y-74299200D01*
X135366383Y-74300510D01*
G37*
M02*
