M48
; DRILL file {KiCad (5.1.5)-3} date 02/22/20 17:46:15
; FORMAT={-:-/ absolute / inch / decimal}
; #@! TF.CreationDate,2020-02-22T17:46:15+01:00
; #@! TF.GenerationSoftware,Kicad,Pcbnew,(5.1.5)-3
; #@! TF.FileFunction,Plated,1,2,PTH
FMAT,2
INCH
T1C0.0100
T2C0.0236
T3C0.0315
T4C0.0362
T5C0.0394
T6C0.0512
T7C0.0917
T8C0.0984
%
G90
G05
T1
X5.445Y-3.1329
X5.535Y-3.25
X5.57Y-3.075
X6.14Y-2.68
X6.14Y-2.725
X6.14Y-2.77
X6.14Y-2.81
X6.14Y-2.855
X6.14Y-2.9
X6.14Y-2.94
X6.14Y-2.985
X6.25Y-3.15
X6.3414Y-3.1496
X6.42Y-2.74
X6.42Y-2.84
X6.42Y-2.94
X6.42Y-3.04
X6.42Y-3.14
T2
X5.385Y-2.45
X5.433Y-3.006
X5.58Y-2.795
X5.745Y-3.071
X6.08Y-2.38
X6.315Y-2.385
X6.56Y-3.835
T3
X5.755Y-3.775
X5.8534Y-3.775
X5.515Y-3.8
X5.5937Y-3.8
X5.515Y-4.025
X5.5937Y-4.025
X5.74Y-4.025
X5.8187Y-4.025
T4
X5.5916Y-4.23
X5.5916Y-4.3087
X5.69Y-4.23
X5.69Y-4.3087
T5
X5.2051Y-2.7547
X5.2051Y-2.8547
X5.2051Y-2.9547
X5.2051Y-3.0547
X6.6581Y-2.74
X6.6581Y-2.84
X6.6581Y-2.94
X6.6581Y-3.04
X6.6581Y-3.14
X6.6581Y-3.24
X6.028Y-3.6657
X6.028Y-3.7657
X6.028Y-3.8657
X6.128Y-4.1657
X6.228Y-4.1657
X6.428Y-3.3657
X6.528Y-3.3657
X6.528Y-4.1657
X6.628Y-3.3657
X6.628Y-4.1657
X5.2362Y-4.2913
X5.2362Y-4.3913
X5.37Y-3.62
X5.47Y-3.62
X6.4173Y-2.4197
X6.4173Y-2.5197
X6.4173Y-2.6197
X5.2051Y-3.2047
X5.2051Y-3.3047
X5.2051Y-3.4047
X5.2051Y-3.5047
X5.2051Y-3.6047
T6
X6.0242Y-4.4386
X6.1305Y-4.4858
X6.2289Y-4.7535
X6.3903Y-4.3126
X6.41Y-4.6
T7
X5.4038Y-4.4154
X5.8778Y-4.4154
T8
X6.6142Y-4.685
X5.2362Y-4.685
X6.6142Y-2.4803
X5.2362Y-2.4803
T0
M30
