G04 #@! TF.GenerationSoftware,KiCad,Pcbnew,(5.1.5)-3*
G04 #@! TF.CreationDate,2020-02-22T17:46:18+01:00*
G04 #@! TF.ProjectId,Breakoutboard,42726561-6b6f-4757-9462-6f6172642e6b,rev?*
G04 #@! TF.SameCoordinates,Original*
G04 #@! TF.FileFunction,Legend,Top*
G04 #@! TF.FilePolarity,Positive*
%FSLAX46Y46*%
G04 Gerber Fmt 4.6, Leading zero omitted, Abs format (unit mm)*
G04 Created by KiCad (PCBNEW (5.1.5)-3) date 2020-02-22 17:46:18*
%MOMM*%
%LPD*%
G04 APERTURE LIST*
%ADD10C,0.150000*%
%ADD11C,0.120000*%
%ADD12C,0.125000*%
G04 APERTURE END LIST*
D10*
X145748952Y-73366380D02*
X145748952Y-74080666D01*
X145701333Y-74223523D01*
X145606095Y-74318761D01*
X145463238Y-74366380D01*
X145368000Y-74366380D01*
X146701333Y-74366380D02*
X146225142Y-74366380D01*
X146225142Y-73366380D01*
X147606095Y-74271142D02*
X147558476Y-74318761D01*
X147415619Y-74366380D01*
X147320380Y-74366380D01*
X147177523Y-74318761D01*
X147082285Y-74223523D01*
X147034666Y-74128285D01*
X146987047Y-73937809D01*
X146987047Y-73794952D01*
X147034666Y-73604476D01*
X147082285Y-73509238D01*
X147177523Y-73414000D01*
X147320380Y-73366380D01*
X147415619Y-73366380D01*
X147558476Y-73414000D01*
X147606095Y-73461619D01*
X148320380Y-73366380D02*
X148320380Y-74080666D01*
X148272761Y-74223523D01*
X148177523Y-74318761D01*
X148034666Y-74366380D01*
X147939428Y-74366380D01*
X149272761Y-74366380D02*
X148796571Y-74366380D01*
X148796571Y-73366380D01*
X150177523Y-74271142D02*
X150129904Y-74318761D01*
X149987047Y-74366380D01*
X149891809Y-74366380D01*
X149748952Y-74318761D01*
X149653714Y-74223523D01*
X149606095Y-74128285D01*
X149558476Y-73937809D01*
X149558476Y-73794952D01*
X149606095Y-73604476D01*
X149653714Y-73509238D01*
X149748952Y-73414000D01*
X149891809Y-73366380D01*
X149987047Y-73366380D01*
X150129904Y-73414000D01*
X150177523Y-73461619D01*
X150891809Y-73366380D02*
X150891809Y-74080666D01*
X150844190Y-74223523D01*
X150748952Y-74318761D01*
X150606095Y-74366380D01*
X150510857Y-74366380D01*
X151844190Y-74366380D02*
X151368000Y-74366380D01*
X151368000Y-73366380D01*
X152748952Y-74271142D02*
X152701333Y-74318761D01*
X152558476Y-74366380D01*
X152463238Y-74366380D01*
X152320380Y-74318761D01*
X152225142Y-74223523D01*
X152177523Y-74128285D01*
X152129904Y-73937809D01*
X152129904Y-73794952D01*
X152177523Y-73604476D01*
X152225142Y-73509238D01*
X152320380Y-73414000D01*
X152463238Y-73366380D01*
X152558476Y-73366380D01*
X152701333Y-73414000D01*
X152748952Y-73461619D01*
X153463238Y-73366380D02*
X153463238Y-74080666D01*
X153415619Y-74223523D01*
X153320380Y-74318761D01*
X153177523Y-74366380D01*
X153082285Y-74366380D01*
X154415619Y-74366380D02*
X153939428Y-74366380D01*
X153939428Y-73366380D01*
X155320380Y-74271142D02*
X155272761Y-74318761D01*
X155129904Y-74366380D01*
X155034666Y-74366380D01*
X154891809Y-74318761D01*
X154796571Y-74223523D01*
X154748952Y-74128285D01*
X154701333Y-73937809D01*
X154701333Y-73794952D01*
X154748952Y-73604476D01*
X154796571Y-73509238D01*
X154891809Y-73414000D01*
X155034666Y-73366380D01*
X155129904Y-73366380D01*
X155272761Y-73414000D01*
X155320380Y-73461619D01*
D11*
X131748252Y-103535000D02*
X131225748Y-103535000D01*
X131748252Y-104955000D02*
X131225748Y-104955000D01*
X135576252Y-104955000D02*
X135053748Y-104955000D01*
X135576252Y-103535000D02*
X135053748Y-103535000D01*
X137192000Y-96493000D02*
X135932000Y-96493000D01*
X130372000Y-96493000D02*
X131632000Y-96493000D01*
X137192000Y-100253000D02*
X137192000Y-96493000D01*
X130372000Y-102503000D02*
X130372000Y-96493000D01*
X165173748Y-82974000D02*
X165696252Y-82974000D01*
X165173748Y-81554000D02*
X165696252Y-81554000D01*
X165155748Y-72814000D02*
X165678252Y-72814000D01*
X165155748Y-71394000D02*
X165678252Y-71394000D01*
X165173748Y-73934000D02*
X165696252Y-73934000D01*
X165173748Y-75354000D02*
X165696252Y-75354000D01*
X165173748Y-77894000D02*
X165696252Y-77894000D01*
X165173748Y-76474000D02*
X165696252Y-76474000D01*
X165173748Y-68854000D02*
X165696252Y-68854000D01*
X165173748Y-70274000D02*
X165696252Y-70274000D01*
X165173748Y-79014000D02*
X165696252Y-79014000D01*
X165173748Y-80434000D02*
X165696252Y-80434000D01*
X167786000Y-83626000D02*
X170446000Y-83626000D01*
X167786000Y-70866000D02*
X167786000Y-83626000D01*
X170446000Y-70866000D02*
X170446000Y-83626000D01*
X167786000Y-70866000D02*
X170446000Y-70866000D01*
X167786000Y-69596000D02*
X167786000Y-68266000D01*
X167786000Y-68266000D02*
X169116000Y-68266000D01*
X161670000Y-67870000D02*
X164330000Y-67870000D01*
X161670000Y-62730000D02*
X161670000Y-67870000D01*
X164330000Y-62730000D02*
X164330000Y-67870000D01*
X161670000Y-62730000D02*
X164330000Y-62730000D01*
X161670000Y-61460000D02*
X161670000Y-60130000D01*
X161670000Y-60130000D02*
X163000000Y-60130000D01*
X151840000Y-107080000D02*
X151840000Y-84220000D01*
X151840000Y-84220000D02*
X169620000Y-84220000D01*
X172160000Y-84220000D02*
X172160000Y-107080000D01*
X169620000Y-107080000D02*
X151840000Y-107080000D01*
X169620000Y-107080000D02*
X172160000Y-107080000D01*
X172160000Y-107080000D02*
X172160000Y-84220000D01*
X172160000Y-84220000D02*
X169620000Y-84220000D01*
D10*
X157500000Y-78500000D02*
X157500000Y-80000000D01*
X157500000Y-80000000D02*
X156100000Y-80000000D01*
X144000000Y-78500000D02*
X144000000Y-80000000D01*
X144000000Y-80000000D02*
X145500000Y-80000000D01*
D11*
X143708000Y-86374000D02*
X144638000Y-86374000D01*
X146868000Y-86374000D02*
X145938000Y-86374000D01*
X146868000Y-86374000D02*
X146868000Y-84214000D01*
X143708000Y-86374000D02*
X143708000Y-84914000D01*
X149350252Y-85292000D02*
X148827748Y-85292000D01*
X149350252Y-83872000D02*
X148827748Y-83872000D01*
X148845748Y-85904000D02*
X149368252Y-85904000D01*
X148845748Y-87324000D02*
X149368252Y-87324000D01*
X145549252Y-81840000D02*
X145026748Y-81840000D01*
X145549252Y-83260000D02*
X145026748Y-83260000D01*
X148845748Y-83260000D02*
X149368252Y-83260000D01*
X148845748Y-81840000D02*
X149368252Y-81840000D01*
X144241225Y-100510000D02*
X144241225Y-101010000D01*
X143991225Y-100760000D02*
X144491225Y-100760000D01*
X149397000Y-101951000D02*
X149397000Y-102519000D01*
X149357000Y-101717000D02*
X149357000Y-102753000D01*
X149317000Y-101558000D02*
X149317000Y-102912000D01*
X149277000Y-101430000D02*
X149277000Y-103040000D01*
X149237000Y-101320000D02*
X149237000Y-103150000D01*
X149197000Y-101224000D02*
X149197000Y-103246000D01*
X149157000Y-101137000D02*
X149157000Y-103333000D01*
X149117000Y-101057000D02*
X149117000Y-103413000D01*
X149077000Y-100984000D02*
X149077000Y-103486000D01*
X149037000Y-100916000D02*
X149037000Y-103554000D01*
X148997000Y-100852000D02*
X148997000Y-103618000D01*
X148957000Y-100792000D02*
X148957000Y-103678000D01*
X148917000Y-100735000D02*
X148917000Y-103735000D01*
X148877000Y-100681000D02*
X148877000Y-103789000D01*
X148837000Y-100630000D02*
X148837000Y-103840000D01*
X148797000Y-103275000D02*
X148797000Y-103888000D01*
X148797000Y-100582000D02*
X148797000Y-101195000D01*
X148757000Y-103275000D02*
X148757000Y-103934000D01*
X148757000Y-100536000D02*
X148757000Y-101195000D01*
X148717000Y-103275000D02*
X148717000Y-103978000D01*
X148717000Y-100492000D02*
X148717000Y-101195000D01*
X148677000Y-103275000D02*
X148677000Y-104020000D01*
X148677000Y-100450000D02*
X148677000Y-101195000D01*
X148637000Y-103275000D02*
X148637000Y-104061000D01*
X148637000Y-100409000D02*
X148637000Y-101195000D01*
X148597000Y-103275000D02*
X148597000Y-104099000D01*
X148597000Y-100371000D02*
X148597000Y-101195000D01*
X148557000Y-103275000D02*
X148557000Y-104136000D01*
X148557000Y-100334000D02*
X148557000Y-101195000D01*
X148517000Y-103275000D02*
X148517000Y-104172000D01*
X148517000Y-100298000D02*
X148517000Y-101195000D01*
X148477000Y-103275000D02*
X148477000Y-104206000D01*
X148477000Y-100264000D02*
X148477000Y-101195000D01*
X148437000Y-103275000D02*
X148437000Y-104239000D01*
X148437000Y-100231000D02*
X148437000Y-101195000D01*
X148397000Y-103275000D02*
X148397000Y-104270000D01*
X148397000Y-100200000D02*
X148397000Y-101195000D01*
X148357000Y-103275000D02*
X148357000Y-104300000D01*
X148357000Y-100170000D02*
X148357000Y-101195000D01*
X148317000Y-103275000D02*
X148317000Y-104330000D01*
X148317000Y-100140000D02*
X148317000Y-101195000D01*
X148277000Y-103275000D02*
X148277000Y-104357000D01*
X148277000Y-100113000D02*
X148277000Y-101195000D01*
X148237000Y-103275000D02*
X148237000Y-104384000D01*
X148237000Y-100086000D02*
X148237000Y-101195000D01*
X148197000Y-103275000D02*
X148197000Y-104410000D01*
X148197000Y-100060000D02*
X148197000Y-101195000D01*
X148157000Y-103275000D02*
X148157000Y-104435000D01*
X148157000Y-100035000D02*
X148157000Y-101195000D01*
X148117000Y-103275000D02*
X148117000Y-104459000D01*
X148117000Y-100011000D02*
X148117000Y-101195000D01*
X148077000Y-103275000D02*
X148077000Y-104482000D01*
X148077000Y-99988000D02*
X148077000Y-101195000D01*
X148037000Y-103275000D02*
X148037000Y-104503000D01*
X148037000Y-99967000D02*
X148037000Y-101195000D01*
X147997000Y-103275000D02*
X147997000Y-104525000D01*
X147997000Y-99945000D02*
X147997000Y-101195000D01*
X147957000Y-103275000D02*
X147957000Y-104545000D01*
X147957000Y-99925000D02*
X147957000Y-101195000D01*
X147917000Y-103275000D02*
X147917000Y-104564000D01*
X147917000Y-99906000D02*
X147917000Y-101195000D01*
X147877000Y-103275000D02*
X147877000Y-104583000D01*
X147877000Y-99887000D02*
X147877000Y-101195000D01*
X147837000Y-103275000D02*
X147837000Y-104600000D01*
X147837000Y-99870000D02*
X147837000Y-101195000D01*
X147797000Y-103275000D02*
X147797000Y-104617000D01*
X147797000Y-99853000D02*
X147797000Y-101195000D01*
X147757000Y-103275000D02*
X147757000Y-104633000D01*
X147757000Y-99837000D02*
X147757000Y-101195000D01*
X147717000Y-103275000D02*
X147717000Y-104649000D01*
X147717000Y-99821000D02*
X147717000Y-101195000D01*
X147677000Y-103275000D02*
X147677000Y-104663000D01*
X147677000Y-99807000D02*
X147677000Y-101195000D01*
X147637000Y-103275000D02*
X147637000Y-104677000D01*
X147637000Y-99793000D02*
X147637000Y-101195000D01*
X147597000Y-103275000D02*
X147597000Y-104690000D01*
X147597000Y-99780000D02*
X147597000Y-101195000D01*
X147557000Y-103275000D02*
X147557000Y-104703000D01*
X147557000Y-99767000D02*
X147557000Y-101195000D01*
X147517000Y-103275000D02*
X147517000Y-104715000D01*
X147517000Y-99755000D02*
X147517000Y-101195000D01*
X147476000Y-103275000D02*
X147476000Y-104726000D01*
X147476000Y-99744000D02*
X147476000Y-101195000D01*
X147436000Y-103275000D02*
X147436000Y-104736000D01*
X147436000Y-99734000D02*
X147436000Y-101195000D01*
X147396000Y-103275000D02*
X147396000Y-104746000D01*
X147396000Y-99724000D02*
X147396000Y-101195000D01*
X147356000Y-103275000D02*
X147356000Y-104755000D01*
X147356000Y-99715000D02*
X147356000Y-101195000D01*
X147316000Y-103275000D02*
X147316000Y-104763000D01*
X147316000Y-99707000D02*
X147316000Y-101195000D01*
X147276000Y-103275000D02*
X147276000Y-104771000D01*
X147276000Y-99699000D02*
X147276000Y-101195000D01*
X147236000Y-103275000D02*
X147236000Y-104778000D01*
X147236000Y-99692000D02*
X147236000Y-101195000D01*
X147196000Y-103275000D02*
X147196000Y-104785000D01*
X147196000Y-99685000D02*
X147196000Y-101195000D01*
X147156000Y-103275000D02*
X147156000Y-104791000D01*
X147156000Y-99679000D02*
X147156000Y-101195000D01*
X147116000Y-103275000D02*
X147116000Y-104796000D01*
X147116000Y-99674000D02*
X147116000Y-101195000D01*
X147076000Y-103275000D02*
X147076000Y-104800000D01*
X147076000Y-99670000D02*
X147076000Y-101195000D01*
X147036000Y-103275000D02*
X147036000Y-104804000D01*
X147036000Y-99666000D02*
X147036000Y-101195000D01*
X146996000Y-103275000D02*
X146996000Y-104808000D01*
X146996000Y-99662000D02*
X146996000Y-101195000D01*
X146956000Y-103275000D02*
X146956000Y-104811000D01*
X146956000Y-99659000D02*
X146956000Y-101195000D01*
X146916000Y-103275000D02*
X146916000Y-104813000D01*
X146916000Y-99657000D02*
X146916000Y-101195000D01*
X146876000Y-103275000D02*
X146876000Y-104814000D01*
X146876000Y-99656000D02*
X146876000Y-101195000D01*
X146836000Y-99655000D02*
X146836000Y-101195000D01*
X146836000Y-103275000D02*
X146836000Y-104815000D01*
X146796000Y-99655000D02*
X146796000Y-101195000D01*
X146796000Y-103275000D02*
X146796000Y-104815000D01*
X149416000Y-102235000D02*
G75*
G03X149416000Y-102235000I-2620000J0D01*
G01*
X135749748Y-78300000D02*
X136272252Y-78300000D01*
X135749748Y-76880000D02*
X136272252Y-76880000D01*
X143701000Y-102235000D02*
G75*
G03X143701000Y-102235000I-2620000J0D01*
G01*
X141081000Y-103275000D02*
X141081000Y-104815000D01*
X141081000Y-99655000D02*
X141081000Y-101195000D01*
X141121000Y-103275000D02*
X141121000Y-104815000D01*
X141121000Y-99655000D02*
X141121000Y-101195000D01*
X141161000Y-99656000D02*
X141161000Y-101195000D01*
X141161000Y-103275000D02*
X141161000Y-104814000D01*
X141201000Y-99657000D02*
X141201000Y-101195000D01*
X141201000Y-103275000D02*
X141201000Y-104813000D01*
X141241000Y-99659000D02*
X141241000Y-101195000D01*
X141241000Y-103275000D02*
X141241000Y-104811000D01*
X141281000Y-99662000D02*
X141281000Y-101195000D01*
X141281000Y-103275000D02*
X141281000Y-104808000D01*
X141321000Y-99666000D02*
X141321000Y-101195000D01*
X141321000Y-103275000D02*
X141321000Y-104804000D01*
X141361000Y-99670000D02*
X141361000Y-101195000D01*
X141361000Y-103275000D02*
X141361000Y-104800000D01*
X141401000Y-99674000D02*
X141401000Y-101195000D01*
X141401000Y-103275000D02*
X141401000Y-104796000D01*
X141441000Y-99679000D02*
X141441000Y-101195000D01*
X141441000Y-103275000D02*
X141441000Y-104791000D01*
X141481000Y-99685000D02*
X141481000Y-101195000D01*
X141481000Y-103275000D02*
X141481000Y-104785000D01*
X141521000Y-99692000D02*
X141521000Y-101195000D01*
X141521000Y-103275000D02*
X141521000Y-104778000D01*
X141561000Y-99699000D02*
X141561000Y-101195000D01*
X141561000Y-103275000D02*
X141561000Y-104771000D01*
X141601000Y-99707000D02*
X141601000Y-101195000D01*
X141601000Y-103275000D02*
X141601000Y-104763000D01*
X141641000Y-99715000D02*
X141641000Y-101195000D01*
X141641000Y-103275000D02*
X141641000Y-104755000D01*
X141681000Y-99724000D02*
X141681000Y-101195000D01*
X141681000Y-103275000D02*
X141681000Y-104746000D01*
X141721000Y-99734000D02*
X141721000Y-101195000D01*
X141721000Y-103275000D02*
X141721000Y-104736000D01*
X141761000Y-99744000D02*
X141761000Y-101195000D01*
X141761000Y-103275000D02*
X141761000Y-104726000D01*
X141802000Y-99755000D02*
X141802000Y-101195000D01*
X141802000Y-103275000D02*
X141802000Y-104715000D01*
X141842000Y-99767000D02*
X141842000Y-101195000D01*
X141842000Y-103275000D02*
X141842000Y-104703000D01*
X141882000Y-99780000D02*
X141882000Y-101195000D01*
X141882000Y-103275000D02*
X141882000Y-104690000D01*
X141922000Y-99793000D02*
X141922000Y-101195000D01*
X141922000Y-103275000D02*
X141922000Y-104677000D01*
X141962000Y-99807000D02*
X141962000Y-101195000D01*
X141962000Y-103275000D02*
X141962000Y-104663000D01*
X142002000Y-99821000D02*
X142002000Y-101195000D01*
X142002000Y-103275000D02*
X142002000Y-104649000D01*
X142042000Y-99837000D02*
X142042000Y-101195000D01*
X142042000Y-103275000D02*
X142042000Y-104633000D01*
X142082000Y-99853000D02*
X142082000Y-101195000D01*
X142082000Y-103275000D02*
X142082000Y-104617000D01*
X142122000Y-99870000D02*
X142122000Y-101195000D01*
X142122000Y-103275000D02*
X142122000Y-104600000D01*
X142162000Y-99887000D02*
X142162000Y-101195000D01*
X142162000Y-103275000D02*
X142162000Y-104583000D01*
X142202000Y-99906000D02*
X142202000Y-101195000D01*
X142202000Y-103275000D02*
X142202000Y-104564000D01*
X142242000Y-99925000D02*
X142242000Y-101195000D01*
X142242000Y-103275000D02*
X142242000Y-104545000D01*
X142282000Y-99945000D02*
X142282000Y-101195000D01*
X142282000Y-103275000D02*
X142282000Y-104525000D01*
X142322000Y-99967000D02*
X142322000Y-101195000D01*
X142322000Y-103275000D02*
X142322000Y-104503000D01*
X142362000Y-99988000D02*
X142362000Y-101195000D01*
X142362000Y-103275000D02*
X142362000Y-104482000D01*
X142402000Y-100011000D02*
X142402000Y-101195000D01*
X142402000Y-103275000D02*
X142402000Y-104459000D01*
X142442000Y-100035000D02*
X142442000Y-101195000D01*
X142442000Y-103275000D02*
X142442000Y-104435000D01*
X142482000Y-100060000D02*
X142482000Y-101195000D01*
X142482000Y-103275000D02*
X142482000Y-104410000D01*
X142522000Y-100086000D02*
X142522000Y-101195000D01*
X142522000Y-103275000D02*
X142522000Y-104384000D01*
X142562000Y-100113000D02*
X142562000Y-101195000D01*
X142562000Y-103275000D02*
X142562000Y-104357000D01*
X142602000Y-100140000D02*
X142602000Y-101195000D01*
X142602000Y-103275000D02*
X142602000Y-104330000D01*
X142642000Y-100170000D02*
X142642000Y-101195000D01*
X142642000Y-103275000D02*
X142642000Y-104300000D01*
X142682000Y-100200000D02*
X142682000Y-101195000D01*
X142682000Y-103275000D02*
X142682000Y-104270000D01*
X142722000Y-100231000D02*
X142722000Y-101195000D01*
X142722000Y-103275000D02*
X142722000Y-104239000D01*
X142762000Y-100264000D02*
X142762000Y-101195000D01*
X142762000Y-103275000D02*
X142762000Y-104206000D01*
X142802000Y-100298000D02*
X142802000Y-101195000D01*
X142802000Y-103275000D02*
X142802000Y-104172000D01*
X142842000Y-100334000D02*
X142842000Y-101195000D01*
X142842000Y-103275000D02*
X142842000Y-104136000D01*
X142882000Y-100371000D02*
X142882000Y-101195000D01*
X142882000Y-103275000D02*
X142882000Y-104099000D01*
X142922000Y-100409000D02*
X142922000Y-101195000D01*
X142922000Y-103275000D02*
X142922000Y-104061000D01*
X142962000Y-100450000D02*
X142962000Y-101195000D01*
X142962000Y-103275000D02*
X142962000Y-104020000D01*
X143002000Y-100492000D02*
X143002000Y-101195000D01*
X143002000Y-103275000D02*
X143002000Y-103978000D01*
X143042000Y-100536000D02*
X143042000Y-101195000D01*
X143042000Y-103275000D02*
X143042000Y-103934000D01*
X143082000Y-100582000D02*
X143082000Y-101195000D01*
X143082000Y-103275000D02*
X143082000Y-103888000D01*
X143122000Y-100630000D02*
X143122000Y-103840000D01*
X143162000Y-100681000D02*
X143162000Y-103789000D01*
X143202000Y-100735000D02*
X143202000Y-103735000D01*
X143242000Y-100792000D02*
X143242000Y-103678000D01*
X143282000Y-100852000D02*
X143282000Y-103618000D01*
X143322000Y-100916000D02*
X143322000Y-103554000D01*
X143362000Y-100984000D02*
X143362000Y-103486000D01*
X143402000Y-101057000D02*
X143402000Y-103413000D01*
X143442000Y-101137000D02*
X143442000Y-103333000D01*
X143482000Y-101224000D02*
X143482000Y-103246000D01*
X143522000Y-101320000D02*
X143522000Y-103150000D01*
X143562000Y-101430000D02*
X143562000Y-103040000D01*
X143602000Y-101558000D02*
X143602000Y-102912000D01*
X143642000Y-101717000D02*
X143642000Y-102753000D01*
X143682000Y-101951000D02*
X143682000Y-102519000D01*
X138276225Y-100760000D02*
X138776225Y-100760000D01*
X138526225Y-100510000D02*
X138526225Y-101010000D01*
X143701000Y-96520000D02*
G75*
G03X143701000Y-96520000I-2620000J0D01*
G01*
X141081000Y-97560000D02*
X141081000Y-99100000D01*
X141081000Y-93940000D02*
X141081000Y-95480000D01*
X141121000Y-97560000D02*
X141121000Y-99100000D01*
X141121000Y-93940000D02*
X141121000Y-95480000D01*
X141161000Y-93941000D02*
X141161000Y-95480000D01*
X141161000Y-97560000D02*
X141161000Y-99099000D01*
X141201000Y-93942000D02*
X141201000Y-95480000D01*
X141201000Y-97560000D02*
X141201000Y-99098000D01*
X141241000Y-93944000D02*
X141241000Y-95480000D01*
X141241000Y-97560000D02*
X141241000Y-99096000D01*
X141281000Y-93947000D02*
X141281000Y-95480000D01*
X141281000Y-97560000D02*
X141281000Y-99093000D01*
X141321000Y-93951000D02*
X141321000Y-95480000D01*
X141321000Y-97560000D02*
X141321000Y-99089000D01*
X141361000Y-93955000D02*
X141361000Y-95480000D01*
X141361000Y-97560000D02*
X141361000Y-99085000D01*
X141401000Y-93959000D02*
X141401000Y-95480000D01*
X141401000Y-97560000D02*
X141401000Y-99081000D01*
X141441000Y-93964000D02*
X141441000Y-95480000D01*
X141441000Y-97560000D02*
X141441000Y-99076000D01*
X141481000Y-93970000D02*
X141481000Y-95480000D01*
X141481000Y-97560000D02*
X141481000Y-99070000D01*
X141521000Y-93977000D02*
X141521000Y-95480000D01*
X141521000Y-97560000D02*
X141521000Y-99063000D01*
X141561000Y-93984000D02*
X141561000Y-95480000D01*
X141561000Y-97560000D02*
X141561000Y-99056000D01*
X141601000Y-93992000D02*
X141601000Y-95480000D01*
X141601000Y-97560000D02*
X141601000Y-99048000D01*
X141641000Y-94000000D02*
X141641000Y-95480000D01*
X141641000Y-97560000D02*
X141641000Y-99040000D01*
X141681000Y-94009000D02*
X141681000Y-95480000D01*
X141681000Y-97560000D02*
X141681000Y-99031000D01*
X141721000Y-94019000D02*
X141721000Y-95480000D01*
X141721000Y-97560000D02*
X141721000Y-99021000D01*
X141761000Y-94029000D02*
X141761000Y-95480000D01*
X141761000Y-97560000D02*
X141761000Y-99011000D01*
X141802000Y-94040000D02*
X141802000Y-95480000D01*
X141802000Y-97560000D02*
X141802000Y-99000000D01*
X141842000Y-94052000D02*
X141842000Y-95480000D01*
X141842000Y-97560000D02*
X141842000Y-98988000D01*
X141882000Y-94065000D02*
X141882000Y-95480000D01*
X141882000Y-97560000D02*
X141882000Y-98975000D01*
X141922000Y-94078000D02*
X141922000Y-95480000D01*
X141922000Y-97560000D02*
X141922000Y-98962000D01*
X141962000Y-94092000D02*
X141962000Y-95480000D01*
X141962000Y-97560000D02*
X141962000Y-98948000D01*
X142002000Y-94106000D02*
X142002000Y-95480000D01*
X142002000Y-97560000D02*
X142002000Y-98934000D01*
X142042000Y-94122000D02*
X142042000Y-95480000D01*
X142042000Y-97560000D02*
X142042000Y-98918000D01*
X142082000Y-94138000D02*
X142082000Y-95480000D01*
X142082000Y-97560000D02*
X142082000Y-98902000D01*
X142122000Y-94155000D02*
X142122000Y-95480000D01*
X142122000Y-97560000D02*
X142122000Y-98885000D01*
X142162000Y-94172000D02*
X142162000Y-95480000D01*
X142162000Y-97560000D02*
X142162000Y-98868000D01*
X142202000Y-94191000D02*
X142202000Y-95480000D01*
X142202000Y-97560000D02*
X142202000Y-98849000D01*
X142242000Y-94210000D02*
X142242000Y-95480000D01*
X142242000Y-97560000D02*
X142242000Y-98830000D01*
X142282000Y-94230000D02*
X142282000Y-95480000D01*
X142282000Y-97560000D02*
X142282000Y-98810000D01*
X142322000Y-94252000D02*
X142322000Y-95480000D01*
X142322000Y-97560000D02*
X142322000Y-98788000D01*
X142362000Y-94273000D02*
X142362000Y-95480000D01*
X142362000Y-97560000D02*
X142362000Y-98767000D01*
X142402000Y-94296000D02*
X142402000Y-95480000D01*
X142402000Y-97560000D02*
X142402000Y-98744000D01*
X142442000Y-94320000D02*
X142442000Y-95480000D01*
X142442000Y-97560000D02*
X142442000Y-98720000D01*
X142482000Y-94345000D02*
X142482000Y-95480000D01*
X142482000Y-97560000D02*
X142482000Y-98695000D01*
X142522000Y-94371000D02*
X142522000Y-95480000D01*
X142522000Y-97560000D02*
X142522000Y-98669000D01*
X142562000Y-94398000D02*
X142562000Y-95480000D01*
X142562000Y-97560000D02*
X142562000Y-98642000D01*
X142602000Y-94425000D02*
X142602000Y-95480000D01*
X142602000Y-97560000D02*
X142602000Y-98615000D01*
X142642000Y-94455000D02*
X142642000Y-95480000D01*
X142642000Y-97560000D02*
X142642000Y-98585000D01*
X142682000Y-94485000D02*
X142682000Y-95480000D01*
X142682000Y-97560000D02*
X142682000Y-98555000D01*
X142722000Y-94516000D02*
X142722000Y-95480000D01*
X142722000Y-97560000D02*
X142722000Y-98524000D01*
X142762000Y-94549000D02*
X142762000Y-95480000D01*
X142762000Y-97560000D02*
X142762000Y-98491000D01*
X142802000Y-94583000D02*
X142802000Y-95480000D01*
X142802000Y-97560000D02*
X142802000Y-98457000D01*
X142842000Y-94619000D02*
X142842000Y-95480000D01*
X142842000Y-97560000D02*
X142842000Y-98421000D01*
X142882000Y-94656000D02*
X142882000Y-95480000D01*
X142882000Y-97560000D02*
X142882000Y-98384000D01*
X142922000Y-94694000D02*
X142922000Y-95480000D01*
X142922000Y-97560000D02*
X142922000Y-98346000D01*
X142962000Y-94735000D02*
X142962000Y-95480000D01*
X142962000Y-97560000D02*
X142962000Y-98305000D01*
X143002000Y-94777000D02*
X143002000Y-95480000D01*
X143002000Y-97560000D02*
X143002000Y-98263000D01*
X143042000Y-94821000D02*
X143042000Y-95480000D01*
X143042000Y-97560000D02*
X143042000Y-98219000D01*
X143082000Y-94867000D02*
X143082000Y-95480000D01*
X143082000Y-97560000D02*
X143082000Y-98173000D01*
X143122000Y-94915000D02*
X143122000Y-98125000D01*
X143162000Y-94966000D02*
X143162000Y-98074000D01*
X143202000Y-95020000D02*
X143202000Y-98020000D01*
X143242000Y-95077000D02*
X143242000Y-97963000D01*
X143282000Y-95137000D02*
X143282000Y-97903000D01*
X143322000Y-95201000D02*
X143322000Y-97839000D01*
X143362000Y-95269000D02*
X143362000Y-97771000D01*
X143402000Y-95342000D02*
X143402000Y-97698000D01*
X143442000Y-95422000D02*
X143442000Y-97618000D01*
X143482000Y-95509000D02*
X143482000Y-97531000D01*
X143522000Y-95605000D02*
X143522000Y-97435000D01*
X143562000Y-95715000D02*
X143562000Y-97325000D01*
X143602000Y-95843000D02*
X143602000Y-97197000D01*
X143642000Y-96002000D02*
X143642000Y-97038000D01*
X143682000Y-96236000D02*
X143682000Y-96804000D01*
X138276225Y-95045000D02*
X138776225Y-95045000D01*
X138526225Y-94795000D02*
X138526225Y-95295000D01*
X150697000Y-95885000D02*
G75*
G03X150697000Y-95885000I-3270000J0D01*
G01*
X147427000Y-92655000D02*
X147427000Y-99115000D01*
X147467000Y-92655000D02*
X147467000Y-99115000D01*
X147507000Y-92655000D02*
X147507000Y-99115000D01*
X147547000Y-92657000D02*
X147547000Y-99113000D01*
X147587000Y-92658000D02*
X147587000Y-99112000D01*
X147627000Y-92661000D02*
X147627000Y-99109000D01*
X147667000Y-92663000D02*
X147667000Y-94845000D01*
X147667000Y-96925000D02*
X147667000Y-99107000D01*
X147707000Y-92667000D02*
X147707000Y-94845000D01*
X147707000Y-96925000D02*
X147707000Y-99103000D01*
X147747000Y-92670000D02*
X147747000Y-94845000D01*
X147747000Y-96925000D02*
X147747000Y-99100000D01*
X147787000Y-92674000D02*
X147787000Y-94845000D01*
X147787000Y-96925000D02*
X147787000Y-99096000D01*
X147827000Y-92679000D02*
X147827000Y-94845000D01*
X147827000Y-96925000D02*
X147827000Y-99091000D01*
X147867000Y-92684000D02*
X147867000Y-94845000D01*
X147867000Y-96925000D02*
X147867000Y-99086000D01*
X147907000Y-92690000D02*
X147907000Y-94845000D01*
X147907000Y-96925000D02*
X147907000Y-99080000D01*
X147947000Y-92696000D02*
X147947000Y-94845000D01*
X147947000Y-96925000D02*
X147947000Y-99074000D01*
X147987000Y-92703000D02*
X147987000Y-94845000D01*
X147987000Y-96925000D02*
X147987000Y-99067000D01*
X148027000Y-92710000D02*
X148027000Y-94845000D01*
X148027000Y-96925000D02*
X148027000Y-99060000D01*
X148067000Y-92718000D02*
X148067000Y-94845000D01*
X148067000Y-96925000D02*
X148067000Y-99052000D01*
X148107000Y-92726000D02*
X148107000Y-94845000D01*
X148107000Y-96925000D02*
X148107000Y-99044000D01*
X148148000Y-92735000D02*
X148148000Y-94845000D01*
X148148000Y-96925000D02*
X148148000Y-99035000D01*
X148188000Y-92744000D02*
X148188000Y-94845000D01*
X148188000Y-96925000D02*
X148188000Y-99026000D01*
X148228000Y-92754000D02*
X148228000Y-94845000D01*
X148228000Y-96925000D02*
X148228000Y-99016000D01*
X148268000Y-92764000D02*
X148268000Y-94845000D01*
X148268000Y-96925000D02*
X148268000Y-99006000D01*
X148308000Y-92775000D02*
X148308000Y-94845000D01*
X148308000Y-96925000D02*
X148308000Y-98995000D01*
X148348000Y-92787000D02*
X148348000Y-94845000D01*
X148348000Y-96925000D02*
X148348000Y-98983000D01*
X148388000Y-92799000D02*
X148388000Y-94845000D01*
X148388000Y-96925000D02*
X148388000Y-98971000D01*
X148428000Y-92811000D02*
X148428000Y-94845000D01*
X148428000Y-96925000D02*
X148428000Y-98959000D01*
X148468000Y-92824000D02*
X148468000Y-94845000D01*
X148468000Y-96925000D02*
X148468000Y-98946000D01*
X148508000Y-92838000D02*
X148508000Y-94845000D01*
X148508000Y-96925000D02*
X148508000Y-98932000D01*
X148548000Y-92852000D02*
X148548000Y-94845000D01*
X148548000Y-96925000D02*
X148548000Y-98918000D01*
X148588000Y-92867000D02*
X148588000Y-94845000D01*
X148588000Y-96925000D02*
X148588000Y-98903000D01*
X148628000Y-92883000D02*
X148628000Y-94845000D01*
X148628000Y-96925000D02*
X148628000Y-98887000D01*
X148668000Y-92899000D02*
X148668000Y-94845000D01*
X148668000Y-96925000D02*
X148668000Y-98871000D01*
X148708000Y-92915000D02*
X148708000Y-94845000D01*
X148708000Y-96925000D02*
X148708000Y-98855000D01*
X148748000Y-92933000D02*
X148748000Y-94845000D01*
X148748000Y-96925000D02*
X148748000Y-98837000D01*
X148788000Y-92951000D02*
X148788000Y-94845000D01*
X148788000Y-96925000D02*
X148788000Y-98819000D01*
X148828000Y-92969000D02*
X148828000Y-94845000D01*
X148828000Y-96925000D02*
X148828000Y-98801000D01*
X148868000Y-92989000D02*
X148868000Y-94845000D01*
X148868000Y-96925000D02*
X148868000Y-98781000D01*
X148908000Y-93009000D02*
X148908000Y-94845000D01*
X148908000Y-96925000D02*
X148908000Y-98761000D01*
X148948000Y-93029000D02*
X148948000Y-94845000D01*
X148948000Y-96925000D02*
X148948000Y-98741000D01*
X148988000Y-93051000D02*
X148988000Y-94845000D01*
X148988000Y-96925000D02*
X148988000Y-98719000D01*
X149028000Y-93073000D02*
X149028000Y-94845000D01*
X149028000Y-96925000D02*
X149028000Y-98697000D01*
X149068000Y-93095000D02*
X149068000Y-94845000D01*
X149068000Y-96925000D02*
X149068000Y-98675000D01*
X149108000Y-93119000D02*
X149108000Y-94845000D01*
X149108000Y-96925000D02*
X149108000Y-98651000D01*
X149148000Y-93143000D02*
X149148000Y-94845000D01*
X149148000Y-96925000D02*
X149148000Y-98627000D01*
X149188000Y-93169000D02*
X149188000Y-94845000D01*
X149188000Y-96925000D02*
X149188000Y-98601000D01*
X149228000Y-93195000D02*
X149228000Y-94845000D01*
X149228000Y-96925000D02*
X149228000Y-98575000D01*
X149268000Y-93221000D02*
X149268000Y-94845000D01*
X149268000Y-96925000D02*
X149268000Y-98549000D01*
X149308000Y-93249000D02*
X149308000Y-94845000D01*
X149308000Y-96925000D02*
X149308000Y-98521000D01*
X149348000Y-93278000D02*
X149348000Y-94845000D01*
X149348000Y-96925000D02*
X149348000Y-98492000D01*
X149388000Y-93307000D02*
X149388000Y-94845000D01*
X149388000Y-96925000D02*
X149388000Y-98463000D01*
X149428000Y-93337000D02*
X149428000Y-94845000D01*
X149428000Y-96925000D02*
X149428000Y-98433000D01*
X149468000Y-93369000D02*
X149468000Y-94845000D01*
X149468000Y-96925000D02*
X149468000Y-98401000D01*
X149508000Y-93401000D02*
X149508000Y-94845000D01*
X149508000Y-96925000D02*
X149508000Y-98369000D01*
X149548000Y-93435000D02*
X149548000Y-94845000D01*
X149548000Y-96925000D02*
X149548000Y-98335000D01*
X149588000Y-93469000D02*
X149588000Y-94845000D01*
X149588000Y-96925000D02*
X149588000Y-98301000D01*
X149628000Y-93505000D02*
X149628000Y-94845000D01*
X149628000Y-96925000D02*
X149628000Y-98265000D01*
X149668000Y-93542000D02*
X149668000Y-94845000D01*
X149668000Y-96925000D02*
X149668000Y-98228000D01*
X149708000Y-93580000D02*
X149708000Y-94845000D01*
X149708000Y-96925000D02*
X149708000Y-98190000D01*
X149748000Y-93620000D02*
X149748000Y-98150000D01*
X149788000Y-93661000D02*
X149788000Y-98109000D01*
X149828000Y-93703000D02*
X149828000Y-98067000D01*
X149868000Y-93748000D02*
X149868000Y-98022000D01*
X149908000Y-93793000D02*
X149908000Y-97977000D01*
X149948000Y-93841000D02*
X149948000Y-97929000D01*
X149988000Y-93890000D02*
X149988000Y-97880000D01*
X150028000Y-93941000D02*
X150028000Y-97829000D01*
X150068000Y-93995000D02*
X150068000Y-97775000D01*
X150108000Y-94051000D02*
X150108000Y-97719000D01*
X150148000Y-94109000D02*
X150148000Y-97661000D01*
X150188000Y-94171000D02*
X150188000Y-97599000D01*
X150228000Y-94235000D02*
X150228000Y-97535000D01*
X150268000Y-94304000D02*
X150268000Y-97466000D01*
X150308000Y-94376000D02*
X150308000Y-97394000D01*
X150348000Y-94453000D02*
X150348000Y-97317000D01*
X150388000Y-94535000D02*
X150388000Y-97235000D01*
X150428000Y-94623000D02*
X150428000Y-97147000D01*
X150468000Y-94720000D02*
X150468000Y-97050000D01*
X150508000Y-94826000D02*
X150508000Y-96944000D01*
X150548000Y-94945000D02*
X150548000Y-96825000D01*
X150588000Y-95083000D02*
X150588000Y-96687000D01*
X150628000Y-95252000D02*
X150628000Y-96518000D01*
X150668000Y-95483000D02*
X150668000Y-96287000D01*
X143926759Y-94046000D02*
X144556759Y-94046000D01*
X144241759Y-93731000D02*
X144241759Y-94361000D01*
X141022000Y-73912252D02*
X141022000Y-73389748D01*
X142442000Y-73912252D02*
X142442000Y-73389748D01*
X142442000Y-77725748D02*
X142442000Y-78248252D01*
X141022000Y-77725748D02*
X141022000Y-78248252D01*
X130880000Y-78920000D02*
X133540000Y-78920000D01*
X130880000Y-71240000D02*
X130880000Y-78920000D01*
X133540000Y-71240000D02*
X133540000Y-78920000D01*
X130880000Y-71240000D02*
X133540000Y-71240000D01*
X130880000Y-69970000D02*
X130880000Y-68640000D01*
X130880000Y-68640000D02*
X132210000Y-68640000D01*
X130880000Y-92890000D02*
X133540000Y-92890000D01*
X130880000Y-82670000D02*
X130880000Y-92890000D01*
X133540000Y-82670000D02*
X133540000Y-92890000D01*
X130880000Y-82670000D02*
X133540000Y-82670000D01*
X130880000Y-81400000D02*
X130880000Y-80070000D01*
X130880000Y-80070000D02*
X132210000Y-80070000D01*
X149436000Y-110102000D02*
X149436000Y-105842000D01*
X149436000Y-105842000D02*
X137116000Y-105842000D01*
X137116000Y-105842000D02*
X137116000Y-110102000D01*
X149436000Y-114202000D02*
X149436000Y-122562000D01*
X149436000Y-122562000D02*
X137116000Y-122562000D01*
X137116000Y-122562000D02*
X137116000Y-114202000D01*
X144526000Y-105622000D02*
X145026000Y-105122000D01*
X145026000Y-105122000D02*
X144026000Y-105122000D01*
X144026000Y-105122000D02*
X144526000Y-105622000D01*
X140268000Y-90618000D02*
X135068000Y-90618000D01*
X140268000Y-90678000D02*
X140268000Y-90618000D01*
X135068000Y-93278000D02*
X135068000Y-90618000D01*
X140268000Y-90678000D02*
X137668000Y-90678000D01*
X137668000Y-90678000D02*
X137668000Y-93278000D01*
X137668000Y-93278000D02*
X135068000Y-93278000D01*
X140268000Y-91948000D02*
X140268000Y-93278000D01*
X140268000Y-93278000D02*
X138938000Y-93278000D01*
X131670000Y-112870000D02*
X134330000Y-112870000D01*
X131670000Y-110270000D02*
X131670000Y-112870000D01*
X134330000Y-110270000D02*
X134330000Y-112870000D01*
X131670000Y-110270000D02*
X134330000Y-110270000D01*
X131670000Y-109000000D02*
X131670000Y-107670000D01*
X131670000Y-107670000D02*
X133000000Y-107670000D01*
X164864000Y-116340000D02*
X164314000Y-116840000D01*
X164864000Y-117340000D02*
X164864000Y-116340000D01*
X164314000Y-116840000D02*
X164864000Y-117340000D01*
D10*
X152014000Y-122640000D02*
X152014000Y-114890000D01*
X152014000Y-110540000D02*
X152014000Y-108140000D01*
X152014000Y-108140000D02*
X163814000Y-108140000D01*
X163814000Y-108140000D02*
X163814000Y-108240000D01*
X163814000Y-110840000D02*
X163814000Y-114590000D01*
X163814000Y-119090000D02*
X163814000Y-122640000D01*
X163814000Y-122640000D02*
X152014000Y-122640000D01*
X155114000Y-122640000D02*
X155114000Y-126240000D01*
X155114000Y-126240000D02*
X161314000Y-126240000D01*
X161314000Y-126240000D02*
X161314000Y-122640000D01*
D11*
X142442000Y-82566252D02*
X142442000Y-82043748D01*
X141022000Y-82566252D02*
X141022000Y-82043748D01*
X136290252Y-80690000D02*
X135767748Y-80690000D01*
X136290252Y-82110000D02*
X135767748Y-82110000D01*
X136272252Y-89730000D02*
X135749748Y-89730000D01*
X136272252Y-88310000D02*
X135749748Y-88310000D01*
X136290252Y-85770000D02*
X135767748Y-85770000D01*
X136290252Y-87190000D02*
X135767748Y-87190000D01*
X136290252Y-84650000D02*
X135767748Y-84650000D01*
X136290252Y-83230000D02*
X135767748Y-83230000D01*
X136272252Y-69260000D02*
X135749748Y-69260000D01*
X136272252Y-70680000D02*
X135749748Y-70680000D01*
X136281252Y-73220000D02*
X135758748Y-73220000D01*
X136281252Y-71800000D02*
X135758748Y-71800000D01*
X136272252Y-75760000D02*
X135749748Y-75760000D01*
X136272252Y-74340000D02*
X135749748Y-74340000D01*
D12*
X131747390Y-104375733D02*
X131509295Y-104542400D01*
X131747390Y-104661447D02*
X131247390Y-104661447D01*
X131247390Y-104470971D01*
X131271200Y-104423352D01*
X131295009Y-104399542D01*
X131342628Y-104375733D01*
X131414057Y-104375733D01*
X131461676Y-104399542D01*
X131485485Y-104423352D01*
X131509295Y-104470971D01*
X131509295Y-104661447D01*
X131747390Y-104137638D02*
X131747390Y-104042400D01*
X131723580Y-103994780D01*
X131699771Y-103970971D01*
X131628342Y-103923352D01*
X131533104Y-103899542D01*
X131342628Y-103899542D01*
X131295009Y-103923352D01*
X131271200Y-103947161D01*
X131247390Y-103994780D01*
X131247390Y-104090019D01*
X131271200Y-104137638D01*
X131295009Y-104161447D01*
X131342628Y-104185257D01*
X131461676Y-104185257D01*
X131509295Y-104161447D01*
X131533104Y-104137638D01*
X131556914Y-104090019D01*
X131556914Y-103994780D01*
X131533104Y-103947161D01*
X131509295Y-103923352D01*
X131461676Y-103899542D01*
X135557390Y-104664628D02*
X135319295Y-104831295D01*
X135557390Y-104950342D02*
X135057390Y-104950342D01*
X135057390Y-104759866D01*
X135081200Y-104712247D01*
X135105009Y-104688438D01*
X135152628Y-104664628D01*
X135224057Y-104664628D01*
X135271676Y-104688438D01*
X135295485Y-104712247D01*
X135319295Y-104759866D01*
X135319295Y-104950342D01*
X135557390Y-104188438D02*
X135557390Y-104474152D01*
X135557390Y-104331295D02*
X135057390Y-104331295D01*
X135128819Y-104378914D01*
X135176438Y-104426533D01*
X135200247Y-104474152D01*
X135057390Y-103878914D02*
X135057390Y-103831295D01*
X135081200Y-103783676D01*
X135105009Y-103759866D01*
X135152628Y-103736057D01*
X135247866Y-103712247D01*
X135366914Y-103712247D01*
X135462152Y-103736057D01*
X135509771Y-103759866D01*
X135533580Y-103783676D01*
X135557390Y-103831295D01*
X135557390Y-103878914D01*
X135533580Y-103926533D01*
X135509771Y-103950342D01*
X135462152Y-103974152D01*
X135366914Y-103997961D01*
X135247866Y-103997961D01*
X135152628Y-103974152D01*
X135105009Y-103950342D01*
X135081200Y-103926533D01*
X135057390Y-103878914D01*
D10*
X132207095Y-97369380D02*
X132207095Y-98178904D01*
X132254714Y-98274142D01*
X132302333Y-98321761D01*
X132397571Y-98369380D01*
X132588047Y-98369380D01*
X132683285Y-98321761D01*
X132730904Y-98274142D01*
X132778523Y-98178904D01*
X132778523Y-97369380D01*
X133778523Y-98369380D02*
X133207095Y-98369380D01*
X133492809Y-98369380D02*
X133492809Y-97369380D01*
X133397571Y-97512238D01*
X133302333Y-97607476D01*
X133207095Y-97655095D01*
D12*
X165681790Y-82693628D02*
X165443695Y-82860295D01*
X165681790Y-82979342D02*
X165181790Y-82979342D01*
X165181790Y-82788866D01*
X165205600Y-82741247D01*
X165229409Y-82717438D01*
X165277028Y-82693628D01*
X165348457Y-82693628D01*
X165396076Y-82717438D01*
X165419885Y-82741247D01*
X165443695Y-82788866D01*
X165443695Y-82979342D01*
X165681790Y-82217438D02*
X165681790Y-82503152D01*
X165681790Y-82360295D02*
X165181790Y-82360295D01*
X165253219Y-82407914D01*
X165300838Y-82455533D01*
X165324647Y-82503152D01*
X165181790Y-81788866D02*
X165181790Y-81884104D01*
X165205600Y-81931723D01*
X165229409Y-81955533D01*
X165300838Y-82003152D01*
X165396076Y-82026961D01*
X165586552Y-82026961D01*
X165634171Y-82003152D01*
X165657980Y-81979342D01*
X165681790Y-81931723D01*
X165681790Y-81836485D01*
X165657980Y-81788866D01*
X165634171Y-81765057D01*
X165586552Y-81741247D01*
X165467504Y-81741247D01*
X165419885Y-81765057D01*
X165396076Y-81788866D01*
X165372266Y-81836485D01*
X165372266Y-81931723D01*
X165396076Y-81979342D01*
X165419885Y-82003152D01*
X165467504Y-82026961D01*
X165656390Y-72533628D02*
X165418295Y-72700295D01*
X165656390Y-72819342D02*
X165156390Y-72819342D01*
X165156390Y-72628866D01*
X165180200Y-72581247D01*
X165204009Y-72557438D01*
X165251628Y-72533628D01*
X165323057Y-72533628D01*
X165370676Y-72557438D01*
X165394485Y-72581247D01*
X165418295Y-72628866D01*
X165418295Y-72819342D01*
X165656390Y-72057438D02*
X165656390Y-72343152D01*
X165656390Y-72200295D02*
X165156390Y-72200295D01*
X165227819Y-72247914D01*
X165275438Y-72295533D01*
X165299247Y-72343152D01*
X165204009Y-71866961D02*
X165180200Y-71843152D01*
X165156390Y-71795533D01*
X165156390Y-71676485D01*
X165180200Y-71628866D01*
X165204009Y-71605057D01*
X165251628Y-71581247D01*
X165299247Y-71581247D01*
X165370676Y-71605057D01*
X165656390Y-71890771D01*
X165656390Y-71581247D01*
X165681790Y-75073628D02*
X165443695Y-75240295D01*
X165681790Y-75359342D02*
X165181790Y-75359342D01*
X165181790Y-75168866D01*
X165205600Y-75121247D01*
X165229409Y-75097438D01*
X165277028Y-75073628D01*
X165348457Y-75073628D01*
X165396076Y-75097438D01*
X165419885Y-75121247D01*
X165443695Y-75168866D01*
X165443695Y-75359342D01*
X165681790Y-74597438D02*
X165681790Y-74883152D01*
X165681790Y-74740295D02*
X165181790Y-74740295D01*
X165253219Y-74787914D01*
X165300838Y-74835533D01*
X165324647Y-74883152D01*
X165181790Y-74430771D02*
X165181790Y-74121247D01*
X165372266Y-74287914D01*
X165372266Y-74216485D01*
X165396076Y-74168866D01*
X165419885Y-74145057D01*
X165467504Y-74121247D01*
X165586552Y-74121247D01*
X165634171Y-74145057D01*
X165657980Y-74168866D01*
X165681790Y-74216485D01*
X165681790Y-74359342D01*
X165657980Y-74406961D01*
X165634171Y-74430771D01*
X165681790Y-77613628D02*
X165443695Y-77780295D01*
X165681790Y-77899342D02*
X165181790Y-77899342D01*
X165181790Y-77708866D01*
X165205600Y-77661247D01*
X165229409Y-77637438D01*
X165277028Y-77613628D01*
X165348457Y-77613628D01*
X165396076Y-77637438D01*
X165419885Y-77661247D01*
X165443695Y-77708866D01*
X165443695Y-77899342D01*
X165681790Y-77137438D02*
X165681790Y-77423152D01*
X165681790Y-77280295D02*
X165181790Y-77280295D01*
X165253219Y-77327914D01*
X165300838Y-77375533D01*
X165324647Y-77423152D01*
X165348457Y-76708866D02*
X165681790Y-76708866D01*
X165157980Y-76827914D02*
X165515123Y-76946961D01*
X165515123Y-76637438D01*
X165681790Y-69993628D02*
X165443695Y-70160295D01*
X165681790Y-70279342D02*
X165181790Y-70279342D01*
X165181790Y-70088866D01*
X165205600Y-70041247D01*
X165229409Y-70017438D01*
X165277028Y-69993628D01*
X165348457Y-69993628D01*
X165396076Y-70017438D01*
X165419885Y-70041247D01*
X165443695Y-70088866D01*
X165443695Y-70279342D01*
X165681790Y-69517438D02*
X165681790Y-69803152D01*
X165681790Y-69660295D02*
X165181790Y-69660295D01*
X165253219Y-69707914D01*
X165300838Y-69755533D01*
X165324647Y-69803152D01*
X165681790Y-69041247D02*
X165681790Y-69326961D01*
X165681790Y-69184104D02*
X165181790Y-69184104D01*
X165253219Y-69231723D01*
X165300838Y-69279342D01*
X165324647Y-69326961D01*
X165681790Y-80153628D02*
X165443695Y-80320295D01*
X165681790Y-80439342D02*
X165181790Y-80439342D01*
X165181790Y-80248866D01*
X165205600Y-80201247D01*
X165229409Y-80177438D01*
X165277028Y-80153628D01*
X165348457Y-80153628D01*
X165396076Y-80177438D01*
X165419885Y-80201247D01*
X165443695Y-80248866D01*
X165443695Y-80439342D01*
X165681790Y-79677438D02*
X165681790Y-79963152D01*
X165681790Y-79820295D02*
X165181790Y-79820295D01*
X165253219Y-79867914D01*
X165300838Y-79915533D01*
X165324647Y-79963152D01*
X165181790Y-79225057D02*
X165181790Y-79463152D01*
X165419885Y-79486961D01*
X165396076Y-79463152D01*
X165372266Y-79415533D01*
X165372266Y-79296485D01*
X165396076Y-79248866D01*
X165419885Y-79225057D01*
X165467504Y-79201247D01*
X165586552Y-79201247D01*
X165634171Y-79225057D01*
X165657980Y-79248866D01*
X165681790Y-79296485D01*
X165681790Y-79415533D01*
X165657980Y-79463152D01*
X165634171Y-79486961D01*
D10*
X168830666Y-69048380D02*
X168830666Y-69762666D01*
X168783047Y-69905523D01*
X168687809Y-70000761D01*
X168544952Y-70048380D01*
X168449714Y-70048380D01*
X169735428Y-69048380D02*
X169544952Y-69048380D01*
X169449714Y-69096000D01*
X169402095Y-69143619D01*
X169306857Y-69286476D01*
X169259238Y-69476952D01*
X169259238Y-69857904D01*
X169306857Y-69953142D01*
X169354476Y-70000761D01*
X169449714Y-70048380D01*
X169640190Y-70048380D01*
X169735428Y-70000761D01*
X169783047Y-69953142D01*
X169830666Y-69857904D01*
X169830666Y-69619809D01*
X169783047Y-69524571D01*
X169735428Y-69476952D01*
X169640190Y-69429333D01*
X169449714Y-69429333D01*
X169354476Y-69476952D01*
X169306857Y-69524571D01*
X169259238Y-69619809D01*
X162709266Y-60894980D02*
X162709266Y-61609266D01*
X162661647Y-61752123D01*
X162566409Y-61847361D01*
X162423552Y-61894980D01*
X162328314Y-61894980D01*
X163328314Y-61323552D02*
X163233076Y-61275933D01*
X163185457Y-61228314D01*
X163137838Y-61133076D01*
X163137838Y-61085457D01*
X163185457Y-60990219D01*
X163233076Y-60942600D01*
X163328314Y-60894980D01*
X163518790Y-60894980D01*
X163614028Y-60942600D01*
X163661647Y-60990219D01*
X163709266Y-61085457D01*
X163709266Y-61133076D01*
X163661647Y-61228314D01*
X163614028Y-61275933D01*
X163518790Y-61323552D01*
X163328314Y-61323552D01*
X163233076Y-61371171D01*
X163185457Y-61418790D01*
X163137838Y-61514028D01*
X163137838Y-61704504D01*
X163185457Y-61799742D01*
X163233076Y-61847361D01*
X163328314Y-61894980D01*
X163518790Y-61894980D01*
X163614028Y-61847361D01*
X163661647Y-61799742D01*
X163709266Y-61704504D01*
X163709266Y-61514028D01*
X163661647Y-61418790D01*
X163614028Y-61371171D01*
X163518790Y-61323552D01*
X166433666Y-119451380D02*
X166100333Y-118975190D01*
X165862238Y-119451380D02*
X165862238Y-118451380D01*
X166243190Y-118451380D01*
X166338428Y-118499000D01*
X166386047Y-118546619D01*
X166433666Y-118641857D01*
X166433666Y-118784714D01*
X166386047Y-118879952D01*
X166338428Y-118927571D01*
X166243190Y-118975190D01*
X165862238Y-118975190D01*
X166862238Y-118927571D02*
X167195571Y-118927571D01*
X167338428Y-119451380D02*
X166862238Y-119451380D01*
X166862238Y-118451380D01*
X167338428Y-118451380D01*
X168100333Y-118927571D02*
X167767000Y-118927571D01*
X167767000Y-119451380D02*
X167767000Y-118451380D01*
X168243190Y-118451380D01*
X168767000Y-118451380D02*
X168767000Y-118689476D01*
X168528904Y-118594238D02*
X168767000Y-118689476D01*
X169005095Y-118594238D01*
X168624142Y-118879952D02*
X168767000Y-118689476D01*
X168909857Y-118879952D01*
X169528904Y-118451380D02*
X169528904Y-118689476D01*
X169290809Y-118594238D02*
X169528904Y-118689476D01*
X169767000Y-118594238D01*
X169386047Y-118879952D02*
X169528904Y-118689476D01*
X169671761Y-118879952D01*
X166941666Y-63444380D02*
X166608333Y-62968190D01*
X166370238Y-63444380D02*
X166370238Y-62444380D01*
X166751190Y-62444380D01*
X166846428Y-62492000D01*
X166894047Y-62539619D01*
X166941666Y-62634857D01*
X166941666Y-62777714D01*
X166894047Y-62872952D01*
X166846428Y-62920571D01*
X166751190Y-62968190D01*
X166370238Y-62968190D01*
X167370238Y-62920571D02*
X167703571Y-62920571D01*
X167846428Y-63444380D02*
X167370238Y-63444380D01*
X167370238Y-62444380D01*
X167846428Y-62444380D01*
X168608333Y-62920571D02*
X168275000Y-62920571D01*
X168275000Y-63444380D02*
X168275000Y-62444380D01*
X168751190Y-62444380D01*
X169275000Y-62444380D02*
X169275000Y-62682476D01*
X169036904Y-62587238D02*
X169275000Y-62682476D01*
X169513095Y-62587238D01*
X169132142Y-62872952D02*
X169275000Y-62682476D01*
X169417857Y-62872952D01*
X170036904Y-62444380D02*
X170036904Y-62682476D01*
X169798809Y-62587238D02*
X170036904Y-62682476D01*
X170275000Y-62587238D01*
X169894047Y-62872952D02*
X170036904Y-62682476D01*
X170179761Y-62872952D01*
X131666666Y-119578380D02*
X131333333Y-119102190D01*
X131095238Y-119578380D02*
X131095238Y-118578380D01*
X131476190Y-118578380D01*
X131571428Y-118626000D01*
X131619047Y-118673619D01*
X131666666Y-118768857D01*
X131666666Y-118911714D01*
X131619047Y-119006952D01*
X131571428Y-119054571D01*
X131476190Y-119102190D01*
X131095238Y-119102190D01*
X132095238Y-119054571D02*
X132428571Y-119054571D01*
X132571428Y-119578380D02*
X132095238Y-119578380D01*
X132095238Y-118578380D01*
X132571428Y-118578380D01*
X133333333Y-119054571D02*
X133000000Y-119054571D01*
X133000000Y-119578380D02*
X133000000Y-118578380D01*
X133476190Y-118578380D01*
X134000000Y-118578380D02*
X134000000Y-118816476D01*
X133761904Y-118721238D02*
X134000000Y-118816476D01*
X134238095Y-118721238D01*
X133857142Y-119006952D02*
X134000000Y-118816476D01*
X134142857Y-119006952D01*
X134761904Y-118578380D02*
X134761904Y-118816476D01*
X134523809Y-118721238D02*
X134761904Y-118816476D01*
X135000000Y-118721238D01*
X134619047Y-119006952D02*
X134761904Y-118816476D01*
X134904761Y-119006952D01*
X131635666Y-63571380D02*
X131302333Y-63095190D01*
X131064238Y-63571380D02*
X131064238Y-62571380D01*
X131445190Y-62571380D01*
X131540428Y-62619000D01*
X131588047Y-62666619D01*
X131635666Y-62761857D01*
X131635666Y-62904714D01*
X131588047Y-62999952D01*
X131540428Y-63047571D01*
X131445190Y-63095190D01*
X131064238Y-63095190D01*
X132064238Y-63047571D02*
X132397571Y-63047571D01*
X132540428Y-63571380D02*
X132064238Y-63571380D01*
X132064238Y-62571380D01*
X132540428Y-62571380D01*
X133302333Y-63047571D02*
X132969000Y-63047571D01*
X132969000Y-63571380D02*
X132969000Y-62571380D01*
X133445190Y-62571380D01*
X133969000Y-62571380D02*
X133969000Y-62809476D01*
X133730904Y-62714238D02*
X133969000Y-62809476D01*
X134207095Y-62714238D01*
X133826142Y-62999952D02*
X133969000Y-62809476D01*
X134111857Y-62999952D01*
X134730904Y-62571380D02*
X134730904Y-62809476D01*
X134492809Y-62714238D02*
X134730904Y-62809476D01*
X134969000Y-62714238D01*
X134588047Y-62999952D02*
X134730904Y-62809476D01*
X134873761Y-62999952D01*
X165227095Y-100671380D02*
X165227095Y-101480904D01*
X165274714Y-101576142D01*
X165322333Y-101623761D01*
X165417571Y-101671380D01*
X165608047Y-101671380D01*
X165703285Y-101623761D01*
X165750904Y-101576142D01*
X165798523Y-101480904D01*
X165798523Y-100671380D01*
X166179476Y-100671380D02*
X166798523Y-100671380D01*
X166465190Y-101052333D01*
X166608047Y-101052333D01*
X166703285Y-101099952D01*
X166750904Y-101147571D01*
X166798523Y-101242809D01*
X166798523Y-101480904D01*
X166750904Y-101576142D01*
X166703285Y-101623761D01*
X166608047Y-101671380D01*
X166322333Y-101671380D01*
X166227095Y-101623761D01*
X166179476Y-101576142D01*
X149808095Y-70462380D02*
X149808095Y-71271904D01*
X149855714Y-71367142D01*
X149903333Y-71414761D01*
X149998571Y-71462380D01*
X150189047Y-71462380D01*
X150284285Y-71414761D01*
X150331904Y-71367142D01*
X150379523Y-71271904D01*
X150379523Y-70462380D01*
X150808095Y-70557619D02*
X150855714Y-70510000D01*
X150950952Y-70462380D01*
X151189047Y-70462380D01*
X151284285Y-70510000D01*
X151331904Y-70557619D01*
X151379523Y-70652857D01*
X151379523Y-70748095D01*
X151331904Y-70890952D01*
X150760476Y-71462380D01*
X151379523Y-71462380D01*
X148108571Y-69457142D02*
X148060952Y-69504761D01*
X147918095Y-69552380D01*
X147822857Y-69552380D01*
X147680000Y-69504761D01*
X147584761Y-69409523D01*
X147537142Y-69314285D01*
X147489523Y-69123809D01*
X147489523Y-68980952D01*
X147537142Y-68790476D01*
X147584761Y-68695238D01*
X147680000Y-68600000D01*
X147822857Y-68552380D01*
X147918095Y-68552380D01*
X148060952Y-68600000D01*
X148108571Y-68647619D01*
X148489523Y-69504761D02*
X148632380Y-69552380D01*
X148870476Y-69552380D01*
X148965714Y-69504761D01*
X149013333Y-69457142D01*
X149060952Y-69361904D01*
X149060952Y-69266666D01*
X149013333Y-69171428D01*
X148965714Y-69123809D01*
X148870476Y-69076190D01*
X148680000Y-69028571D01*
X148584761Y-68980952D01*
X148537142Y-68933333D01*
X148489523Y-68838095D01*
X148489523Y-68742857D01*
X148537142Y-68647619D01*
X148584761Y-68600000D01*
X148680000Y-68552380D01*
X148918095Y-68552380D01*
X149060952Y-68600000D01*
X150060952Y-69552380D02*
X149727619Y-69076190D01*
X149489523Y-69552380D02*
X149489523Y-68552380D01*
X149870476Y-68552380D01*
X149965714Y-68600000D01*
X150013333Y-68647619D01*
X150060952Y-68742857D01*
X150060952Y-68885714D01*
X150013333Y-68980952D01*
X149965714Y-69028571D01*
X149870476Y-69076190D01*
X149489523Y-69076190D01*
X150632380Y-68980952D02*
X150537142Y-68933333D01*
X150489523Y-68885714D01*
X150441904Y-68790476D01*
X150441904Y-68742857D01*
X150489523Y-68647619D01*
X150537142Y-68600000D01*
X150632380Y-68552380D01*
X150822857Y-68552380D01*
X150918095Y-68600000D01*
X150965714Y-68647619D01*
X151013333Y-68742857D01*
X151013333Y-68790476D01*
X150965714Y-68885714D01*
X150918095Y-68933333D01*
X150822857Y-68980952D01*
X150632380Y-68980952D01*
X150537142Y-69028571D01*
X150489523Y-69076190D01*
X150441904Y-69171428D01*
X150441904Y-69361904D01*
X150489523Y-69457142D01*
X150537142Y-69504761D01*
X150632380Y-69552380D01*
X150822857Y-69552380D01*
X150918095Y-69504761D01*
X150965714Y-69457142D01*
X151013333Y-69361904D01*
X151013333Y-69171428D01*
X150965714Y-69076190D01*
X150918095Y-69028571D01*
X150822857Y-68980952D01*
X151870476Y-68552380D02*
X151680000Y-68552380D01*
X151584761Y-68600000D01*
X151537142Y-68647619D01*
X151441904Y-68790476D01*
X151394285Y-68980952D01*
X151394285Y-69361904D01*
X151441904Y-69457142D01*
X151489523Y-69504761D01*
X151584761Y-69552380D01*
X151775238Y-69552380D01*
X151870476Y-69504761D01*
X151918095Y-69457142D01*
X151965714Y-69361904D01*
X151965714Y-69123809D01*
X151918095Y-69028571D01*
X151870476Y-68980952D01*
X151775238Y-68933333D01*
X151584761Y-68933333D01*
X151489523Y-68980952D01*
X151441904Y-69028571D01*
X151394285Y-69123809D01*
X152822857Y-68885714D02*
X152822857Y-69552380D01*
X152584761Y-68504761D02*
X152346666Y-69219047D01*
X152965714Y-69219047D01*
X153822857Y-68552380D02*
X153346666Y-68552380D01*
X153299047Y-69028571D01*
X153346666Y-68980952D01*
X153441904Y-68933333D01*
X153680000Y-68933333D01*
X153775238Y-68980952D01*
X153822857Y-69028571D01*
X153870476Y-69123809D01*
X153870476Y-69361904D01*
X153822857Y-69457142D01*
X153775238Y-69504761D01*
X153680000Y-69552380D01*
X153441904Y-69552380D01*
X153346666Y-69504761D01*
X153299047Y-69457142D01*
D12*
X144681580Y-85948009D02*
X144633961Y-85924200D01*
X144586342Y-85876580D01*
X144514914Y-85805152D01*
X144467295Y-85781342D01*
X144419676Y-85781342D01*
X144443485Y-85900390D02*
X144395866Y-85876580D01*
X144348247Y-85828961D01*
X144324438Y-85733723D01*
X144324438Y-85567057D01*
X144348247Y-85471819D01*
X144395866Y-85424200D01*
X144443485Y-85400390D01*
X144538723Y-85400390D01*
X144586342Y-85424200D01*
X144633961Y-85471819D01*
X144657771Y-85567057D01*
X144657771Y-85733723D01*
X144633961Y-85828961D01*
X144586342Y-85876580D01*
X144538723Y-85900390D01*
X144443485Y-85900390D01*
X145133961Y-85900390D02*
X144848247Y-85900390D01*
X144991104Y-85900390D02*
X144991104Y-85400390D01*
X144943485Y-85471819D01*
X144895866Y-85519438D01*
X144848247Y-85543247D01*
X149324190Y-85005028D02*
X149086095Y-85171695D01*
X149324190Y-85290742D02*
X148824190Y-85290742D01*
X148824190Y-85100266D01*
X148848000Y-85052647D01*
X148871809Y-85028838D01*
X148919428Y-85005028D01*
X148990857Y-85005028D01*
X149038476Y-85028838D01*
X149062285Y-85052647D01*
X149086095Y-85100266D01*
X149086095Y-85290742D01*
X149324190Y-84528838D02*
X149324190Y-84814552D01*
X149324190Y-84671695D02*
X148824190Y-84671695D01*
X148895619Y-84719314D01*
X148943238Y-84766933D01*
X148967047Y-84814552D01*
X148824190Y-84362171D02*
X148824190Y-84028838D01*
X149324190Y-84243123D01*
X149349590Y-87037028D02*
X149111495Y-87203695D01*
X149349590Y-87322742D02*
X148849590Y-87322742D01*
X148849590Y-87132266D01*
X148873400Y-87084647D01*
X148897209Y-87060838D01*
X148944828Y-87037028D01*
X149016257Y-87037028D01*
X149063876Y-87060838D01*
X149087685Y-87084647D01*
X149111495Y-87132266D01*
X149111495Y-87322742D01*
X149349590Y-86560838D02*
X149349590Y-86846552D01*
X149349590Y-86703695D02*
X148849590Y-86703695D01*
X148921019Y-86751314D01*
X148968638Y-86798933D01*
X148992447Y-86846552D01*
X149063876Y-86275123D02*
X149040066Y-86322742D01*
X149016257Y-86346552D01*
X148968638Y-86370361D01*
X148944828Y-86370361D01*
X148897209Y-86346552D01*
X148873400Y-86322742D01*
X148849590Y-86275123D01*
X148849590Y-86179885D01*
X148873400Y-86132266D01*
X148897209Y-86108457D01*
X148944828Y-86084647D01*
X148968638Y-86084647D01*
X149016257Y-86108457D01*
X149040066Y-86132266D01*
X149063876Y-86179885D01*
X149063876Y-86275123D01*
X149087685Y-86322742D01*
X149111495Y-86346552D01*
X149159114Y-86370361D01*
X149254352Y-86370361D01*
X149301971Y-86346552D01*
X149325780Y-86322742D01*
X149349590Y-86275123D01*
X149349590Y-86179885D01*
X149325780Y-86132266D01*
X149301971Y-86108457D01*
X149254352Y-86084647D01*
X149159114Y-86084647D01*
X149111495Y-86108457D01*
X149087685Y-86132266D01*
X149063876Y-86179885D01*
X145514190Y-82973028D02*
X145276095Y-83139695D01*
X145514190Y-83258742D02*
X145014190Y-83258742D01*
X145014190Y-83068266D01*
X145038000Y-83020647D01*
X145061809Y-82996838D01*
X145109428Y-82973028D01*
X145180857Y-82973028D01*
X145228476Y-82996838D01*
X145252285Y-83020647D01*
X145276095Y-83068266D01*
X145276095Y-83258742D01*
X145514190Y-82496838D02*
X145514190Y-82782552D01*
X145514190Y-82639695D02*
X145014190Y-82639695D01*
X145085619Y-82687314D01*
X145133238Y-82734933D01*
X145157047Y-82782552D01*
X145514190Y-82258742D02*
X145514190Y-82163504D01*
X145490380Y-82115885D01*
X145466571Y-82092076D01*
X145395142Y-82044457D01*
X145299904Y-82020647D01*
X145109428Y-82020647D01*
X145061809Y-82044457D01*
X145038000Y-82068266D01*
X145014190Y-82115885D01*
X145014190Y-82211123D01*
X145038000Y-82258742D01*
X145061809Y-82282552D01*
X145109428Y-82306361D01*
X145228476Y-82306361D01*
X145276095Y-82282552D01*
X145299904Y-82258742D01*
X145323714Y-82211123D01*
X145323714Y-82115885D01*
X145299904Y-82068266D01*
X145276095Y-82044457D01*
X145228476Y-82020647D01*
X149301971Y-82684133D02*
X149325780Y-82707942D01*
X149349590Y-82779371D01*
X149349590Y-82826990D01*
X149325780Y-82898419D01*
X149278161Y-82946038D01*
X149230542Y-82969847D01*
X149135304Y-82993657D01*
X149063876Y-82993657D01*
X148968638Y-82969847D01*
X148921019Y-82946038D01*
X148873400Y-82898419D01*
X148849590Y-82826990D01*
X148849590Y-82779371D01*
X148873400Y-82707942D01*
X148897209Y-82684133D01*
X148849590Y-82255561D02*
X148849590Y-82350800D01*
X148873400Y-82398419D01*
X148897209Y-82422228D01*
X148968638Y-82469847D01*
X149063876Y-82493657D01*
X149254352Y-82493657D01*
X149301971Y-82469847D01*
X149325780Y-82446038D01*
X149349590Y-82398419D01*
X149349590Y-82303180D01*
X149325780Y-82255561D01*
X149301971Y-82231752D01*
X149254352Y-82207942D01*
X149135304Y-82207942D01*
X149087685Y-82231752D01*
X149063876Y-82255561D01*
X149040066Y-82303180D01*
X149040066Y-82398419D01*
X149063876Y-82446038D01*
X149087685Y-82469847D01*
X149135304Y-82493657D01*
D10*
X145629333Y-101068142D02*
X145581714Y-101115761D01*
X145438857Y-101163380D01*
X145343619Y-101163380D01*
X145200761Y-101115761D01*
X145105523Y-101020523D01*
X145057904Y-100925285D01*
X145010285Y-100734809D01*
X145010285Y-100591952D01*
X145057904Y-100401476D01*
X145105523Y-100306238D01*
X145200761Y-100211000D01*
X145343619Y-100163380D01*
X145438857Y-100163380D01*
X145581714Y-100211000D01*
X145629333Y-100258619D01*
X146105523Y-101163380D02*
X146296000Y-101163380D01*
X146391238Y-101115761D01*
X146438857Y-101068142D01*
X146534095Y-100925285D01*
X146581714Y-100734809D01*
X146581714Y-100353857D01*
X146534095Y-100258619D01*
X146486476Y-100211000D01*
X146391238Y-100163380D01*
X146200761Y-100163380D01*
X146105523Y-100211000D01*
X146057904Y-100258619D01*
X146010285Y-100353857D01*
X146010285Y-100591952D01*
X146057904Y-100687190D01*
X146105523Y-100734809D01*
X146200761Y-100782428D01*
X146391238Y-100782428D01*
X146486476Y-100734809D01*
X146534095Y-100687190D01*
X146581714Y-100591952D01*
D12*
X136195571Y-77680333D02*
X136219380Y-77704142D01*
X136243190Y-77775571D01*
X136243190Y-77823190D01*
X136219380Y-77894619D01*
X136171761Y-77942238D01*
X136124142Y-77966047D01*
X136028904Y-77989857D01*
X135957476Y-77989857D01*
X135862238Y-77966047D01*
X135814619Y-77942238D01*
X135767000Y-77894619D01*
X135743190Y-77823190D01*
X135743190Y-77775571D01*
X135767000Y-77704142D01*
X135790809Y-77680333D01*
X136243190Y-77204142D02*
X136243190Y-77489857D01*
X136243190Y-77347000D02*
X135743190Y-77347000D01*
X135814619Y-77394619D01*
X135862238Y-77442238D01*
X135886047Y-77489857D01*
D10*
X139914333Y-101068142D02*
X139866714Y-101115761D01*
X139723857Y-101163380D01*
X139628619Y-101163380D01*
X139485761Y-101115761D01*
X139390523Y-101020523D01*
X139342904Y-100925285D01*
X139295285Y-100734809D01*
X139295285Y-100591952D01*
X139342904Y-100401476D01*
X139390523Y-100306238D01*
X139485761Y-100211000D01*
X139628619Y-100163380D01*
X139723857Y-100163380D01*
X139866714Y-100211000D01*
X139914333Y-100258619D01*
X140295285Y-100258619D02*
X140342904Y-100211000D01*
X140438142Y-100163380D01*
X140676238Y-100163380D01*
X140771476Y-100211000D01*
X140819095Y-100258619D01*
X140866714Y-100353857D01*
X140866714Y-100449095D01*
X140819095Y-100591952D01*
X140247666Y-101163380D01*
X140866714Y-101163380D01*
X139914333Y-95353142D02*
X139866714Y-95400761D01*
X139723857Y-95448380D01*
X139628619Y-95448380D01*
X139485761Y-95400761D01*
X139390523Y-95305523D01*
X139342904Y-95210285D01*
X139295285Y-95019809D01*
X139295285Y-94876952D01*
X139342904Y-94686476D01*
X139390523Y-94591238D01*
X139485761Y-94496000D01*
X139628619Y-94448380D01*
X139723857Y-94448380D01*
X139866714Y-94496000D01*
X139914333Y-94543619D01*
X140247666Y-94448380D02*
X140866714Y-94448380D01*
X140533380Y-94829333D01*
X140676238Y-94829333D01*
X140771476Y-94876952D01*
X140819095Y-94924571D01*
X140866714Y-95019809D01*
X140866714Y-95257904D01*
X140819095Y-95353142D01*
X140771476Y-95400761D01*
X140676238Y-95448380D01*
X140390523Y-95448380D01*
X140295285Y-95400761D01*
X140247666Y-95353142D01*
X146010333Y-94464142D02*
X145962714Y-94511761D01*
X145819857Y-94559380D01*
X145724619Y-94559380D01*
X145581761Y-94511761D01*
X145486523Y-94416523D01*
X145438904Y-94321285D01*
X145391285Y-94130809D01*
X145391285Y-93987952D01*
X145438904Y-93797476D01*
X145486523Y-93702238D01*
X145581761Y-93607000D01*
X145724619Y-93559380D01*
X145819857Y-93559380D01*
X145962714Y-93607000D01*
X146010333Y-93654619D01*
X146915095Y-93559380D02*
X146438904Y-93559380D01*
X146391285Y-94035571D01*
X146438904Y-93987952D01*
X146534142Y-93940333D01*
X146772238Y-93940333D01*
X146867476Y-93987952D01*
X146915095Y-94035571D01*
X146962714Y-94130809D01*
X146962714Y-94368904D01*
X146915095Y-94464142D01*
X146867476Y-94511761D01*
X146772238Y-94559380D01*
X146534142Y-94559380D01*
X146438904Y-94511761D01*
X146391285Y-94464142D01*
D12*
X141648666Y-73914771D02*
X141624857Y-73938580D01*
X141553428Y-73962390D01*
X141505809Y-73962390D01*
X141434380Y-73938580D01*
X141386761Y-73890961D01*
X141362952Y-73843342D01*
X141339142Y-73748104D01*
X141339142Y-73676676D01*
X141362952Y-73581438D01*
X141386761Y-73533819D01*
X141434380Y-73486200D01*
X141505809Y-73462390D01*
X141553428Y-73462390D01*
X141624857Y-73486200D01*
X141648666Y-73510009D01*
X141815333Y-73462390D02*
X142148666Y-73462390D01*
X141934380Y-73962390D01*
X141597866Y-78232771D02*
X141574057Y-78256580D01*
X141502628Y-78280390D01*
X141455009Y-78280390D01*
X141383580Y-78256580D01*
X141335961Y-78208961D01*
X141312152Y-78161342D01*
X141288342Y-78066104D01*
X141288342Y-77994676D01*
X141312152Y-77899438D01*
X141335961Y-77851819D01*
X141383580Y-77804200D01*
X141455009Y-77780390D01*
X141502628Y-77780390D01*
X141574057Y-77804200D01*
X141597866Y-77828009D01*
X141883580Y-77994676D02*
X141835961Y-77970866D01*
X141812152Y-77947057D01*
X141788342Y-77899438D01*
X141788342Y-77875628D01*
X141812152Y-77828009D01*
X141835961Y-77804200D01*
X141883580Y-77780390D01*
X141978819Y-77780390D01*
X142026438Y-77804200D01*
X142050247Y-77828009D01*
X142074057Y-77875628D01*
X142074057Y-77899438D01*
X142050247Y-77947057D01*
X142026438Y-77970866D01*
X141978819Y-77994676D01*
X141883580Y-77994676D01*
X141835961Y-78018485D01*
X141812152Y-78042295D01*
X141788342Y-78089914D01*
X141788342Y-78185152D01*
X141812152Y-78232771D01*
X141835961Y-78256580D01*
X141883580Y-78280390D01*
X141978819Y-78280390D01*
X142026438Y-78256580D01*
X142050247Y-78232771D01*
X142074057Y-78185152D01*
X142074057Y-78089914D01*
X142050247Y-78042295D01*
X142026438Y-78018485D01*
X141978819Y-77994676D01*
D10*
X131797466Y-69378580D02*
X131797466Y-70092866D01*
X131749847Y-70235723D01*
X131654609Y-70330961D01*
X131511752Y-70378580D01*
X131416514Y-70378580D01*
X132797466Y-70378580D02*
X132226038Y-70378580D01*
X132511752Y-70378580D02*
X132511752Y-69378580D01*
X132416514Y-69521438D01*
X132321276Y-69616676D01*
X132226038Y-69664295D01*
X131899066Y-80910180D02*
X131899066Y-81624466D01*
X131851447Y-81767323D01*
X131756209Y-81862561D01*
X131613352Y-81910180D01*
X131518114Y-81910180D01*
X132327638Y-81005419D02*
X132375257Y-80957800D01*
X132470495Y-80910180D01*
X132708590Y-80910180D01*
X132803828Y-80957800D01*
X132851447Y-81005419D01*
X132899066Y-81100657D01*
X132899066Y-81195895D01*
X132851447Y-81338752D01*
X132280019Y-81910180D01*
X132899066Y-81910180D01*
X146427866Y-107910380D02*
X146427866Y-108624666D01*
X146380247Y-108767523D01*
X146285009Y-108862761D01*
X146142152Y-108910380D01*
X146046914Y-108910380D01*
X146808819Y-107910380D02*
X147427866Y-107910380D01*
X147094533Y-108291333D01*
X147237390Y-108291333D01*
X147332628Y-108338952D01*
X147380247Y-108386571D01*
X147427866Y-108481809D01*
X147427866Y-108719904D01*
X147380247Y-108815142D01*
X147332628Y-108862761D01*
X147237390Y-108910380D01*
X146951676Y-108910380D01*
X146856438Y-108862761D01*
X146808819Y-108815142D01*
X138655466Y-91349580D02*
X138655466Y-92063866D01*
X138607847Y-92206723D01*
X138512609Y-92301961D01*
X138369752Y-92349580D01*
X138274514Y-92349580D01*
X139560228Y-91682914D02*
X139560228Y-92349580D01*
X139322133Y-91301961D02*
X139084038Y-92016247D01*
X139703085Y-92016247D01*
X132762666Y-108316780D02*
X132762666Y-109031066D01*
X132715047Y-109173923D01*
X132619809Y-109269161D01*
X132476952Y-109316780D01*
X132381714Y-109316780D01*
X133715047Y-108316780D02*
X133238857Y-108316780D01*
X133191238Y-108792971D01*
X133238857Y-108745352D01*
X133334095Y-108697733D01*
X133572190Y-108697733D01*
X133667428Y-108745352D01*
X133715047Y-108792971D01*
X133762666Y-108888209D01*
X133762666Y-109126304D01*
X133715047Y-109221542D01*
X133667428Y-109269161D01*
X133572190Y-109316780D01*
X133334095Y-109316780D01*
X133238857Y-109269161D01*
X133191238Y-109221542D01*
X161591666Y-112482380D02*
X161591666Y-113196666D01*
X161544047Y-113339523D01*
X161448809Y-113434761D01*
X161305952Y-113482380D01*
X161210714Y-113482380D01*
X161972619Y-112482380D02*
X162639285Y-112482380D01*
X162210714Y-113482380D01*
D12*
X141623266Y-82572990D02*
X141456600Y-82334895D01*
X141337552Y-82572990D02*
X141337552Y-82072990D01*
X141528028Y-82072990D01*
X141575647Y-82096800D01*
X141599457Y-82120609D01*
X141623266Y-82168228D01*
X141623266Y-82239657D01*
X141599457Y-82287276D01*
X141575647Y-82311085D01*
X141528028Y-82334895D01*
X141337552Y-82334895D01*
X142099457Y-82572990D02*
X141813742Y-82572990D01*
X141956600Y-82572990D02*
X141956600Y-82072990D01*
X141908980Y-82144419D01*
X141861361Y-82192038D01*
X141813742Y-82215847D01*
X136268590Y-81515733D02*
X136030495Y-81682400D01*
X136268590Y-81801447D02*
X135768590Y-81801447D01*
X135768590Y-81610971D01*
X135792400Y-81563352D01*
X135816209Y-81539542D01*
X135863828Y-81515733D01*
X135935257Y-81515733D01*
X135982876Y-81539542D01*
X136006685Y-81563352D01*
X136030495Y-81610971D01*
X136030495Y-81801447D01*
X135816209Y-81325257D02*
X135792400Y-81301447D01*
X135768590Y-81253828D01*
X135768590Y-81134780D01*
X135792400Y-81087161D01*
X135816209Y-81063352D01*
X135863828Y-81039542D01*
X135911447Y-81039542D01*
X135982876Y-81063352D01*
X136268590Y-81349066D01*
X136268590Y-81039542D01*
X136243190Y-89135733D02*
X136005095Y-89302400D01*
X136243190Y-89421447D02*
X135743190Y-89421447D01*
X135743190Y-89230971D01*
X135767000Y-89183352D01*
X135790809Y-89159542D01*
X135838428Y-89135733D01*
X135909857Y-89135733D01*
X135957476Y-89159542D01*
X135981285Y-89183352D01*
X136005095Y-89230971D01*
X136005095Y-89421447D01*
X135743190Y-88969066D02*
X135743190Y-88659542D01*
X135933666Y-88826209D01*
X135933666Y-88754780D01*
X135957476Y-88707161D01*
X135981285Y-88683352D01*
X136028904Y-88659542D01*
X136147952Y-88659542D01*
X136195571Y-88683352D01*
X136219380Y-88707161D01*
X136243190Y-88754780D01*
X136243190Y-88897638D01*
X136219380Y-88945257D01*
X136195571Y-88969066D01*
X136268590Y-86570333D02*
X136030495Y-86737000D01*
X136268590Y-86856047D02*
X135768590Y-86856047D01*
X135768590Y-86665571D01*
X135792400Y-86617952D01*
X135816209Y-86594142D01*
X135863828Y-86570333D01*
X135935257Y-86570333D01*
X135982876Y-86594142D01*
X136006685Y-86617952D01*
X136030495Y-86665571D01*
X136030495Y-86856047D01*
X135935257Y-86141761D02*
X136268590Y-86141761D01*
X135744780Y-86260809D02*
X136101923Y-86379857D01*
X136101923Y-86070333D01*
X136268590Y-84055733D02*
X136030495Y-84222400D01*
X136268590Y-84341447D02*
X135768590Y-84341447D01*
X135768590Y-84150971D01*
X135792400Y-84103352D01*
X135816209Y-84079542D01*
X135863828Y-84055733D01*
X135935257Y-84055733D01*
X135982876Y-84079542D01*
X136006685Y-84103352D01*
X136030495Y-84150971D01*
X136030495Y-84341447D01*
X135768590Y-83603352D02*
X135768590Y-83841447D01*
X136006685Y-83865257D01*
X135982876Y-83841447D01*
X135959066Y-83793828D01*
X135959066Y-83674780D01*
X135982876Y-83627161D01*
X136006685Y-83603352D01*
X136054304Y-83579542D01*
X136173352Y-83579542D01*
X136220971Y-83603352D01*
X136244780Y-83627161D01*
X136268590Y-83674780D01*
X136268590Y-83793828D01*
X136244780Y-83841447D01*
X136220971Y-83865257D01*
X136243190Y-70060333D02*
X136005095Y-70227000D01*
X136243190Y-70346047D02*
X135743190Y-70346047D01*
X135743190Y-70155571D01*
X135767000Y-70107952D01*
X135790809Y-70084142D01*
X135838428Y-70060333D01*
X135909857Y-70060333D01*
X135957476Y-70084142D01*
X135981285Y-70107952D01*
X136005095Y-70155571D01*
X136005095Y-70346047D01*
X135743190Y-69631761D02*
X135743190Y-69727000D01*
X135767000Y-69774619D01*
X135790809Y-69798428D01*
X135862238Y-69846047D01*
X135957476Y-69869857D01*
X136147952Y-69869857D01*
X136195571Y-69846047D01*
X136219380Y-69822238D01*
X136243190Y-69774619D01*
X136243190Y-69679380D01*
X136219380Y-69631761D01*
X136195571Y-69607952D01*
X136147952Y-69584142D01*
X136028904Y-69584142D01*
X135981285Y-69607952D01*
X135957476Y-69631761D01*
X135933666Y-69679380D01*
X135933666Y-69774619D01*
X135957476Y-69822238D01*
X135981285Y-69846047D01*
X136028904Y-69869857D01*
X136243190Y-72600333D02*
X136005095Y-72767000D01*
X136243190Y-72886047D02*
X135743190Y-72886047D01*
X135743190Y-72695571D01*
X135767000Y-72647952D01*
X135790809Y-72624142D01*
X135838428Y-72600333D01*
X135909857Y-72600333D01*
X135957476Y-72624142D01*
X135981285Y-72647952D01*
X136005095Y-72695571D01*
X136005095Y-72886047D01*
X135743190Y-72433666D02*
X135743190Y-72100333D01*
X136243190Y-72314619D01*
X136243190Y-75140333D02*
X136005095Y-75307000D01*
X136243190Y-75426047D02*
X135743190Y-75426047D01*
X135743190Y-75235571D01*
X135767000Y-75187952D01*
X135790809Y-75164142D01*
X135838428Y-75140333D01*
X135909857Y-75140333D01*
X135957476Y-75164142D01*
X135981285Y-75187952D01*
X136005095Y-75235571D01*
X136005095Y-75426047D01*
X135957476Y-74854619D02*
X135933666Y-74902238D01*
X135909857Y-74926047D01*
X135862238Y-74949857D01*
X135838428Y-74949857D01*
X135790809Y-74926047D01*
X135767000Y-74902238D01*
X135743190Y-74854619D01*
X135743190Y-74759380D01*
X135767000Y-74711761D01*
X135790809Y-74687952D01*
X135838428Y-74664142D01*
X135862238Y-74664142D01*
X135909857Y-74687952D01*
X135933666Y-74711761D01*
X135957476Y-74759380D01*
X135957476Y-74854619D01*
X135981285Y-74902238D01*
X136005095Y-74926047D01*
X136052714Y-74949857D01*
X136147952Y-74949857D01*
X136195571Y-74926047D01*
X136219380Y-74902238D01*
X136243190Y-74854619D01*
X136243190Y-74759380D01*
X136219380Y-74711761D01*
X136195571Y-74687952D01*
X136147952Y-74664142D01*
X136052714Y-74664142D01*
X136005095Y-74687952D01*
X135981285Y-74711761D01*
X135957476Y-74759380D01*
M02*
